<svg width="865" height="1088" viewBox="0 0 865 1088" fill="none" xmlns="http://www.w3.org/2000/svg">
<path d="M428.458 68.1216C470.398 43.9594 521.976 43.9595 563.916 68.1216L635.916 109.7C635.912 109.695 635.907 109.69 635.902 109.685L874.145 247.272L874.27 247.398C916.209 271.56 941.999 316.254 941.999 364.704C941.999 364.931 941.874 579.464 941.624 681.567C941.624 705.354 916.085 720.376 895.303 708.859L673.461 586.295C664.697 581.413 659.313 572.9 658.187 563.635C654.055 553.995 669.579 527.579 687.356 498.535C687.356 498.535 702.38 465.734 702.38 456.845C702.443 456.652 702.504 456.458 702.566 456.264C702.004 428.08 678.918 402.694 647.42 403.263C546.89 399.257 445.859 400.509 343.952 409.022C302.388 409.773 277.225 455.343 298.758 490.898C342.325 580.661 394.781 667.295 455.499 750.798C468.248 771.95 491.8 780.21 513.051 775.753C513.105 775.698 513.16 775.643 513.214 775.587H513.339C529.355 761.323 575.761 700.66 575.81 700.596C580.442 690.205 585.7 681.692 592.085 677.31C601.224 670.8 613.619 669.674 624.135 675.433L847.854 798.999C869.012 810.642 869.387 840.938 848.605 853.207C757.292 907.119 564.244 1019.15 563.917 1019.34C521.977 1043.5 470.398 1043.5 428.458 1019.34L205.614 890.639H205.619L118.229 840.186C76.2899 816.024 50.5 771.205 50.5 722.88V364.578C50.5002 316.128 76.29 271.434 118.229 247.272L428.458 68.1216Z" stroke="#F9F8FA" stroke-width="100"/>
</svg>
