<svg width="21" height="24" viewBox="0 0 21 24" fill="none" xmlns="http://www.w3.org/2000/svg">
<g clip-path="url(#clip0_5_420)">
<g clip-path="url(#clip1_5_420)">
<path d="M17.6109 8.9391V6.4457C17.6109 2.89062 14.4208 0 10.5013 0C6.57952 0 3.38945 2.89062 3.38945 6.4457V8.9391C1.87719 9.19966 0.722168 10.5169 0.722168 12.1031V20.7883C0.723197 21.6398 1.06198 22.4562 1.6642 23.0584C2.26641 23.6605 3.08288 23.9991 3.93446 24H17.0659C17.9175 23.9991 18.7339 23.6605 19.3361 23.0584C19.9384 22.4562 20.2771 21.6398 20.2782 20.7883V12.1008C20.2782 10.5169 19.1237 9.19966 17.6109 8.9391ZM4.27669 6.4457C4.27669 3.38119 7.07009 0.890021 10.5013 0.890021C13.9325 0.890021 16.7231 3.38119 16.7231 6.4457V8.88909H4.27669V6.4457ZM19.3904 20.7883C19.3893 21.4044 19.1441 21.9951 18.7084 22.4308C18.2727 22.8665 17.6821 23.1117 17.0659 23.1128H3.93446C3.31854 23.1116 2.7282 22.8662 2.29288 22.4305C1.85756 21.9948 1.61278 21.4042 1.61219 20.7883V12.1008C1.61292 11.4852 1.85785 10.895 2.29321 10.4597C2.72858 10.0245 3.31884 9.7797 3.93446 9.77911H17.0659C17.6817 9.7797 18.2722 10.0244 18.7079 10.4596C19.1436 10.8948 19.3891 11.485 19.3904 12.1008V20.7883Z" fill="#C3C2C2"/>
<path d="M10.5015 12.4436C10.0297 12.4442 9.57732 12.6319 9.24364 12.9654C8.90996 13.299 8.72217 13.7513 8.72144 14.2231V16.8882C8.72217 17.36 8.90996 17.8123 9.24364 18.1458C9.57732 18.4794 10.0297 18.6671 10.5015 18.6677C10.9729 18.6665 11.4246 18.4785 11.7577 18.145C12.0908 17.8115 12.2782 17.3595 12.2787 16.8882V14.2231C12.2782 13.7517 12.0908 13.2998 11.7577 12.9663C11.4246 12.6327 10.9729 12.4448 10.5015 12.4436ZM11.3887 16.8882C11.3887 17.3787 10.9893 17.7782 10.5015 17.7782C10.2655 17.7779 10.0393 17.684 9.87246 17.5172C9.70561 17.3503 9.61175 17.1241 9.61146 16.8882V14.2231C9.61146 13.7325 10.0109 13.3336 10.5015 13.3336C10.9893 13.3336 11.3887 13.7325 11.3887 14.2231V16.8882Z" fill="#C3C2C2"/>
</g>
</g>
<defs>
<clipPath id="clip0_5_420">
<rect width="20" height="24" fill="white" transform="translate(0.5)"/>
</clipPath>
<clipPath id="clip1_5_420">
<rect width="20" height="24" fill="white" transform="translate(0.5)"/>
</clipPath>
</defs>
</svg>
