<svg width="182" height="46" viewBox="0 0 182 46" fill="none" xmlns="http://www.w3.org/2000/svg">
<path d="M29.4163 20.1892C30.3352 18.4921 29.1081 16.4219 27.2132 16.4569C22.6301 16.2703 18.0242 16.3286 13.3783 16.7252C11.4834 16.7601 10.3362 18.8829 11.3179 20.5391C13.3041 24.7203 15.6956 28.7558 18.4637 32.6455C19.2171 33.9227 20.798 34.1909 21.9053 33.4678L14.6739 43.644L3.08774 36.8093C1.17574 35.6838 0 33.5961 0 31.3451V14.6549C0 12.3981 1.17574 10.3162 3.08774 9.19068L17.2309 0.845595C19.1429 -0.279912 21.4944 -0.279912 23.4064 0.845595L37.5495 9.19068L29.4106 20.1892H29.4163Z" fill="url(#paint0_linear_5_1882)"/>
<path d="M21.0948 33.8002C16.5973 38.5297 11.9628 39.8418 7.07153 39.1595L17.2308 45.1544C19.1428 46.2799 21.4943 46.2799 23.4063 45.1544C23.4063 45.1544 32.2187 39.9293 36.3851 37.4158C37.3326 36.8443 37.3155 35.4331 36.3509 34.8907L26.1516 29.1349C25.6722 28.8666 25.1072 28.9191 24.6905 29.2224C24.3994 29.4265 24.1597 29.823 23.9485 30.3071C23.9485 30.3071 21.8311 33.1354 21.1005 33.8002H21.0948Z" fill="url(#paint1_linear_5_1882)"/>
<path d="M37.5496 9.19068L26.6882 2.78171C31.083 7.62197 31.6366 12.9054 29.7189 18.9529C29.7189 19.3669 29.034 20.8948 29.034 20.8948C28.2235 22.2477 27.5158 23.4782 27.7042 23.9272C27.7555 24.3588 28.001 24.7553 28.4005 24.9828L38.5141 30.6919C39.4616 31.2285 40.6259 30.5287 40.6259 29.4207C40.6373 24.662 40.643 14.6608 40.643 14.6608C40.643 12.4039 39.4673 10.322 37.5553 9.19651L37.5496 9.19068Z" fill="url(#paint2_linear_5_1882)"/>
<path d="M68.8321 21.408L66.6004 23.5832C65.0823 21.9445 63.3757 21.1281 61.4808 21.1281C59.8827 21.1281 58.5301 21.6879 57.4342 22.8076C56.3384 23.9273 55.7905 25.3035 55.7905 26.9422C55.7905 28.0852 56.0302 29.0999 56.521 29.9805C57.0062 30.8669 57.6911 31.5609 58.5814 32.0682C59.4661 32.5756 60.4535 32.8263 61.5379 32.8263C62.4625 32.8263 63.3072 32.6514 64.0777 32.2957C64.8425 31.9399 65.6872 31.2984 66.6062 30.3654L68.7693 32.6689C67.5308 33.9052 66.3607 34.7566 65.2592 35.2348C64.1576 35.713 62.902 35.9521 61.4923 35.9521C58.8896 35.9521 56.755 35.1065 55.0942 33.4212C53.4333 31.7358 52.6057 29.5723 52.6057 26.9364C52.6057 25.2277 52.9824 23.7115 53.7415 22.3877C54.4949 21.0639 55.5793 19.9967 56.9891 19.1861C58.3988 18.3755 59.9113 17.9731 61.5379 17.9731C62.9191 17.9731 64.249 18.2706 65.5274 18.8654C66.8059 19.4602 67.9075 20.3116 68.8378 21.408H68.8321Z" fill="black"/>
<path d="M76.7312 18.3989H79.9674L86.4111 35.5147H83.0951L81.7823 31.9866H74.9448L73.5807 35.5147H70.2646L76.7255 18.3989H76.7312ZM78.3693 22.9359L76.1205 28.8142H80.6009L78.3636 22.9359H78.3693Z" fill="black"/>
<path d="M88.8767 18.3989H92.0672V32.4123H96.7131V35.5206H88.8767V18.4047V18.3989Z" fill="black"/>
<path d="M99.1387 18.3989H102.329V32.4123H106.975V35.5206H99.1387V18.4047V18.3989Z" fill="black"/>
<path d="M114.275 18.3989H123.533V21.6121H120.479V35.5206H117.243V21.6121H114.269V18.3989H114.275Z" fill="black"/>
<path d="M125.935 18.3989H129.314C131.163 18.3989 132.482 18.568 133.269 18.9062C134.057 19.2445 134.685 19.8043 135.164 20.5857C135.644 21.3672 135.883 22.2944 135.883 23.3674C135.883 24.4929 135.621 25.4318 135.09 26.1899C134.559 26.9481 133.766 27.5196 132.704 27.9044L136.671 35.5147H133.184L129.417 28.266H129.126V35.5147H125.935V18.3989ZM129.126 25.0878H130.125C131.141 25.0878 131.837 24.9536 132.219 24.6795C132.602 24.4055 132.79 23.9564 132.79 23.3266C132.79 22.9534 132.693 22.6268 132.505 22.3527C132.316 22.0786 132.059 21.8804 131.746 21.7579C131.432 21.6354 130.844 21.5771 129.999 21.5771H129.126V25.0936V25.0878Z" fill="black"/>
<path d="M144.365 18.3989H147.601L154.045 35.5147H150.729L149.416 31.9866H142.578L141.214 35.5147H137.898L144.359 18.3989H144.365ZM146.003 22.9359L143.754 28.8142H148.234L145.997 22.9359H146.003Z" fill="black"/>
<path d="M156.522 18.3989H160.3C162.737 18.3989 164.547 18.7079 165.728 19.3261C166.909 19.9443 167.885 20.9473 168.65 22.3352C169.415 23.7232 169.797 25.3444 169.797 27.1988C169.797 28.5168 169.581 29.7297 169.152 30.8378C168.724 31.9458 168.131 32.8613 167.377 33.5903C166.624 34.3193 165.808 34.8266 164.923 35.1007C164.044 35.3806 162.52 35.5206 160.352 35.5206H156.516V18.4047L156.522 18.3989ZM159.689 21.5421V32.3423H161.168C162.623 32.3423 163.685 32.1732 164.341 31.8291C164.997 31.4909 165.534 30.9136 165.951 30.103C166.367 29.2982 166.578 28.301 166.578 27.123C166.578 25.3035 166.082 23.8981 165.089 22.8951C164.193 21.997 162.754 21.5421 160.774 21.5421H159.689Z" fill="black"/>
<path d="M172.851 18.3989H181.994V21.5888H176.013V24.6854H181.994V27.817H176.013V32.319H181.994V35.5206H172.851V18.4047V18.3989Z" fill="black"/>
<defs>
<linearGradient id="paint0_linear_5_1882" x1="3.57859" y1="13.2612" x2="28.7799" y2="27.2924" gradientUnits="userSpaceOnUse">
<stop stop-color="#D6AFFF"/>
<stop offset="0.88" stop-color="#8D00EE"/>
</linearGradient>
<linearGradient id="paint1_linear_5_1882" x1="11.5234" y1="31.1526" x2="33.3336" y2="43.293" gradientUnits="userSpaceOnUse">
<stop stop-color="#F2E8FF"/>
<stop offset="1" stop-color="#C383FF"/>
</linearGradient>
<linearGradient id="paint2_linear_5_1882" x1="22.2307" y1="10.7944" x2="44.3522" y2="23.104" gradientUnits="userSpaceOnUse">
<stop stop-color="#F2E8FF"/>
<stop offset="1" stop-color="#C383FF"/>
</linearGradient>
</defs>
</svg>
