<svg width="89" height="81" viewBox="0 0 89 81" fill="none" xmlns="http://www.w3.org/2000/svg">
<g clip-path="url(#clip0_5_1575)">
<path d="M40.3064 52.7767H52.7948V75.4244H40.3064V52.7767ZM20.6321 15.4104H30.9896V18.1856H20.6321V15.4104Z" fill="#D6AFFF" stroke="black" stroke-width="0.145575" stroke-miterlimit="10"/>
<path d="M29.3542 23.9343L22.218 29.9803V18.929H29.3542V23.9343Z" fill="#D6AFFF"/>
<path d="M71.3824 73.3343C72.8172 73.2806 74.2278 73.6912 74.903 75.0542L75.8817 73.7812C73.0581 73.3748 70.2567 73.7585 67.4225 73.7845C64.6056 73.8104 61.7877 73.7882 58.9707 73.7876L59.5834 75.2671C60.0988 74.8155 60.7665 74.6471 61.2781 74.2198C61.8433 73.7477 61.6753 73.1094 62.0477 72.569C62.4542 71.9796 63.2448 71.5162 63.8493 71.1648C64.5193 70.7754 65.2623 70.4579 66.0523 70.5055C67.522 70.5941 68.8762 71.4121 69.8686 72.4519C70.3209 72.9258 70.7324 73.4321 71.2954 73.7831C71.9159 74.17 72.6309 74.2824 73.3459 74.3484V72.6151C71.3882 72.6587 69.4305 72.7023 67.4727 72.7316C66.5176 72.7459 65.5626 72.7566 64.6073 72.7625C63.891 72.7669 63.1746 72.7682 62.4582 72.7661L62.1717 72.7651C61.8489 72.7281 61.7935 72.7438 62.0058 72.8125L62.2597 73.4253C62.0863 73.732 62.1316 73.8147 62.3952 73.6732C62.5406 73.6398 62.6891 73.6215 62.8383 73.6184C63.1956 73.589 63.5589 73.5944 63.917 73.5902C64.6761 73.5812 65.4351 73.5922 66.1941 73.594C67.6962 73.5975 69.1835 73.5442 70.6711 73.3248C71.1987 73.2471 71.491 72.471 71.1891 72.0518C70.3661 70.9089 68.4339 70.9249 67.154 70.9039C65.4869 70.8767 63.8185 70.8835 62.1511 70.8741L62.3815 72.5764C64.3609 71.9538 66.3853 71.738 68.4521 71.9174C69.5632 72.0139 69.5568 70.2801 68.4521 70.1842C66.247 69.9927 64.0319 70.2411 61.9208 70.9051C61.0013 71.1943 61.151 72.6017 62.1512 72.6074L66.2232 72.6304C66.8313 72.6339 67.4405 72.6295 68.0476 72.6703C68.3508 72.6907 68.6508 72.7221 68.949 72.7824C69.0472 72.8022 69.7137 72.9559 69.6926 72.9267L70.2105 71.6536C68.034 71.9745 65.8236 71.8218 63.6329 71.8612C62.7929 71.8763 61.8451 71.8628 61.114 72.3438C60.4641 72.7712 60.274 73.6829 60.9477 74.1974C61.6072 74.7011 62.6885 74.5012 63.4615 74.5C64.5599 74.4984 65.6584 74.4891 66.7566 74.4749C68.9533 74.4463 71.1498 74.3973 73.3462 74.3484C74.4785 74.3232 74.4418 72.7162 73.3462 72.6151C72.5215 72.5391 72.0216 72.2305 71.4684 71.6329C70.9372 71.0589 70.3953 70.5189 69.7527 70.0671C68.535 69.2109 66.8201 68.6168 65.3265 68.8092C63.7592 69.0111 62.2808 69.9623 61.1427 71.0215C60.8736 71.2719 60.6058 71.56 60.4323 71.8877C60.2749 72.1847 60.3139 72.656 60.1426 72.9092C60.03 73.0756 59.5645 73.1749 59.3782 73.2838C59.0115 73.4981 58.6768 73.7618 58.3578 74.0413C57.7793 74.5482 58.2534 75.5205 58.9707 75.5208C61.6964 75.5214 64.4226 75.5373 67.1482 75.5198C69.8964 75.5022 72.686 75.0589 75.4208 75.4525C76.1721 75.5607 76.7576 74.9023 76.3995 74.1795C75.4646 72.2924 73.3886 71.5259 71.3823 71.6011C70.2705 71.6427 70.2651 73.3762 71.3824 73.3343ZM17.0146 75.563C22.8099 75.518 28.6054 75.5329 34.4004 75.6076C35.3774 75.6201 35.5775 74.16 34.6309 73.9052C34.0114 73.7385 33.2306 73.5654 32.7004 73.1877C32.2258 72.8495 32.0926 72.1449 31.853 71.6284C31.3856 70.6208 30.7098 69.7268 29.6631 69.284C28.4835 68.7848 26.9701 68.6778 25.7028 68.744C24.5123 68.8062 23.3035 69.0985 22.3147 69.7894C21.8817 70.0919 21.5009 70.4346 21.1767 70.8519C21.004 71.0742 20.8497 71.2997 20.7237 71.5522C20.6636 71.6824 20.6064 71.8139 20.5522 71.9467C20.4316 72.1671 20.4485 72.1994 20.6028 72.0435C20.3708 72.1672 19.738 72.0713 19.4663 72.0877C19.0878 72.1106 18.7099 72.1416 18.3327 72.1807C17.8027 72.2358 17.2124 72.2481 16.7851 72.6118C15.8837 73.3791 16.5359 74.6784 17.6549 74.6091C18.8441 74.5354 19.6662 72.8779 20.8879 73.161L20.2826 72.095C20.2045 72.3547 20.1192 72.5224 19.9368 72.7258C19.6039 73.0971 19.57 73.8486 20.1123 74.0869C20.9813 74.4687 21.8947 74.4166 22.8284 74.4305C24.9364 74.4619 27.0447 74.472 29.1529 74.4609C29.9349 74.4568 31.095 74.5577 31.2687 73.5285C31.5603 71.8001 29.205 71.565 28.0577 71.5586L21.6261 71.5226L21.8565 73.2249C24.5874 72.579 27.3933 72.6217 30.1812 72.6707C30.9614 72.6844 31.2858 71.7283 30.794 71.1913C29.7135 70.0114 28.1144 69.7689 26.5909 69.7026C24.6508 69.6183 22.6918 69.5956 20.7905 70.0431C19.7052 70.2986 20.1647 71.9702 21.2512 71.7145C22.8547 71.337 24.4954 71.3687 26.1316 71.4198C27.3296 71.4572 28.7006 71.4695 29.5682 72.4169L30.1809 70.9374C27.2361 70.8856 24.2792 70.8714 21.3955 71.5535C20.4341 71.7808 20.6577 73.2503 21.6259 73.2558L26.1996 73.2813C26.9615 73.2855 27.7247 73.2781 28.4864 73.2941C28.7185 73.2989 28.9521 73.2973 29.1797 73.348C29.3561 73.3871 29.5435 73.5515 29.5507 73.4133L29.8046 72.8005C29.9452 72.6322 30.0936 72.7476 29.7278 72.724C29.5384 72.7118 29.3427 72.7265 29.1527 72.7275C27.1883 72.738 25.2237 72.7299 23.2594 72.7032C22.5968 72.6943 21.6038 72.8613 20.9869 72.5902L21.1623 73.9514C21.5412 73.5289 21.7901 73.1003 21.9538 72.5557C22.0845 72.1208 21.7974 71.5938 21.3485 71.4897C20.3175 71.2508 19.4024 71.5932 18.5534 72.1771C18.294 72.3556 17.941 72.5431 17.7202 72.7643L17.5018 72.8952C17.3714 73.7514 17.5541 74.1012 18.05 73.9448C18.5994 73.9757 19.198 73.8327 19.7502 73.8054C20.7672 73.7548 21.6603 73.839 22.0982 72.7559C22.4532 71.8775 23.0297 71.2646 23.9067 70.8742C24.9165 70.4245 26.0674 70.4172 27.1486 70.5167C28.1784 70.6113 29.2469 70.7235 29.8806 71.635C30.4339 72.431 30.5671 73.5176 31.2346 74.2245C31.9484 74.9804 33.1971 75.3148 34.1701 75.5766L34.4006 73.8742C28.6056 73.7995 22.81 73.7847 17.0147 73.8297C15.8998 73.8384 15.8971 75.5716 17.0146 75.563Z" fill="#663399"/>
<path d="M79.2899 74.8608H78.3655C77.8123 72.4797 76.1338 70.6707 73.947 70.0044V42.3053L75.5466 43.918C75.8578 44.2336 76.2286 44.4842 76.6373 44.6554C77.0461 44.8266 77.4848 44.915 77.928 44.9153H78.2522C78.4536 44.9153 78.6549 44.8867 78.8459 44.8229C81.5195 43.9308 82.0197 40.8694 80.3337 39.1701L72.7884 31.5631L71.238 33.1006L78.7834 40.7078C79.4 41.3291 79.1867 42.4672 78.1487 42.7316H77.9361C77.7799 42.7315 77.6254 42.7003 77.4814 42.64C77.3374 42.5797 77.2067 42.4915 77.0971 42.3803L48.2641 13.3119C47.8959 12.9397 47.4156 12.6988 46.897 12.6264C46.7841 12.6104 46.6699 12.5993 46.5538 12.5993C46.4728 12.5993 46.3926 12.6033 46.3131 12.6111C45.7563 12.6655 45.2362 12.9135 44.8434 13.3119L16.0106 42.3805C15.9009 42.4916 15.7703 42.5799 15.6263 42.6402C15.4823 42.7005 15.3277 42.7316 15.1716 42.7317H14.9586C13.9208 42.4674 13.7076 41.3293 14.3239 40.7078L46.1076 8.66444C46.1658 8.60538 46.2352 8.55853 46.3118 8.52663C46.3884 8.49474 46.4705 8.47844 46.5535 8.47869C46.7222 8.47869 46.8806 8.54463 46.9994 8.66444L66.4584 28.2824L68.0087 26.7448L48.5502 7.12674C48.0181 6.59029 47.3091 6.29492 46.5538 6.29492C45.7984 6.29492 45.0894 6.59029 44.5575 7.12674L30.9387 20.8568V19.5026H32.6514V13.6485L32.6512 13.6483H18.7698V19.5026L18.7699 19.5028H20.4823V31.3984L12.7737 39.1701C11.4658 40.4887 11.4734 42.6262 12.7907 43.9356C13.1027 44.2474 13.4733 44.4944 13.881 44.6626C14.2888 44.8307 14.7257 44.9167 15.1668 44.9155H15.1792C15.6224 44.9152 16.0611 44.8269 16.4699 44.6557C16.8787 44.4845 17.2494 44.2339 17.5606 43.9183L19.1602 42.3056V55.8338H21.3438V40.1041L46.3936 14.8498C46.4482 14.7947 46.5108 14.7831 46.5536 14.7831C46.5964 14.7831 46.659 14.7947 46.7136 14.8498L71.7632 40.1041V69.5175C71.7467 69.4993 71.7289 69.4823 71.7122 69.4642C71.6683 69.4168 71.6233 69.3706 71.5784 69.3245C71.528 69.2724 71.4769 69.2211 71.4251 69.1704C71.3786 69.1255 71.3315 69.0812 71.2839 69.0375C71.1838 68.9445 71.0809 68.8546 70.9754 68.7678C70.8706 68.6808 70.7634 68.5966 70.654 68.5155C70.5448 68.4346 70.4337 68.3564 70.3206 68.2811C70.2613 68.2418 70.2014 68.2035 70.1411 68.1658C70.0262 68.0937 69.9092 68.0249 69.7903 67.9596C69.7341 67.9282 69.6775 67.8976 69.6205 67.8677C69.5571 67.8349 69.4933 67.803 69.429 67.7721C69.3713 67.7441 69.3138 67.716 69.2556 67.6895C69.1902 67.6597 69.1241 67.6317 69.0579 67.6036C68.9992 67.5789 68.9407 67.5538 68.8813 67.5304C68.8139 67.5039 68.7456 67.4793 68.6773 67.4547C68.6181 67.4333 68.559 67.4113 68.499 67.3914C68.4291 67.3681 68.3584 67.347 68.2878 67.3257C68.2284 67.3078 68.1693 67.2892 68.1093 67.2726C68.0367 67.2526 67.9633 67.2352 67.8901 67.2173C67.831 67.2029 67.7723 67.1874 67.7129 67.1745C67.6371 67.1579 67.5605 67.144 67.4841 67.1298C67.4263 67.1189 67.3688 67.1068 67.3105 67.0973C67.23 67.0841 67.1487 67.0742 67.0676 67.0635C67.0127 67.0564 66.9583 67.0477 66.9032 67.0416C66.8125 67.0317 66.7213 67.0254 66.6301 67.0189C66.5838 67.0155 66.538 67.0103 66.4915 67.0078C65.6826 66.9636 64.8717 67.0476 64.089 67.2564C62.9531 67.5598 61.9024 68.1205 61.018 68.8952C60.1336 69.6698 59.4394 70.6376 58.9891 71.7235C58.8853 71.7647 58.7844 71.8091 58.6852 71.8553C58.6564 71.8687 58.6286 71.8831 58.6002 71.8969C58.5312 71.9303 58.4629 71.9652 58.3954 72.0014C58.3004 72.0529 58.207 72.1072 58.1153 72.1643C58.0846 72.1836 58.0537 72.2026 58.0235 72.2223C57.9597 72.2639 57.8977 72.3071 57.8365 72.3511C57.8135 72.3677 57.7898 72.3837 57.7671 72.4006C57.6841 72.4626 57.6033 72.5265 57.5254 72.5931C57.5173 72.6 57.5097 72.6076 57.5016 72.6146C57.4327 72.6741 57.3659 72.7354 57.3011 72.7985C57.278 72.821 57.2558 72.8443 57.2333 72.8673C57.1845 72.9168 57.1366 72.967 57.0902 73.0186C57.0211 73.0957 56.9546 73.175 56.8907 73.2564C56.8695 73.2835 56.8481 73.3103 56.8274 73.338C56.7816 73.3992 56.7376 73.4621 56.6948 73.5259C56.6811 73.5461 56.6667 73.5658 56.6533 73.5863C56.598 73.6715 56.5451 73.7587 56.4952 73.8479C56.4859 73.8647 56.4776 73.8821 56.4684 73.8989C56.4288 73.9716 56.3905 74.0456 56.3546 74.121C56.3399 74.1517 56.3262 74.1832 56.3121 74.2143C56.2677 74.3124 56.2265 74.412 56.1885 74.5127C56.1636 74.579 56.1402 74.6462 56.1179 74.7142C56.1068 74.748 56.0952 74.7815 56.0847 74.8157C56.0799 74.8311 56.0744 74.846 56.0697 74.8615H54.35V52.3512C54.35 52.0104 54.2147 51.6837 53.9737 51.4427C53.7328 51.2018 53.406 51.0665 53.0653 51.0665H40.0426C39.7019 51.0665 39.3751 51.2018 39.1342 51.4427C38.8933 51.6837 38.7579 52.0104 38.7579 52.3512V74.8608H37.0381C37.0337 74.846 37.0284 74.8319 37.0238 74.817C37.0126 74.7806 37.0004 74.7449 36.9886 74.709C36.9547 74.6063 36.9176 74.5046 36.8774 74.4042C36.8522 74.3416 36.8256 74.28 36.7981 74.2191C36.7828 74.1852 36.7679 74.151 36.7519 74.1175C36.7182 74.0476 36.6827 73.9784 36.6456 73.9102C36.634 73.8887 36.6234 73.8663 36.6113 73.845C36.5623 73.7576 36.5104 73.6719 36.4558 73.5879C36.4399 73.5635 36.4226 73.5399 36.4063 73.5157C36.3663 73.4562 36.325 73.3976 36.2823 73.34C36.2599 73.31 36.2366 73.2808 36.2134 73.2514C36.1093 73.1185 35.9976 72.9917 35.879 72.8715C35.8543 72.8464 35.83 72.8207 35.8045 72.796C35.7436 72.7371 35.6812 72.6798 35.6173 72.6242C35.6049 72.6134 35.5931 72.6018 35.5806 72.5912C35.5032 72.5254 35.4238 72.4622 35.3425 72.4015C35.317 72.3824 35.2902 72.3644 35.2643 72.3457C35.2061 72.3039 35.1472 72.2629 35.0867 72.2233C35.0544 72.2022 35.0213 72.1818 34.9884 72.1613C34.897 72.1047 34.804 72.0507 34.7096 71.9993C34.645 71.9646 34.5796 71.9312 34.5136 71.8992C34.4824 71.8841 34.4518 71.8682 34.4202 71.8535C34.3209 71.8072 34.2203 71.7636 34.1186 71.7228C33.5104 70.2565 32.462 69.0153 31.118 68.1705C29.7741 67.3258 28.2009 66.9192 26.616 67.0069C26.5692 67.0095 26.5229 67.0146 26.4764 67.0181C26.3855 67.0247 26.2947 67.0309 26.2044 67.0408C26.149 67.047 26.0939 67.0557 26.0386 67.063C25.958 67.0736 25.8772 67.0835 25.797 67.0966C25.7383 67.1062 25.6804 67.1184 25.622 67.1293C25.5461 67.1436 25.4702 67.1573 25.3947 67.1737C25.3345 67.187 25.2749 67.2026 25.2151 67.2173C25.1428 67.235 25.0703 67.2522 24.9985 67.272C24.9376 67.2887 24.8777 67.3077 24.8174 67.326C24.7477 67.3471 24.6779 67.3678 24.6089 67.3909C24.5482 67.4112 24.4884 67.4335 24.4281 67.4551C24.3607 67.4795 24.2935 67.5036 24.2268 67.5298C24.1665 67.5536 24.1071 67.579 24.0474 67.6042C23.9822 67.6315 23.9173 67.6596 23.8528 67.6886C23.7934 67.7157 23.7349 67.7442 23.6764 67.7728C23.6132 67.8035 23.5502 67.8345 23.4879 67.867C23.4298 67.8973 23.3724 67.9287 23.3152 67.9604C23.2539 67.9943 23.1928 68.0287 23.1325 68.0644C23.076 68.0977 23.0203 68.1321 22.9645 68.1669C22.8493 68.2386 22.7361 68.3136 22.625 68.3916C22.5137 68.4695 22.4045 68.5503 22.2976 68.6342C22.1906 68.7181 22.0858 68.8047 21.9832 68.894C21.9298 68.9406 21.8772 68.9883 21.825 69.0365C21.7769 69.0809 21.729 69.1255 21.682 69.171C21.6306 69.221 21.5804 69.2719 21.5303 69.3233C21.4847 69.37 21.4393 69.4168 21.3949 69.4648C21.3783 69.4827 21.3609 69.4996 21.3444 69.5176V62.6178C21.3444 62.6178 19.1586 62.6368 19.1608 62.6178V70.0001C16.9705 70.6632 15.2946 72.4775 14.7422 74.8611H13.818C13.3627 74.8611 12.9248 75.0514 12.6226 75.3919C10.3882 77.9086 12.1495 80.8294 14.5801 80.8294H78.5285C80.9595 80.8294 82.7204 77.9084 80.4861 75.3916C80.1833 75.0512 79.7454 74.8608 79.2899 74.8608ZM28.7549 23.058L22.6659 29.1969V19.5028H28.7549V23.058ZM20.9534 15.8321H30.4674V17.319H20.9534V15.8321ZM58.4408 74.8572C58.4811 74.7905 58.5247 74.7266 58.5707 74.6646C58.5841 74.6464 58.5986 74.6292 58.6126 74.6115C58.6633 74.5466 58.7172 74.4843 58.774 74.4248C58.8113 74.3858 58.8502 74.3483 58.8902 74.3114C58.9086 74.2945 58.9266 74.2774 58.9455 74.2609C59.0001 74.2136 59.0569 74.168 59.1163 74.1246C59.1214 74.1209 59.126 74.1168 59.1311 74.113C59.1961 74.0663 59.2643 74.0223 59.3349 73.9802C59.356 73.9677 59.3782 73.9559 59.3997 73.9438C59.4774 73.9001 59.5569 73.8595 59.6379 73.8222C59.6937 73.7966 59.7501 73.7725 59.8072 73.7499C59.8325 73.7399 59.8574 73.7294 59.8833 73.7197C60.1276 73.6288 60.3892 73.5515 60.7044 73.5276C60.9651 72.2966 61.6413 71.1927 62.6194 70.4009C63.5974 69.6092 64.818 69.1778 66.0764 69.1792C67.8483 69.1792 69.521 70.0421 70.5508 71.4874C70.6644 71.647 70.819 71.7731 70.9983 71.8524C71.1775 71.9317 71.3747 71.9612 71.5693 71.938C71.6585 71.9275 71.7479 71.9198 71.8375 71.9151C71.8621 71.9138 71.8864 71.9138 71.911 71.9129C71.9739 71.9106 72.0368 71.9091 72.0995 71.9096C72.157 71.91 72.2148 71.9129 72.2726 71.9158C72.3097 71.9177 72.3469 71.9185 72.384 71.9214C72.476 71.9285 72.5681 71.9383 72.6606 71.9517L72.6676 71.9525C74.082 72.1588 75.5182 73.0937 76.1052 74.8608H58.4388L58.4408 74.8572ZM40.9413 53.8027C40.9414 53.6562 40.9997 53.5157 41.1033 53.4121C41.2069 53.3085 41.3474 53.2502 41.4939 53.2501H52.1661V74.8608H40.9414L40.9413 53.8027ZM20.44 71.9524L20.4411 71.9522C20.5347 71.9388 20.6288 71.9285 20.7231 71.9214C20.7601 71.9186 20.7972 71.9177 20.8342 71.9158C20.8921 71.9129 20.9499 71.91 21.0074 71.9096C21.0702 71.9091 21.133 71.9106 21.1959 71.9129C21.2205 71.9138 21.2448 71.9138 21.2694 71.9151C21.576 71.9321 21.8826 71.9765 22.1832 72.0892C23.1463 70.2847 25.0248 69.1792 27.0306 69.1792C28.183 69.1778 29.3066 69.5396 30.2417 70.2131C31.1769 70.8866 31.8761 71.8376 32.24 72.9311C32.2956 73.0977 32.3905 73.2484 32.5168 73.3705C32.643 73.4926 32.7968 73.5825 32.9652 73.6325C33.0546 73.659 33.1405 73.6885 33.2243 73.7197C33.2498 73.7291 33.2743 73.7395 33.2993 73.7495C33.3839 73.7829 33.4671 73.8196 33.5488 73.8596C33.6034 73.8865 33.6564 73.9147 33.7082 73.944C33.7295 73.9561 33.7513 73.9676 33.7721 73.9799C33.8427 74.0222 33.9113 74.0661 33.9764 74.113C33.981 74.1164 33.9851 74.12 33.9898 74.1233C34.0498 74.167 34.107 74.213 34.162 74.2608C34.1809 74.2771 34.1987 74.2942 34.217 74.311C34.2768 74.3657 34.334 74.4233 34.3882 74.4835C34.4252 74.5247 34.4604 74.5673 34.4946 74.6109C34.5086 74.6288 34.5233 74.6461 34.5368 74.6643C34.5827 74.7263 34.6262 74.7901 34.6664 74.8566C34.6671 74.8579 34.6677 74.8592 34.6686 74.8604H17.0018C17.5887 73.0935 19.0254 72.1585 20.44 71.9524ZM78.528 77.0446C79.2266 77.0446 79.7191 77.9441 78.9079 78.6456H14.1996C13.3885 77.9441 13.8811 77.0446 14.5796 77.0446H78.528Z" fill="#8D00EE"/>
<path d="M57.5038 53.5619V64.8891H67.2055V53.5619H57.5038ZM59.6874 55.7455H65.022V62.7056H59.6874V55.7455ZM35.6038 53.5619H25.9021V64.8891H35.6038V53.5619ZM33.4202 62.7055H28.0856V55.7454H33.4202V62.7055ZM47.5143 21.4427C47.3889 21.3154 47.2393 21.2144 47.0743 21.1456C46.9094 21.0769 46.7324 21.0417 46.5536 21.0422C46.375 21.0417 46.1981 21.0768 46.0332 21.1455C45.8683 21.2142 45.7188 21.3152 45.5934 21.4424L34.5354 32.5908C33.8945 33.2369 34.0061 34.4048 35.1048 34.8957H58.0038C59.1015 34.404 59.2127 33.2363 58.5723 32.5908L47.5143 21.4427ZM45.462 32.7121H37.4907L39.6768 30.5081H45.462V32.7121ZM45.462 28.3243H41.843L45.462 24.6756V28.3243ZM47.6456 24.6756L51.2647 28.3243H47.6456V24.6756ZM47.6456 32.7121V30.5081H53.4307L55.6168 32.7121H47.6456ZM49.4382 62.7424C49.2996 62.7424 49.1623 62.7697 49.0342 62.8227C48.9061 62.8758 48.7897 62.9535 48.6916 63.0516C48.5936 63.1496 48.5158 63.266 48.4628 63.3941C48.4097 63.5222 48.3825 63.6595 48.3825 63.7982V65.98C48.3825 66.5632 48.855 67.0357 49.4382 67.0357C50.0214 67.0357 50.4939 66.5632 50.4939 65.98V63.7982C50.4939 63.5182 50.3827 63.2496 50.1847 63.0517C49.9867 62.8537 49.7182 62.7424 49.4382 62.7424ZM83.6876 58.3574C83.9101 58.3574 84.1235 58.2691 84.2808 58.1117C84.4382 57.9544 84.5265 57.741 84.5265 57.5185V55.4649C84.5265 55.2424 84.4382 55.029 84.2808 54.8716C84.1235 54.7143 83.9101 54.6259 83.6876 54.6259C83.4651 54.6259 83.2517 54.7143 83.0944 54.8716C82.937 55.029 82.8487 55.2424 82.8487 55.4649V57.5185C82.8487 57.741 82.937 57.9544 83.0944 58.1117C83.2517 58.2691 83.4651 58.3574 83.6876 58.3574ZM83.6876 64.6704C83.9101 64.6704 84.1235 64.5821 84.2808 64.4247C84.4382 64.2674 84.5265 64.054 84.5265 63.8315V61.7779C84.5265 61.5554 84.4382 61.342 84.2808 61.1846C84.1235 61.0273 83.9101 60.9389 83.6876 60.9389C83.4651 60.9389 83.2517 61.0273 83.0944 61.1846C82.937 61.342 82.8487 61.5554 82.8487 61.7779V63.8315C82.8486 63.9417 82.8703 64.0508 82.9125 64.1526C82.9546 64.2544 83.0164 64.3469 83.0943 64.4248C83.1722 64.5027 83.2647 64.5645 83.3665 64.6066C83.4683 64.6488 83.5774 64.6705 83.6876 64.6704ZM85.8174 60.4871H87.871C88.0935 60.4871 88.3069 60.3987 88.4642 60.2413C88.6215 60.084 88.7099 59.8706 88.7099 59.6481C88.7099 59.4256 88.6215 59.2122 88.4642 59.0549C88.3069 58.8976 88.0935 58.8092 87.871 58.8092H85.8174C85.5949 58.8092 85.3815 58.8976 85.2241 59.0549C85.0668 59.2122 84.9784 59.4256 84.9784 59.6481C84.9784 59.8706 85.0668 60.084 85.2241 60.2413C85.3815 60.3987 85.5949 60.4871 85.8174 60.4871ZM79.5042 60.4871H81.5578C81.7803 60.4871 81.9937 60.3987 82.1511 60.2413C82.3084 60.084 82.3968 59.8706 82.3968 59.6481C82.3968 59.4256 82.3084 59.2122 82.1511 59.0549C81.9937 58.8976 81.7803 58.8092 81.5578 58.8092H79.5042C79.2817 58.8092 79.0683 58.8976 78.911 59.0549C78.7537 59.2122 78.6653 59.4256 78.6653 59.6481C78.6653 59.8706 78.7537 60.084 78.911 60.2413C79.0683 60.3987 79.2817 60.4871 79.5042 60.4871Z" fill="#8D00EE"/>
<path d="M80.4533 67.465C81.1876 67.465 81.7828 66.8697 81.7828 66.1354C81.7828 65.4012 81.1876 64.8059 80.4533 64.8059C79.719 64.8059 79.1238 65.4012 79.1238 66.1354C79.1238 66.8697 79.719 67.465 80.4533 67.465Z" fill="#8D00EE"/>
<path d="M13.8694 5.46121C14.1589 5.46121 14.4366 5.34618 14.6414 5.14143C14.8462 4.93667 14.9612 4.65897 14.9612 4.3694V1.69679C14.9612 1.40723 14.8462 1.12952 14.6414 0.924765C14.4366 0.720011 14.1589 0.60498 13.8694 0.60498C13.5798 0.60498 13.3021 0.720011 13.0973 0.924765C12.8926 1.12952 12.7776 1.40723 12.7776 1.69679V4.3694C12.7776 4.65897 12.8926 4.93667 13.0973 5.14143C13.3021 5.34618 13.5798 5.46121 13.8694 5.46121ZM13.8694 13.6769C14.1589 13.6769 14.4366 13.5618 14.6414 13.3571C14.8462 13.1523 14.9612 12.8746 14.9612 12.5851V9.91245C14.9612 9.62289 14.8462 9.34518 14.6414 9.14043C14.4366 8.93567 14.1589 8.82064 13.8694 8.82064C13.5798 8.82064 13.3021 8.93567 13.0973 9.14043C12.8926 9.34518 12.7776 9.62289 12.7776 9.91245V12.5851C12.7776 12.8746 12.8926 13.1523 13.0973 13.3571C13.3021 13.5618 13.5798 13.6769 13.8694 13.6769ZM16.641 8.23281H19.3136C19.6031 8.23281 19.8809 8.11778 20.0856 7.91303C20.2904 7.70827 20.4054 7.43057 20.4054 7.141C20.4054 6.85143 20.2904 6.57373 20.0856 6.36897C19.8809 6.16422 19.6031 6.04919 19.3136 6.04919H16.641C16.3514 6.04919 16.0737 6.16422 15.8689 6.36897C15.6642 6.57373 15.5492 6.85143 15.5492 7.141C15.5492 7.43057 15.6642 7.70827 15.8689 7.91303C16.0737 8.11778 16.3514 8.23281 16.641 8.23281ZM8.42531 8.23281H11.0979C11.3875 8.23281 11.6652 8.11778 11.8699 7.91303C12.0747 7.70827 12.1897 7.43057 12.1897 7.141C12.1897 6.85143 12.0747 6.57373 11.8699 6.36897C11.6652 6.16422 11.3875 6.04919 11.0979 6.04919H8.42531C8.13574 6.04919 7.85803 6.16422 7.65328 6.36897C7.44853 6.57373 7.3335 6.85143 7.3335 7.141C7.3335 7.43057 7.44853 7.70827 7.65328 7.91303C7.85803 8.11778 8.13574 8.23281 8.42531 8.23281Z" fill="#8D00EE"/>
<path d="M3.59637 2.55114C4.25379 2.55114 4.78674 2.0182 4.78674 1.36078C4.78674 0.703355 4.25379 0.17041 3.59637 0.17041C2.93895 0.17041 2.40601 0.703355 2.40601 1.36078C2.40601 2.0182 2.93895 2.55114 3.59637 2.55114Z" fill="#8D00EE"/>
<path d="M7.24583 58.3777C7.5354 58.3777 7.81311 58.2627 8.01786 58.0579C8.22262 57.8532 8.33765 57.5755 8.33765 57.2859V54.6133C8.33765 54.3237 8.22262 54.046 8.01786 53.8413C7.81311 53.6365 7.5354 53.5215 7.24583 53.5215C6.95627 53.5215 6.67856 53.6365 6.47381 53.8413C6.26905 54.046 6.15402 54.3237 6.15402 54.6133V57.2859C6.15402 57.5755 6.26905 57.8532 6.47381 58.0579C6.67856 58.2627 6.95627 58.3777 7.24583 58.3777ZM7.24583 66.5934C7.5354 66.5934 7.81311 66.4784 8.01786 66.2736C8.22262 66.0688 8.33765 65.7911 8.33765 65.5016V62.829C8.33765 62.5394 8.22262 62.2617 8.01786 62.0569C7.81311 61.8522 7.5354 61.7371 7.24583 61.7371C6.95627 61.7371 6.67856 61.8522 6.47381 62.0569C6.26905 62.2617 6.15402 62.5394 6.15402 62.829V65.5016C6.15402 65.7911 6.26905 66.0688 6.47381 66.2736C6.67856 66.4784 6.95627 66.5934 7.24583 66.5934ZM10.0174 61.1493H12.69C12.9796 61.1493 13.2573 61.0343 13.4621 60.8295C13.6668 60.6248 13.7819 60.3471 13.7819 60.0575C13.7819 59.7679 13.6668 59.4902 13.4621 59.2855C13.2573 59.0807 12.9796 58.9657 12.69 58.9657H10.0174C9.72787 58.9657 9.45016 59.0807 9.24541 59.2855C9.04065 59.4902 8.92562 59.7679 8.92562 60.0575C8.92562 60.3471 9.04065 60.6248 9.24541 60.8295C9.45016 61.0343 9.72787 61.1493 10.0174 61.1493ZM1.80177 61.1493H4.47438C4.76395 61.1493 5.04165 61.0343 5.24641 60.8295C5.45116 60.6248 5.56619 60.3471 5.56619 60.0575C5.56619 59.7679 5.45116 59.4902 5.24641 59.2855C5.04165 59.0807 4.76395 58.9657 4.47438 58.9657H1.80177C1.51221 58.9657 1.2345 59.0807 1.02975 59.2855C0.824991 59.4902 0.709961 59.7679 0.709961 60.0575C0.709961 60.3471 0.824991 60.6248 1.02975 60.8295C1.2345 61.0343 1.51221 61.1493 1.80177 61.1493Z" fill="#8D00EE"/>
<path d="M15.8244 68.715C16.4818 68.715 17.0148 68.182 17.0148 67.5246C17.0148 66.8672 16.4818 66.3342 15.8244 66.3342C15.167 66.3342 14.634 66.8672 14.634 67.5246C14.634 68.182 15.167 68.715 15.8244 68.715Z" fill="#8D00EE"/>
</g>
<defs>
<clipPath id="clip0_5_1575">
<rect width="88" height="81" fill="white" transform="translate(0.709961)"/>
</clipPath>
</defs>
</svg>
