<svg width="82" height="84" viewBox="0 0 82 84" fill="none" xmlns="http://www.w3.org/2000/svg">
<g clip-path="url(#clip0_5_1594)">
<path d="M36.6284 40.0559H43.3261V47.0327H36.6284V40.0559Z" fill="#D6AFFF"/>
<path d="M14.8854 58.2618C26.1655 77.2128 53.6344 77.3128 64.974 58.2618C67.8059 53.3898 69.0816 48.303 69.0816 43.4386C69.0816 27.5052 56.1067 14.2866 39.9295 14.2866C17.7167 14.2866 3.33879 38.3969 14.8854 58.2618ZM62.8505 29.0206L60.3713 30.4519C60.1391 30.5897 59.9706 30.8134 59.9023 31.0746C59.834 31.3358 59.8714 31.6134 60.0064 31.8472C60.1414 32.081 60.3631 32.2522 60.6234 32.3237C60.8837 32.3952 61.1618 32.3611 61.3972 32.229L63.8777 30.797C65.7246 34.2894 66.8295 38.2313 66.982 42.4127H64.1258C63.8537 42.4127 63.5927 42.5208 63.4002 42.7132C63.2078 42.9057 63.0997 43.1667 63.0997 43.4388C63.0997 43.7109 63.2078 43.9719 63.4002 44.1643C63.5927 44.3568 63.8537 44.4649 64.1258 44.4649H66.9798C66.819 48.6425 65.7077 52.5802 63.8555 56.0676L61.3972 54.6483C61.2805 54.5809 61.1517 54.5372 61.0181 54.5196C60.8845 54.502 60.7488 54.5109 60.6186 54.5457C60.4885 54.5806 60.3665 54.6408 60.2596 54.7228C60.1527 54.8049 60.063 54.9072 59.9957 55.0239C59.9283 55.1406 59.8846 55.2694 59.867 55.403C59.8494 55.5365 59.8583 55.6723 59.8932 55.8024C59.928 55.9326 59.9882 56.0546 60.0703 56.1615C60.1523 56.2684 60.2546 56.358 60.3713 56.4254L62.8254 57.8422C60.6584 61.2663 57.756 64.1646 54.3289 66.3267L52.9163 63.88C52.7785 63.6478 52.5547 63.4793 52.2935 63.411C52.0323 63.3427 51.7548 63.3801 51.521 63.5151C51.2871 63.6501 51.116 63.8718 51.0445 64.1321C50.973 64.3925 51.007 64.6705 51.1392 64.9059L52.5527 67.3544C49.0658 69.2001 45.1303 70.306 40.9556 70.4623V67.6346C40.9556 67.3625 40.8475 67.1015 40.6551 66.9091C40.4626 66.7167 40.2017 66.6086 39.9295 66.6086C39.6574 66.6086 39.3964 66.7167 39.204 66.9091C39.0116 67.1015 38.9035 67.3625 38.9035 67.6346V70.4623C34.7288 70.306 30.7932 69.2001 27.3063 67.3544L28.7199 64.9059C28.7873 64.7892 28.831 64.6604 28.8486 64.5268C28.8662 64.3932 28.8573 64.2575 28.8224 64.1273C28.7875 63.9972 28.7273 63.8752 28.6453 63.7683C28.5633 63.6614 28.461 63.5717 28.3443 63.5044C28.2276 63.437 28.0988 63.3933 27.9652 63.3757C27.8316 63.3581 27.6959 63.367 27.5657 63.4019C27.4356 63.4368 27.3136 63.4969 27.2067 63.579C27.0998 63.661 27.0101 63.7633 26.9428 63.88L25.5302 66.3266C22.1032 64.1644 19.2007 61.2661 17.0337 57.8421L19.4878 56.4253C19.72 56.2875 19.8884 56.0637 19.9567 55.8025C20.025 55.5413 19.9876 55.2637 19.8527 55.0299C19.7177 54.7961 19.496 54.6249 19.2357 54.5535C18.9753 54.482 18.6973 54.516 18.4619 54.6481L16.0035 56.0674C14.1514 52.58 13.0398 48.6424 12.8792 44.4647H15.7333C16.0054 44.4647 16.2664 44.3566 16.4588 44.1642C16.6512 43.9718 16.7593 43.7108 16.7593 43.4386C16.7593 43.1665 16.6512 42.9055 16.4588 42.7131C16.2664 42.5207 16.0054 42.4126 15.7333 42.4126H12.8775C13.0298 38.2312 14.1349 34.2892 15.9818 30.7969L18.4623 32.2289C18.579 32.2963 18.7078 32.34 18.8414 32.3576C18.975 32.3752 19.1107 32.3663 19.2408 32.3314C19.371 32.2965 19.493 32.2364 19.5999 32.1543C19.7068 32.0723 19.7965 31.97 19.8638 31.8533C19.9312 31.7366 19.9749 31.6078 19.9925 31.4742C20.0101 31.3406 20.0012 31.2049 19.9663 31.0747C19.9314 30.9446 19.8713 30.8226 19.7892 30.7157C19.7072 30.6088 19.6049 30.5191 19.4882 30.4518L17.009 29.0204C19.1735 25.5869 22.0768 22.6795 25.5074 20.5102L26.943 22.9969C27.0104 23.1136 27.1 23.216 27.2069 23.298C27.3138 23.3801 27.4358 23.4402 27.566 23.4751C27.6961 23.51 27.8319 23.5189 27.9655 23.5013C28.0991 23.4837 28.2279 23.4399 28.3446 23.3725C28.5802 23.2365 28.7522 23.0124 28.8226 22.7495C28.893 22.4867 28.8562 22.2067 28.7202 21.971L27.2824 19.4807C30.7753 17.6273 34.7194 16.5167 38.9037 16.36V19.2424C38.9037 19.5145 39.0118 19.7755 39.2043 19.9679C39.3967 20.1604 39.6577 20.2685 39.9298 20.2685C40.2019 20.2685 40.4629 20.1604 40.6553 19.9679C40.8478 19.7755 40.9559 19.5145 40.9559 19.2424V16.36C45.1402 16.5167 49.0843 17.6272 52.5772 19.4807L51.1394 21.971C51.0494 22.1269 51.0019 22.3038 51.0019 22.4838C51.0018 22.6639 51.0491 22.8408 51.1391 22.9967C51.229 23.1527 51.3585 23.2822 51.5143 23.3724C51.6702 23.4625 51.8471 23.51 52.0271 23.5101C52.2074 23.5103 52.3845 23.4629 52.5407 23.3728C52.6968 23.2827 52.8265 23.1531 52.9166 22.9969L54.3522 20.5102C57.7826 22.6797 60.6859 25.5871 62.8505 29.0206Z" fill="#8D00EE"/>
<path d="M52.0073 39.5108C51.8144 39.3205 51.5541 39.2143 51.2832 39.2152C51.0122 39.2161 50.7527 39.3242 50.5611 39.5157C50.3695 39.7073 50.2615 39.9669 50.2606 40.2378C50.2597 40.5088 50.366 40.769 50.5563 40.9619L52.0213 42.427H44.8202V41.1887C44.8202 39.7178 43.6235 38.521 42.1526 38.521H40.9558V26.1919L42.4209 27.6571C42.6212 27.8575 42.8838 27.9577 43.1464 27.9577C43.409 27.9577 43.6716 27.8575 43.8719 27.6571C43.9672 27.5618 44.0428 27.4487 44.0943 27.3242C44.1459 27.1997 44.1724 27.0663 44.1724 26.9316C44.1724 26.7968 44.1459 26.6634 44.0943 26.5389C44.0428 26.4145 43.9672 26.3014 43.8719 26.2061L40.6693 23.0035C40.5741 22.9082 40.461 22.8326 40.3365 22.781C40.212 22.7294 40.0786 22.7028 39.9438 22.7028C39.8091 22.7028 39.6757 22.7294 39.5512 22.781C39.4267 22.8326 39.3136 22.9082 39.2183 23.0035L36.0158 26.2061C35.9205 26.3014 35.8449 26.4145 35.7934 26.5389C35.7418 26.6634 35.7152 26.7968 35.7152 26.9316C35.7152 27.0663 35.7418 27.1997 35.7934 27.3242C35.8449 27.4487 35.9205 27.5618 36.0158 27.6571C36.1111 27.7524 36.2242 27.8279 36.3486 27.8795C36.4731 27.9311 36.6065 27.9576 36.7413 27.9576C36.876 27.9576 37.0094 27.9311 37.1339 27.8795C37.2584 27.8279 37.3715 27.7524 37.4668 27.6571L38.9037 26.2202V38.5212H37.707C36.236 38.5212 35.0393 39.7179 35.0393 41.1888V45.6343C35.0393 47.1052 36.236 48.302 37.707 48.302H42.1524C43.6234 48.302 44.8201 47.1052 44.8201 45.6343V44.4791H51.9932L50.5564 45.9159C50.4611 46.0112 50.3856 46.1243 50.334 46.2487C50.2824 46.3732 50.2559 46.5066 50.2559 46.6414C50.2559 46.7761 50.2824 46.9095 50.334 47.034C50.3856 47.1585 50.4611 47.2716 50.5564 47.3669C50.6516 47.4623 50.7646 47.538 50.8891 47.5896C51.0137 47.6412 51.1471 47.6677 51.2819 47.6675C51.4167 47.6676 51.5501 47.6412 51.6746 47.5896C51.7991 47.5381 51.9122 47.4624 52.0074 47.367L55.21 44.1646C55.3053 44.0693 55.3809 43.9562 55.4325 43.8317C55.4841 43.7072 55.5107 43.5737 55.5107 43.439C55.5107 43.3042 55.4841 43.1707 55.4325 43.0462C55.3809 42.9217 55.3053 42.8086 55.21 42.7133L52.0073 39.5108ZM42.7679 45.6342C42.7679 45.9678 42.4859 46.2498 42.1523 46.2498H37.7068C37.3732 46.2498 37.0912 45.9678 37.0912 45.6342V41.1887C37.0912 40.8551 37.3732 40.5731 37.7068 40.5731H42.1523C42.4859 40.5731 42.7679 40.8551 42.7679 41.1887V45.6342ZM42.2522 10.5271C58.5366 11.6656 71.6754 24.8044 72.8141 41.089L74.8612 40.9458C73.6471 23.5828 59.7244 9.69146 42.3952 8.47998L42.2522 10.5271Z" fill="#8D00EE"/>
<path d="M72.8142 45.7338C71.6127 62.9179 57.168 76.3788 39.9298 76.3788C21.7516 76.3788 6.96242 61.5898 6.96242 43.4114C6.96242 26.1731 20.4233 11.7285 37.6072 10.527L37.4642 8.47989C19.2358 9.75449 4.9104 24.9824 4.9104 43.4114C4.9104 62.7212 20.62 78.4308 39.9298 78.4308C58.3532 78.4308 73.5862 64.1104 74.8613 45.877L72.8142 45.7338ZM11.3293 5.09903C11.6011 5.09903 11.8617 4.99107 12.0539 4.7989C12.2461 4.60673 12.354 4.34609 12.354 4.07432V1.56597C12.354 1.2942 12.2461 1.03356 12.0539 0.84139C11.8617 0.64922 11.6011 0.54126 11.3293 0.54126C11.0575 0.54126 10.7969 0.64922 10.6047 0.84139C10.4126 1.03356 10.3046 1.2942 10.3046 1.56597V4.07432C10.3046 4.34609 10.4126 4.60673 10.6047 4.7989C10.7969 4.99107 11.0575 5.09903 11.3293 5.09903ZM11.3293 12.8098C11.6011 12.8098 11.8617 12.7018 12.0539 12.5096C12.2461 12.3175 12.354 12.0568 12.354 11.7851V9.2767C12.354 9.00493 12.2461 8.74429 12.0539 8.55212C11.8617 8.35995 11.6011 8.25199 11.3293 8.25199C11.0575 8.25199 10.7969 8.35995 10.6047 8.55212C10.4126 8.74429 10.3046 9.00493 10.3046 9.2767V11.7851C10.3046 12.0568 10.4126 12.3175 10.6047 12.5096C10.7969 12.7018 11.0575 12.8098 11.3293 12.8098ZM13.9306 7.70029H16.4389C16.7107 7.70029 16.9713 7.59233 17.1635 7.40016C17.3557 7.20799 17.4636 6.94735 17.4636 6.67558C17.4636 6.40381 17.3557 6.14317 17.1635 5.951C16.9713 5.75883 16.7107 5.65087 16.4389 5.65087H13.9306C13.6588 5.65087 13.3982 5.75883 13.206 5.951C13.0138 6.14317 12.9059 6.40381 12.9059 6.67558C12.9059 6.94735 13.0138 7.20799 13.206 7.40016C13.3982 7.59233 13.6588 7.70029 13.9306 7.70029ZM6.21984 7.70029H8.72819C8.99996 7.70029 9.2606 7.59233 9.45277 7.40016C9.64494 7.20799 9.7529 6.94735 9.7529 6.67558C9.7529 6.40381 9.64494 6.14317 9.45277 5.951C9.2606 5.75883 8.99996 5.65087 8.72819 5.65087H6.21984C5.94807 5.65087 5.68743 5.75883 5.49526 5.951C5.30309 6.14317 5.19513 6.40381 5.19513 6.67558C5.19513 6.94735 5.30309 7.20799 5.49526 7.40016C5.68743 7.59233 5.94807 7.70029 6.21984 7.70029Z" fill="#8D00EE"/>
<path d="M1.68752 2.36796C2.30454 2.36796 2.80473 1.86777 2.80473 1.25075C2.80473 0.633736 2.30454 0.133545 1.68752 0.133545C1.0705 0.133545 0.570312 0.633736 0.570312 1.25075C0.570312 1.86777 1.0705 2.36796 1.68752 2.36796Z" fill="#8D00EE"/>
<path d="M8.66495 74.1645C8.93672 74.1645 9.19735 74.0565 9.38952 73.8643C9.5817 73.6722 9.68966 73.4115 9.68966 73.1398V70.6314C9.68966 70.3596 9.5817 70.099 9.38952 69.9068C9.19735 69.7147 8.93672 69.6067 8.66495 69.6067C8.39318 69.6067 8.13254 69.7147 7.94037 69.9068C7.7482 70.099 7.64024 70.3596 7.64024 70.6314V73.1398C7.64024 73.4115 7.7482 73.6722 7.94037 73.8643C8.13254 74.0565 8.39318 74.1645 8.66495 74.1645ZM8.66495 81.8752C8.93672 81.8752 9.19735 81.7672 9.38952 81.5751C9.5817 81.3829 9.68966 81.1223 9.68966 80.8505V78.3421C9.68966 78.0704 9.5817 77.8097 9.38952 77.6176C9.19735 77.4254 8.93672 77.3174 8.66495 77.3174C8.39318 77.3174 8.13254 77.4254 7.94037 77.6176C7.7482 77.8097 7.64024 78.0704 7.64024 78.3421V80.8505C7.64024 81.1223 7.7482 81.3829 7.94037 81.5751C8.13254 81.7672 8.39318 81.8752 8.66495 81.8752ZM11.2662 76.7657H13.7746C14.0463 76.7657 14.307 76.6578 14.4991 76.4656C14.6913 76.2734 14.7993 76.0128 14.7993 75.741C14.7993 75.4692 14.6913 75.2086 14.4991 75.0164C14.307 74.8243 14.0463 74.7163 13.7746 74.7163H11.2662C10.9944 74.7163 10.7338 74.8243 10.5416 75.0164C10.3495 75.2086 10.2415 75.4692 10.2415 75.741C10.2415 76.0128 10.3495 76.2734 10.5416 76.4656C10.7338 76.6578 10.9944 76.7657 11.2662 76.7657ZM3.55547 76.7657H6.06382C6.33559 76.7657 6.59623 76.6578 6.7884 76.4656C6.98057 76.2734 7.08853 76.0128 7.08853 75.741C7.08853 75.4692 6.98057 75.2086 6.7884 75.0164C6.59623 74.8243 6.33559 74.7163 6.06382 74.7163H3.55547C3.2837 74.7163 3.02306 74.8243 2.83089 75.0164C2.63872 75.2086 2.53076 75.4692 2.53076 75.741C2.53076 76.0128 2.63872 76.2734 2.83089 76.4656C3.02306 76.6578 3.2837 76.7657 3.55547 76.7657Z" fill="#8D00EE"/>
<path d="M16.7163 83.8665C17.3333 83.8665 17.8335 83.3663 17.8335 82.7493C17.8335 82.1323 17.3333 81.6321 16.7163 81.6321C16.0993 81.6321 15.5991 82.1323 15.5991 82.7493C15.5991 83.3663 16.0993 83.8665 16.7163 83.8665Z" fill="#8D00EE"/>
<path d="M76.8565 61.9856C76.9599 61.9856 77.0623 61.9652 77.1578 61.9256C77.2533 61.8861 77.3401 61.8281 77.4133 61.755C77.4864 61.6818 77.5444 61.595 77.5839 61.4995C77.6235 61.404 77.6439 61.3016 77.6439 61.1982V59.2708C77.6439 59.062 77.5609 58.8617 77.4133 58.714C77.2656 58.5664 77.0653 58.4834 76.8565 58.4834C76.6477 58.4834 76.4474 58.5664 76.2997 58.714C76.1521 58.8617 76.0691 59.062 76.0691 59.2708V61.1982C76.0691 61.3016 76.0895 61.404 76.129 61.4995C76.1686 61.595 76.2266 61.6818 76.2997 61.755C76.3728 61.8281 76.4596 61.8861 76.5552 61.9256C76.6507 61.9652 76.7531 61.9856 76.8565 61.9856ZM76.8565 67.9106C77.0653 67.9106 77.2656 67.8276 77.4133 67.68C77.5609 67.5323 77.6439 67.332 77.6439 67.1232V65.1958C77.6439 64.987 77.5609 64.7867 77.4133 64.639C77.2656 64.4914 77.0653 64.4084 76.8565 64.4084C76.6477 64.4084 76.4474 64.4914 76.2997 64.639C76.1521 64.7867 76.0691 64.987 76.0691 65.1958V67.1232C76.0691 67.2266 76.0894 67.329 76.129 67.4245C76.1686 67.5201 76.2266 67.6069 76.2997 67.68C76.3728 67.7531 76.4596 67.8111 76.5551 67.8507C76.6507 67.8903 76.7531 67.9106 76.8565 67.9106ZM78.8553 63.9843H80.7828C80.9916 63.9843 81.1919 63.9014 81.3395 63.7537C81.4872 63.606 81.5701 63.4058 81.5701 63.1969C81.5701 62.9881 81.4872 62.7878 81.3395 62.6402C81.1919 62.4925 80.9916 62.4095 80.7828 62.4095H78.8553C78.6465 62.4095 78.4462 62.4925 78.2986 62.6402C78.1509 62.7878 78.068 62.9881 78.068 63.1969C78.068 63.4058 78.1509 63.606 78.2986 63.7537C78.4462 63.9014 78.6465 63.9843 78.8553 63.9843ZM72.9302 63.9843H74.8576C75.0664 63.9843 75.2667 63.9014 75.4144 63.7537C75.562 63.606 75.645 63.4058 75.645 63.1969C75.645 62.9881 75.562 62.7878 75.4144 62.6402C75.2667 62.4925 75.0664 62.4095 74.8576 62.4095H72.9302C72.7214 62.4095 72.5211 62.4925 72.3734 62.6402C72.2258 62.7878 72.1428 62.9881 72.1428 63.1969C72.1428 63.4058 72.2258 63.606 72.3734 63.7537C72.5211 63.9014 72.7214 63.9843 72.9302 63.9843Z" fill="#8D00EE"/>
<path d="M73.8211 70.5332C74.5102 70.5332 75.0689 69.9746 75.0689 69.2854C75.0689 68.5963 74.5102 68.0376 73.8211 68.0376C73.1319 68.0376 72.5732 68.5963 72.5732 69.2854C72.5732 69.9746 73.1319 70.5332 73.8211 70.5332Z" fill="#8D00EE"/>
</g>
<defs>
<clipPath id="clip0_5_1594">
<rect width="81" height="84" fill="white" transform="translate(0.570068)"/>
</clipPath>
</defs>
</svg>
