<svg width="78" height="76" viewBox="0 0 78 76" fill="none" xmlns="http://www.w3.org/2000/svg">
<g clip-path="url(#clip0_5_1610)">
<path d="M32.5674 29.7537H63.1702V49.7581H32.5674V29.7537Z" fill="#D6AFFF"/>
<path d="M33.6382 65.6667H46.0913V67.7423H33.6382V65.6667Z" fill="#8D00EE"/>
<path d="M62.6954 28.3076H58.5444V12.7412C58.5444 9.88011 56.2167 7.55241 53.3556 7.55241H51.9936V9.62793H53.3556C55.0721 9.62793 56.4689 11.0248 56.4689 12.7412V15.8545H23.2606V12.7412C23.2606 11.0248 24.6574 9.62793 26.3739 9.62793L48.0047 9.62819V7.54956L26.3739 7.55241C23.5128 7.55241 21.1851 9.88011 21.1851 12.7412V17.93H4.58097V29.3453H0.429932V60.4781H21.1851V66.7047C21.1851 69.5658 23.5128 71.8934 26.3739 71.8934H53.3556C56.2167 71.8934 58.5444 69.5658 58.5444 66.7047V51.1383H62.6954C63.8401 51.1383 64.771 50.2074 64.771 49.0628V30.3831C64.771 29.2385 63.8401 28.3076 62.6954 28.3076ZM21.1851 44.0649C20.8592 43.9487 20.5126 43.874 20.1473 43.874H18.0718C17.499 43.874 17.0341 43.408 17.0341 42.8362C17.0341 42.2644 17.499 41.7984 18.0718 41.7984H20.1473C20.7202 41.7984 21.1851 42.2644 21.1851 42.8362V44.0649ZM21.1851 39.9139C20.8592 39.7976 20.5126 39.7229 20.1473 39.7229V37.6474H18.0718V39.7229C16.3554 39.7229 14.9586 41.1198 14.9586 42.8362C14.9586 44.5527 16.3554 45.9495 18.0718 45.9495H20.1473C20.7202 45.9495 21.1851 46.4154 21.1851 46.9872C21.1851 47.559 20.7202 48.025 20.1473 48.025H18.0718C17.499 48.025 17.0341 47.559 17.0341 46.9872H14.9586C14.9586 48.7037 16.3554 50.1005 18.0718 50.1005V52.176H20.1473V50.1005C20.5126 50.1005 20.8592 50.0258 21.1851 49.9096V53.9931C20.5054 54.1467 19.8142 54.2516 19.1096 54.2516C13.9592 54.2516 9.76976 50.0611 9.76976 44.9117C9.76976 39.7624 13.9592 35.5719 19.1096 35.5719C19.8142 35.5719 20.5054 35.6767 21.1851 35.8313V39.9139ZM21.1851 33.6925C20.5033 33.5669 19.8101 33.4964 19.1096 33.4964C12.8156 33.4964 7.69424 38.6177 7.69424 44.9117C7.69424 51.2057 12.8156 56.3271 19.1096 56.3271C19.8101 56.3271 20.5033 56.2565 21.1851 56.1309V58.4026H2.50545V31.4209H21.1851V33.6925ZM21.1851 29.3453H6.65648V20.0055H21.1851V29.3453ZM62.6954 30.3831V32.4586H33.6382V30.3831H62.6954ZM62.6954 34.5341V36.6097H33.6382V34.5341H62.6954ZM56.4689 66.7047C56.4689 68.4211 55.0721 69.8179 53.3556 69.8179H26.3739C24.6574 69.8179 23.2606 68.4211 23.2606 66.7047V63.5914H56.4689V66.7047ZM56.4689 61.5159H23.2606V17.93H56.4689V28.3076H33.6382C32.4936 28.3076 31.5627 29.2385 31.5627 30.3831V49.0628C31.5627 50.2074 32.4936 51.1383 33.6382 51.1383H56.4689V61.5159ZM33.6382 49.0628V38.6852H62.6954L62.6965 49.0628H33.6382Z" fill="#8D00EE"/>
<path d="M35.7136 44.9116H40.9024V46.9871H35.7136V44.9116ZM58.5443 44.9116H60.6198V46.9871H58.5443V44.9116ZM54.3933 44.9116H56.4688V46.9871H54.3933V44.9116Z" fill="#8D00EE"/>
<path d="M14.0506 29.3646L11.5032 29.3452C13.333 24.4407 18.3293 23.1821 21.1935 23.1821L21.1825 25.2687C18.7875 25.2687 15.5079 26.6929 14.0506 29.3646Z" fill="white"/>
<path d="M10.7403 4.99285C10.9983 4.99285 11.2458 4.89035 11.4282 4.7079C11.6107 4.52544 11.7132 4.27798 11.7132 4.01995V1.63843C11.7132 1.3804 11.6107 1.13294 11.4282 0.950482C11.2458 0.768028 10.9983 0.665527 10.7403 0.665527C10.4823 0.665527 10.2348 0.768028 10.0523 0.950482C9.86989 1.13294 9.76739 1.3804 9.76739 1.63843V4.01995C9.76739 4.27798 9.86989 4.52544 10.0523 4.7079C10.2348 4.89035 10.4823 4.99285 10.7403 4.99285ZM10.7403 12.3137C10.9983 12.3137 11.2458 12.2112 11.4282 12.0288C11.6107 11.8463 11.7132 11.5988 11.7132 11.3408V8.95929C11.7132 8.70126 11.6107 8.4538 11.4282 8.27135C11.2458 8.0889 10.9983 7.98639 10.7403 7.98639C10.4823 7.98639 10.2348 8.0889 10.0523 8.27135C9.86989 8.4538 9.76739 8.70126 9.76739 8.95929V11.3408C9.76739 11.5988 9.86989 11.8463 10.0523 12.0288C10.2348 12.2112 10.4823 12.3137 10.7403 12.3137ZM13.21 7.46259H15.5916C15.8496 7.46259 16.097 7.36008 16.2795 7.17763C16.462 6.99518 16.5645 6.74772 16.5645 6.48969C16.5645 6.23166 16.462 5.9842 16.2795 5.80174C16.097 5.61929 15.8496 5.51679 15.5916 5.51679H13.21C12.952 5.51679 12.7045 5.61929 12.5221 5.80174C12.3396 5.9842 12.2371 6.23166 12.2371 6.48969C12.2371 6.74772 12.3396 6.99518 12.5221 7.17763C12.7045 7.36008 12.952 7.46259 13.21 7.46259ZM5.88916 7.46259H8.27068C8.52871 7.46259 8.77617 7.36008 8.95863 7.17763C9.14108 6.99518 9.24358 6.74772 9.24358 6.48969C9.24358 6.23166 9.14108 5.9842 8.95863 5.80174C8.77617 5.61929 8.52871 5.51679 8.27068 5.51679H5.88916C5.63113 5.51679 5.38367 5.61929 5.20122 5.80174C5.01876 5.9842 4.91626 6.23166 4.91626 6.48969C4.91626 6.74772 5.01876 6.99518 5.20122 7.17763C5.38367 7.36008 5.63113 7.46259 5.88916 7.46259Z" fill="#8D00EE"/>
<path d="M1.58587 2.39976C2.17168 2.39976 2.64658 1.92486 2.64658 1.33904C2.64658 0.75322 2.17168 0.27832 1.58587 0.27832C1.00005 0.27832 0.525146 0.75322 0.525146 1.33904C0.525146 1.92486 1.00005 2.39976 1.58587 2.39976Z" fill="#8D00EE"/>
<path d="M68.7249 61.8105C68.9829 61.8105 69.2304 61.708 69.4129 61.5255C69.5953 61.3431 69.6978 61.0956 69.6978 60.8376V58.4561C69.6978 58.198 69.5953 57.9506 69.4129 57.7681C69.2304 57.5857 68.9829 57.4832 68.7249 57.4832C68.4669 57.4832 68.2194 57.5857 68.037 57.7681C67.8545 57.9506 67.752 58.198 67.752 58.4561V60.8376C67.752 61.0956 67.8545 61.3431 68.037 61.5255C68.2194 61.708 68.4669 61.8105 68.7249 61.8105ZM68.7249 69.1313C68.9829 69.1313 69.2304 69.0288 69.4129 68.8464C69.5953 68.6639 69.6978 68.4165 69.6978 68.1584V65.7769C69.6978 65.5189 69.5953 65.2714 69.4129 65.089C69.2304 64.9065 68.9829 64.804 68.7249 64.804C68.4669 64.804 68.2194 64.9065 68.037 65.089C67.8545 65.2714 67.752 65.5189 67.752 65.7769V68.1584C67.752 68.4165 67.8545 68.6639 68.037 68.8464C68.2194 69.0288 68.4669 69.1313 68.7249 69.1313ZM71.1946 64.2802H73.5762C73.8342 64.2802 74.0817 64.1777 74.2641 63.9953C74.4466 63.8128 74.5491 63.5653 74.5491 63.3073C74.5491 63.0493 74.4466 62.8018 74.2641 62.6194C74.0817 62.4369 73.8342 62.3344 73.5762 62.3344H71.1946C70.9366 62.3344 70.6892 62.4369 70.5067 62.6194C70.3242 62.8018 70.2217 63.0493 70.2217 63.3073C70.2217 63.5653 70.3242 63.8128 70.5067 63.9953C70.6892 64.1777 70.9366 64.2802 71.1946 64.2802ZM63.8738 64.2802H66.2553C66.5133 64.2802 66.7608 64.1777 66.9432 63.9953C67.1257 63.8128 67.2282 63.5653 67.2282 63.3073C67.2282 63.0493 67.1257 62.8018 66.9432 62.6194C66.7608 62.4369 66.5133 62.3344 66.2553 62.3344H63.8738C63.6157 62.3344 63.3683 62.4369 63.1858 62.6194C63.0034 62.8018 62.9009 63.0493 62.9009 63.3073C62.9009 63.5653 63.0034 63.8128 63.1858 63.9953C63.3683 64.1777 63.6157 64.2802 63.8738 64.2802Z" fill="#8D00EE"/>
<path d="M76.3691 71.0221C76.9549 71.0221 77.4298 70.5472 77.4298 69.9614C77.4298 69.3755 76.9549 68.9006 76.3691 68.9006C75.7832 68.9006 75.3083 69.3755 75.3083 69.9614C75.3083 70.5472 75.7832 71.0221 76.3691 71.0221Z" fill="#8D00EE"/>
<path d="M11.0628 67.6061C11.261 67.6061 11.4512 67.5274 11.5914 67.3872C11.7316 67.247 11.8103 67.0568 11.8103 66.8585V65.0286C11.8103 64.8303 11.7316 64.6402 11.5914 64.5C11.4512 64.3598 11.261 64.281 11.0628 64.281C10.8645 64.281 10.6743 64.3598 10.5341 64.5C10.3939 64.6402 10.3152 64.8303 10.3152 65.0286V66.8585C10.3152 67.0568 10.3939 67.247 10.5341 67.3872C10.6743 67.5274 10.8645 67.6061 11.0628 67.6061ZM11.0628 73.2315C11.261 73.2315 11.4512 73.1528 11.5914 73.0126C11.7316 72.8724 11.8103 72.6822 11.8103 72.484V70.654C11.8103 70.4557 11.7316 70.2656 11.5914 70.1254C11.4512 69.9852 11.261 69.9064 11.0628 69.9064C10.8645 69.9064 10.6743 69.9852 10.5341 70.1254C10.3939 70.2656 10.3152 70.4557 10.3152 70.654V72.484C10.3152 72.6822 10.3939 72.8724 10.5341 73.0126C10.6743 73.1528 10.8645 73.2315 11.0628 73.2315ZM12.9606 69.5039H14.7905C14.8887 69.5039 14.9859 69.4846 15.0766 69.447C15.1673 69.4094 15.2497 69.3544 15.3191 69.285C15.3886 69.2155 15.4436 69.1331 15.4812 69.0424C15.5188 68.9517 15.5381 68.8545 15.5381 68.7563C15.5381 68.6582 15.5188 68.561 15.4812 68.4703C15.4436 68.3796 15.3886 68.2971 15.3191 68.2277C15.2497 68.1583 15.1673 68.1032 15.0766 68.0657C14.9859 68.0281 14.8887 68.0088 14.7905 68.0088H12.9606C12.8624 68.0088 12.7652 68.0281 12.6745 68.0657C12.5838 68.1032 12.5014 68.1583 12.4319 68.2277C12.3625 68.2971 12.3075 68.3796 12.2699 68.4703C12.2323 68.561 12.213 68.6582 12.213 68.7563C12.213 68.8545 12.2323 68.9517 12.2699 69.0424C12.3075 69.1331 12.3625 69.2155 12.4319 69.285C12.5014 69.3544 12.5838 69.4094 12.6745 69.447C12.7652 69.4846 12.8624 69.5039 12.9606 69.5039Z" fill="#8D00EE"/>
<path d="M21.1947 33.691C20.5129 33.5654 19.8197 33.4949 19.1192 33.4949C12.8252 33.4949 7.70386 38.6162 7.70386 44.9102C7.70386 51.2042 12.8252 56.3256 19.1192 56.3256C19.8197 56.3256 20.5129 56.255 21.1947 56.1294V53.9916C20.515 54.1452 19.8238 54.25 19.1192 54.25C13.9688 54.25 9.77937 50.0596 9.77937 44.9102C9.77937 39.7609 13.9688 35.5704 19.1192 35.5704C19.8238 35.5704 20.515 35.6752 21.1947 35.8298V33.691Z" fill="white"/>
<path d="M21.1948 39.8287V39.9125C20.869 39.7962 20.5223 39.7215 20.1571 39.7215V37.646H18.0815V39.7215C16.3651 39.7215 14.9683 41.1183 14.9683 42.8348C14.9683 44.5512 16.3651 45.9481 18.0815 45.9481H20.1571C20.7299 45.9481 21.1948 46.414 21.1948 46.9858C21.1948 47.5576 20.7299 48.0236 20.1571 48.0236H18.0815C17.5087 48.0236 17.0438 47.5576 17.0438 46.9858H14.9683C14.9683 48.7023 16.3651 50.0991 18.0815 50.0991V52.1746H20.1571V50.0991C20.5223 50.0991 20.869 50.0244 21.1948 49.9082C21.1948 49.908 21.1973 39.8292 21.1948 39.8287ZM21.1948 44.0634C20.869 43.9471 20.5223 43.8724 20.1571 43.8724H18.0815C17.5087 43.8724 17.0438 43.4065 17.0438 42.8347C17.0438 42.2629 17.5087 41.7969 18.0815 41.7969H20.1571C20.7299 41.7969 21.1948 42.2629 21.1948 42.8347V44.0634Z" fill="white"/>
<path d="M7.33522 69.5039H9.16518C9.26335 69.5039 9.36056 69.4846 9.45126 69.447C9.54196 69.4095 9.62438 69.3544 9.69379 69.285C9.76321 69.2156 9.81828 69.1332 9.85585 69.0425C9.89342 68.9518 9.91276 68.8545 9.91276 68.7564C9.91276 68.6582 9.89342 68.561 9.85585 68.4703C9.81828 68.3796 9.76321 68.2972 9.69379 68.2278C9.62438 68.1583 9.54196 68.1033 9.45126 68.0657C9.36056 68.0281 9.26335 68.0088 9.16518 68.0088H7.33522C7.23705 68.0088 7.13984 68.0281 7.04914 68.0657C6.95844 68.1033 6.87603 68.1583 6.80661 68.2278C6.73719 68.2972 6.68212 68.3796 6.64455 68.4703C6.60698 68.561 6.58765 68.6582 6.58765 68.7564C6.58765 68.8545 6.60698 68.9518 6.64455 69.0425C6.68212 69.1332 6.73719 69.2156 6.80661 69.285C6.87603 69.3544 6.95844 69.4095 7.04914 69.447C7.13984 69.4846 7.23705 69.5039 7.33522 69.5039Z" fill="#8D00EE"/>
<path d="M8.18082 75.7215C8.83513 75.7215 9.36556 75.1911 9.36556 74.5368C9.36556 73.8825 8.83513 73.3521 8.18082 73.3521C7.52652 73.3521 6.99609 73.8825 6.99609 74.5368C6.99609 75.1911 7.52652 75.7215 8.18082 75.7215Z" fill="#8D00EE"/>
<path d="M6.34458 19.8364H21.185V29.8062H6.34458V19.8364ZM2.3291 31.2414H21.185V58.4025H2.3291V31.2414Z" fill="#F2E8FF"/>
</g>
<defs>
<clipPath id="clip0_5_1610">
<rect width="77" height="76" fill="white" transform="translate(0.429932)"/>
</clipPath>
</defs>
</svg>
