<svg width="82" height="71" viewBox="0 0 82 71" fill="none" xmlns="http://www.w3.org/2000/svg">
<g clip-path="url(#clip0_5_1632)">
<path d="M34.8646 39.0226C35.4004 39.6302 36.1201 39.9156 36.4251 40.706C36.7231 41.4783 37.0478 42.114 37.5581 42.7709C38.6991 44.2396 39.1219 46.0958 40.13 47.6639L40.8798 46.3572C41.0906 46.3668 40.9215 46.3107 40.834 46.1709C40.7087 45.9708 40.5436 45.7825 40.4018 45.5926C40.1424 45.2455 39.8828 44.8988 39.6237 44.5515C39.4181 44.2757 39.1749 43.9989 39.0516 43.6753C38.9208 43.3317 38.9285 42.9442 38.8662 42.585C38.6296 41.2231 37.6767 40.0497 37.6016 38.6578L35.9834 39.0961C36.9781 40.4136 38.1785 41.8074 38.6171 43.4264C39.0678 45.0896 39.6946 46.6317 40.4244 48.1917L40.9434 46.916C40.7987 46.961 40.3715 46.9837 40.378 47.1763C40.3402 46.0617 38.6032 46.0566 38.6413 47.1763C38.6928 48.6951 40.2063 48.963 41.4052 48.5908C41.9772 48.4131 42.1651 47.8299 41.9242 47.3151C41.552 46.5196 41.1761 45.7244 40.8709 44.9001C40.5799 44.1139 40.4221 43.2951 40.1573 42.5026C39.628 40.9175 38.4773 39.5367 37.4833 38.2198C37.0157 37.6004 35.8136 37.7059 35.8651 38.6581C35.9162 39.6019 36.2318 40.4294 36.6002 41.2893C36.7689 41.6833 36.9403 42.0751 37.061 42.4872C37.1978 42.9553 37.2089 43.433 37.3132 43.9062C37.5209 44.8479 38.2549 45.6025 38.8162 46.3537C39.3763 47.1032 39.8441 48.047 40.8804 48.0942C41.5265 48.1237 41.9789 47.33 41.6302 46.7875C41.0914 45.9499 40.6413 45.0583 40.2874 44.1273C39.9398 43.2167 39.5193 42.4929 38.9266 41.7227C38.3898 41.025 38.1974 40.2809 37.7977 39.5176C37.4003 38.7586 36.6398 38.4146 36.0931 37.7947C35.3521 36.9545 34.1277 38.1868 34.8646 39.0226ZM46.5559 48.4243C47.2286 47.8648 47.4006 47.0587 47.6617 46.2659C47.9629 45.3516 48.5929 44.6087 49.0693 43.7847C49.5697 42.9192 49.7217 41.9719 50.097 41.062C50.2825 40.6122 50.5638 40.225 50.8799 39.8585C50.9435 39.7846 51.2909 39.3812 51.2215 39.4105C51.1287 39.4496 51.6377 39.5044 51.6083 39.4821L51.2092 38.9631C51.1706 38.7574 51.0879 39.1186 51.0104 39.2468C50.9118 39.4099 50.7867 39.558 50.6761 39.7127C50.4293 40.0574 50.2148 40.4241 50.0356 40.8082C49.6903 41.5476 49.446 42.3252 49.2073 43.1037C48.9665 43.8894 48.7318 44.6823 48.3363 45.4069C47.857 46.2853 47.2134 47.0826 46.6324 47.8945H48.1321C47.8707 47.335 48.6893 46.4657 48.9252 45.9927C49.2736 45.2938 49.4518 44.57 49.5481 43.7987C49.6862 42.6924 47.9482 42.7025 47.8114 43.7987C47.5866 45.5987 45.7464 46.8748 46.6326 48.7712C46.9341 49.4165 47.7908 49.2482 48.1323 48.7712C48.8498 47.7686 49.6425 46.7903 50.1421 45.6549C50.5518 44.7238 50.8115 43.7451 51.1268 42.7808C51.2963 42.2627 51.4816 41.7518 51.7422 41.2718C51.9996 40.798 52.3711 40.4009 52.6278 39.9298C53.095 39.0724 53.0628 38.0453 51.9815 37.7902C51.5077 37.6783 50.9808 37.5954 50.5267 37.811C50.0834 38.0215 49.7243 38.5312 49.4241 38.9011C48.7019 39.7909 48.3801 40.7235 48.048 41.8054C47.7307 42.8387 47.0448 43.641 46.5249 44.5709C46.2707 45.0259 46.0777 45.5039 45.9278 46.0025C45.7922 46.4533 45.7057 46.8818 45.3279 47.196C44.4678 47.9117 45.7021 49.1346 46.5559 48.4243Z" fill="#663399"/>
<path d="M50.9742 20.7064L40.6206 15.2688C40.4607 16.4762 30.8628 20.9294 30.8628 17.0564L31.5704 14.4231C31.5704 10.5501 37.1945 6.77734 41.0674 6.77734L47.9201 7.55949C51.7931 7.55949 56.3371 12.2152 56.3371 16.0882L56.8212 14.4231C56.8214 18.296 56.3744 21.7492 50.9742 20.7064Z" fill="#D6AFFF"/>
<path d="M39.1339 25.4889C39.7781 25.4889 40.3009 26.0129 40.3009 26.6559H42.6348C42.6348 24.7257 41.0641 23.155 39.1339 23.155C37.2038 23.155 35.6331 24.7257 35.6331 26.6559H37.967C37.967 26.0129 38.4898 25.4889 39.1339 25.4889ZM48.4695 25.4889C49.1137 25.4889 49.6365 26.0129 49.6365 26.6559H51.9704C51.9704 24.7257 50.3997 23.155 48.4695 23.155C46.5394 23.155 44.9687 24.7257 44.9687 26.6559H47.3026C47.3026 26.0129 47.8254 25.4889 48.4695 25.4889ZM43.8017 54.6627C41.2274 54.6627 39.1339 56.7563 39.1339 59.3305C39.1339 61.9048 41.2274 63.9984 43.8017 63.9984C46.376 63.9984 48.4695 61.9048 48.4695 59.3305C48.4695 56.7563 46.376 54.6627 43.8017 54.6627ZM43.8017 61.6645C42.5146 61.6645 41.4678 60.6177 41.4678 59.3305C41.4678 58.0434 42.5146 56.9966 43.8017 56.9966C45.0889 56.9966 46.1356 58.0434 46.1356 59.3305C46.1356 60.6177 45.0889 61.6645 43.8017 61.6645Z" fill="#8D00EE"/>
<path d="M71.8086 68.666V53.4956C71.8086 43.8437 63.9562 35.9913 54.3044 35.9913H53.0335C53.4482 35.6258 53.841 35.2362 54.2098 34.8244H55.4713C58.6886 34.8244 61.3061 32.2069 61.3061 28.9896V26.9334C62.7122 25.9905 63.64 24.3871 63.64 22.5714C63.64 20.7486 62.7052 19.1429 61.2921 18.2011C61.1369 8.6823 53.358 0.98275 43.8018 0.98275C34.2456 0.98275 26.4667 8.6823 26.3115 18.2011C24.8983 19.1429 23.9636 20.7486 23.9636 22.5714C23.9636 25.4666 26.3197 27.8227 29.2149 27.8227H30.0096C30.5557 31.0563 32.2081 33.9118 34.5712 35.9913H33.2992C27.7175 35.9913 22.7379 38.6174 19.5303 42.6988L21.4608 44.0307C24.1065 40.7375 28.0993 38.569 32.5954 38.3614L37.2458 47.6608H27.4644C24.2472 47.6608 21.6297 50.2783 21.6297 53.4956V68.666H18.1288V53.4956C18.1288 51.3658 18.571 49.3388 19.3673 47.4998L17.3929 46.1931C16.3679 48.417 15.7949 50.8905 15.7949 53.4956V68.666H8.79321V70.9999H78.8103V68.666H71.8086ZM58.9722 28.9896C58.9722 30.7599 57.6465 32.2116 55.9393 32.4426C56.7609 31.0131 57.3212 29.4487 57.594 27.8227H58.3887C58.5882 27.8227 58.7784 27.7853 58.9722 27.7631V28.9896ZM61.3061 22.5714C61.3061 24.1794 59.9979 25.4887 58.3887 25.4887H57.8052V19.654H58.3887C59.9979 19.654 61.3061 20.9633 61.3061 22.5714ZM29.7984 25.4887H29.2149C27.6056 25.4887 26.2975 24.1794 26.2975 22.5714C26.2975 20.9633 27.6056 19.654 29.2149 19.654H29.7984V25.4887ZM29.2149 17.3201C29.034 17.3201 28.8636 17.3551 28.6874 17.3738C29.2616 9.52834 35.8128 3.31665 43.8018 3.31665C51.7907 3.31665 58.342 9.52834 58.9161 17.3738C58.7399 17.3551 58.5696 17.3201 58.3887 17.3201H57.594C56.4784 10.7081 50.7265 5.65056 43.8018 5.65056C36.8771 5.65056 31.1252 10.7081 30.0096 17.3201H29.2149ZM55.4701 19.6248C47.0482 19.3284 41.4679 15.8847 41.4679 12.6523C41.4679 12.0081 40.9462 11.4853 40.3009 11.4853C39.6556 11.4853 39.134 12.0081 39.134 12.6523C39.134 15.5685 36.1186 17.9852 32.1999 18.4135C32.8219 12.5601 37.7873 7.98446 43.8018 7.98446C50.2259 7.98446 55.4538 13.2042 55.4701 19.6248ZM32.1323 25.4887V20.7556C35.7766 20.4393 38.8691 18.6819 40.413 16.2208C42.8542 19.4556 48.5594 21.7323 55.4713 21.9646V25.4887C55.4713 28.1179 54.5868 30.537 53.1152 32.4905H43.8018V34.8244H50.7732C50.1009 35.3291 49.3758 35.7595 48.6108 36.108C45.5487 37.499 42.0537 37.499 38.9904 36.108C34.9528 34.2712 32.1323 30.2079 32.1323 25.4887ZM50.3577 38.3252H52.4162L47.7484 47.6608H45.6899L50.3577 38.3252ZM43.8018 46.2185L40.1947 39.0044C41.3477 39.3125 42.5531 39.4922 43.8018 39.4922C45.0504 39.4922 46.2559 39.3125 47.4088 39.0044L43.8018 46.2185ZM35.1873 38.3252H37.2458L41.9137 47.6608H39.8551L35.1873 38.3252ZM63.64 68.666H23.9636V53.4956C23.9636 51.5655 25.5343 49.9947 27.4644 49.9947H60.1391C62.0693 49.9947 63.64 51.5655 63.64 53.4956V68.666ZM69.4747 68.666H65.9739V53.4956C65.9739 50.2783 63.3564 47.6608 60.1391 47.6608H50.3577L55.008 38.3614C63.0448 38.7325 69.4747 45.3678 69.4747 53.4956V68.666ZM75.0636 5.30135C75.3537 5.30135 75.632 5.18609 75.8371 4.98092C76.0423 4.77575 76.1576 4.49748 76.1576 4.20733V1.52932C76.1576 1.23917 76.0423 0.960901 75.8371 0.755733C75.632 0.550565 75.3537 0.435303 75.0636 0.435303C74.7734 0.435303 74.4951 0.550565 74.29 0.755733C74.0848 0.960901 73.9695 1.23917 73.9695 1.52932V4.20733C73.9695 4.49748 74.0848 4.77575 74.29 4.98092C74.4951 5.18609 74.7734 5.30135 75.0636 5.30135ZM75.0636 13.5336C75.3537 13.5336 75.632 13.4184 75.8371 13.2132C76.0423 13.008 76.1576 12.7297 76.1576 12.4396V9.76159C76.1576 9.47143 76.0423 9.19317 75.8371 8.988C75.632 8.78283 75.3537 8.66757 75.0636 8.66757C74.7734 8.66757 74.4951 8.78283 74.29 8.988C74.0848 9.19317 73.9695 9.47143 73.9695 9.76159V12.4396C73.9695 12.7297 74.0848 13.008 74.29 13.2132C74.4951 13.4184 74.7734 13.5336 75.0636 13.5336ZM77.8408 8.07855H80.5188C80.8089 8.07855 81.0872 7.96329 81.2924 7.75812C81.4975 7.55295 81.6128 7.27468 81.6128 6.98453C81.6128 6.69438 81.4975 6.41611 81.2924 6.21095C81.0872 6.00578 80.8089 5.89051 80.5188 5.89051H77.8408C77.5506 5.89051 77.2723 6.00578 77.0672 6.21095C76.862 6.41611 76.7467 6.69438 76.7467 6.98453C76.7467 7.27468 76.862 7.55295 77.0672 7.75812C77.2723 7.96329 77.5506 8.07855 77.8408 8.07855ZM69.6085 8.07855H72.2865C72.5767 8.07855 72.8549 7.96329 73.0601 7.75812C73.2653 7.55295 73.3805 7.27468 73.3805 6.98453C73.3805 6.69438 73.2653 6.41611 73.0601 6.21095C72.8549 6.00578 72.5767 5.89051 72.2865 5.89051H69.6085C69.3183 5.89051 69.0401 6.00578 68.8349 6.21095C68.6297 6.41611 68.5145 6.69438 68.5145 6.98453C68.5145 7.27468 68.6297 7.55295 68.8349 7.75812C69.0401 7.96329 69.3183 8.07855 69.6085 8.07855Z" fill="#8D00EE"/>
<path d="M64.7697 2.38579C65.4284 2.38579 65.9624 1.85176 65.9624 1.19302C65.9624 0.534266 65.4284 0.000244141 64.7697 0.000244141C64.1109 0.000244141 63.5769 0.534266 63.5769 1.19302C63.5769 1.85176 64.1109 2.38579 64.7697 2.38579Z" fill="#8D00EE"/>
<path d="M7.35621 24.4346C7.64636 24.4346 7.92463 24.3194 8.1298 24.1142C8.33497 23.909 8.45023 23.6308 8.45023 23.3406V20.6626C8.45023 20.3725 8.33497 20.0942 8.1298 19.889C7.92463 19.6839 7.64636 19.5686 7.35621 19.5686C7.06606 19.5686 6.78779 19.6839 6.58262 19.889C6.37746 20.0942 6.26219 20.3725 6.26219 20.6626V23.3406C6.26219 23.6308 6.37746 23.909 6.58262 24.1142C6.78779 24.3194 7.06606 24.4346 7.35621 24.4346ZM7.35621 32.6669C7.64636 32.6669 7.92463 32.5517 8.1298 32.3465C8.33497 32.1413 8.45023 31.863 8.45023 31.5729V28.8949C8.45023 28.6047 8.33497 28.3265 8.1298 28.1213C7.92463 27.9161 7.64636 27.8009 7.35621 27.8009C7.06606 27.8009 6.78779 27.9161 6.58262 28.1213C6.37746 28.3265 6.26219 28.6047 6.26219 28.8949V31.5729C6.26219 31.863 6.37746 32.1413 6.58262 32.3465C6.78779 32.5517 7.06606 32.6669 7.35621 32.6669ZM10.1334 27.2119H12.8114C13.1016 27.2119 13.3798 27.0966 13.585 26.8914C13.7902 26.6862 13.9054 26.408 13.9054 26.1178C13.9054 25.8277 13.7902 25.5494 13.585 25.3442C13.3798 25.1391 13.1016 25.0238 12.8114 25.0238H10.1334C9.84326 25.0238 9.56499 25.1391 9.35982 25.3442C9.15466 25.5494 9.03939 25.8277 9.03939 26.1178C9.03939 26.408 9.15466 26.6862 9.35982 26.8914C9.56499 27.0966 9.84326 27.2119 10.1334 27.2119ZM1.90115 27.2119H4.57916C4.86931 27.2119 5.14758 27.0966 5.35274 26.8914C5.55791 26.6862 5.67317 26.408 5.67317 26.1178C5.67317 25.8277 5.55791 25.5494 5.35274 25.3442C5.14758 25.1391 4.86931 25.0238 4.57916 25.0238H1.90115C1.611 25.0238 1.33273 25.1391 1.12756 25.3442C0.922391 25.5494 0.807129 25.8277 0.807129 26.1178C0.807129 26.408 0.922391 26.6862 1.12756 26.8914C1.33273 27.0966 1.611 27.2119 1.90115 27.2119Z" fill="#8D00EE"/>
<path d="M15.952 34.793C16.6108 34.793 17.1448 34.259 17.1448 33.6002C17.1448 32.9415 16.6108 32.4075 15.952 32.4075C15.2933 32.4075 14.7593 32.9415 14.7593 33.6002C14.7593 34.259 15.2933 34.793 15.952 34.793Z" fill="#8D00EE"/>
</g>
<defs>
<clipPath id="clip0_5_1632">
<rect width="81" height="71" fill="white" transform="translate(0.709961)"/>
</clipPath>
</defs>
</svg>
