<svg width="74" height="72" viewBox="0 0 74 72" fill="none" xmlns="http://www.w3.org/2000/svg">
<g clip-path="url(#clip0_5_1646)">
<path d="M36.9062 27.0336C37.1272 27.8627 37.1646 28.6797 37.2715 29.5244C37.3605 30.227 37.6013 30.9141 38.1763 31.3646C38.7528 31.8163 39.4824 31.8702 40.183 31.7559C41.0968 31.6069 41.9435 31.3706 42.8791 31.3532C43.5341 31.3409 43.903 30.3463 43.2362 30.0349C42.5156 29.6984 41.7899 29.7223 41.0103 29.7276L38.3883 29.7456C37.6209 29.7508 37.3887 31.0059 38.2002 31.1352L39.5271 31.3466L40.1906 31.4523C40.3631 31.4797 40.7558 31.6863 40.4897 31.433L40.2824 30.9327C40.3182 30.5873 39.9485 31.1078 39.8712 31.2425C39.7477 31.4576 39.7187 31.7009 39.5334 31.8598C39.3303 32.0339 39.0927 32.1114 38.9259 32.339C38.7344 32.6005 38.6651 32.9037 38.7119 33.2254C38.7578 33.5401 38.9262 33.7984 39.0428 34.0885C39.1662 34.3957 39.1893 34.7246 39.2486 35.048C39.377 35.7486 39.7489 36.2763 40.194 36.8142L41.1945 35.8138C40.6811 35.3451 40.1278 34.921 39.5306 34.5643C38.9726 34.2312 38.24 33.732 37.5974 33.6025C36.9691 33.4759 36.3778 34.0586 35.8964 34.3765L33.8354 35.7372L34.8999 36.3481C34.9289 35.6071 35.324 34.8224 35.4796 34.092C35.6305 33.3833 35.8587 32.5776 35.8394 31.8517C35.8222 31.1999 35.352 30.778 34.7937 30.5271C34.0948 30.2132 33.4454 29.8929 32.8272 29.433L32.2821 30.7261C33.5857 31.0207 34.9706 31.2613 36.2536 30.7497C37.5057 30.2505 38.0538 29.3242 37.9391 27.9959C37.8611 27.0917 36.5882 27.0803 36.5243 27.9959C36.4776 28.6634 36.4481 29.4201 36.051 29.9894C35.7271 30.4537 35.1025 30.5356 34.8412 31.0529C34.5876 31.5548 34.7417 32.1145 35.016 32.5698C35.234 32.9315 35.2737 33.0898 35.18 33.5115L34.9327 34.6241C34.7622 35.3914 35.8057 35.8806 36.2258 35.1692C37.1313 33.6358 37.7946 31.9762 38.1883 30.2392C38.3573 29.4935 37.2678 28.9431 36.8953 29.6941C36.459 30.5739 35.9729 31.428 35.4394 32.2525L36.6612 32.9666L37.1873 31.8336C37.2526 31.6928 37.3577 31.5395 37.395 31.3919C37.4207 31.3372 37.4501 31.2846 37.4835 31.2342C37.1618 31.012 36.9959 31.0141 36.9858 31.2407C36.7995 31.5149 36.7837 32.1599 36.7097 32.4904L36.3984 33.88C36.2 34.7662 37.5017 35.1327 37.7628 34.2561C37.9874 33.5021 38.2119 32.735 38.769 32.1538L37.5865 31.8416C37.6834 32.418 37.7303 32.9949 37.7429 33.5792L39.1326 33.3911C39.1009 33.1719 39.1401 32.9557 39.1947 32.7445C39.214 32.6638 39.2373 32.5843 39.2645 32.5059C39.3764 32.3742 39.3207 32.3156 39.0973 32.3301V31.3296C38.1401 32.2898 37.9478 33.6404 38.4723 34.8656C38.8296 35.7002 40.0488 34.9801 39.6941 34.1515C39.4242 33.5211 39.6302 32.7992 40.0978 32.3301C40.347 32.0802 40.3961 31.5716 40.0978 31.3296C39.4802 30.8289 38.6719 30.8954 38.1868 31.5576C37.7331 32.1768 37.6622 33.0342 37.7684 33.7672C37.8835 34.5629 39.1749 34.3628 39.158 33.5791C39.1426 32.8683 39.0689 32.1664 38.9511 31.4653C38.8617 30.9325 38.1111 30.7961 37.7687 31.1532C37.0376 31.916 36.6948 32.8857 36.3987 33.8797L37.763 34.2558C37.953 33.4076 38.1648 32.561 38.3335 31.7082C38.4529 31.105 38.4551 30.4543 37.8931 30.0683C36.5382 29.1377 35.8305 31.4102 35.4395 32.2523C35.0599 33.0699 36.1593 33.7423 36.6613 32.9664C37.1948 32.1419 37.6808 31.2877 38.1171 30.4079L36.8241 29.8628C36.4556 31.489 35.852 33.019 35.0041 34.4548L36.2972 34.9999C36.4461 34.33 36.7523 33.5364 36.6752 32.8483C36.6406 32.54 36.5 32.2696 36.3379 32.0102C36.2872 31.929 36.1218 31.7659 36.1334 31.6617C36.1181 31.7988 36.3654 31.6052 36.4167 31.5729C37.6388 30.8041 37.8473 29.3136 37.9394 27.9956H36.5245C36.5532 28.3267 36.6239 28.7246 36.4103 29.0083C36.1736 29.3225 35.6797 29.4817 35.3201 29.5633C34.4376 29.763 33.5223 29.5566 32.6586 29.3615C31.8404 29.1766 31.4838 30.1861 32.1135 30.6545C32.5917 31.0103 33.0961 31.3187 33.64 31.5636C33.8146 31.6422 34.2473 31.7349 34.3776 31.8942C34.5061 32.0512 34.3339 32.5552 34.301 32.7435C34.1936 33.3567 34.0745 33.969 33.9116 34.5702C33.7503 35.1649 33.5098 35.7252 33.4854 36.3479C33.4651 36.8684 34.1075 37.2508 34.5499 36.9587L36.0488 35.9691L36.7982 35.4743L37.1729 35.2268C37.284 35.1535 37.6517 35.0324 37.4626 35.006C37.234 34.9742 37.6392 35.1598 37.6701 35.1749C37.7999 35.2384 37.9291 35.3031 38.0577 35.369C38.3147 35.5008 38.5688 35.6378 38.8169 35.7858C39.3137 36.0825 39.7674 36.4241 40.1944 36.814C40.8771 37.4374 41.7694 36.5079 41.1949 35.8135C40.8633 35.4128 40.6876 35.0882 40.5965 34.5744C40.5272 34.1833 40.4691 33.8159 40.3063 33.4505C40.2914 33.4169 40.1751 33.0476 40.1217 33.1494C40.1711 33.0552 40.4786 32.935 40.5679 32.8531C40.8579 32.5873 40.8795 32.2527 41.0933 31.9565C41.277 31.7018 41.5595 31.5698 41.6599 31.2417C41.7766 30.8605 41.6245 30.4561 41.2784 30.2561C40.9526 30.0677 40.491 30.0756 40.1248 30.0172L38.5767 29.7706L38.3886 31.1603L40.5546 31.1454C41.1488 31.1414 41.9677 30.9974 42.5224 31.2564L42.8795 29.9382C42.2207 29.9505 41.5623 30.0165 40.9161 30.1479C40.3875 30.2555 39.5326 30.6415 39.0393 30.255C38.613 29.9211 38.6535 29.1893 38.6169 28.7092C38.5651 28.016 38.4493 27.3291 38.2709 26.6573C38.0362 25.7785 36.671 26.1514 36.9062 27.0336Z" fill="#663399"/>
<path d="M17.0288 55.4491H27.9415V62.5286H17.0288V55.4491ZM47.3242 55.343H58.2369V62.4225H47.3242V55.343Z" fill="#D6AFFF"/>
<path d="M21.3525 50.8831H53.342V57.9626H21.3525V50.8831Z" fill="#D6AFFF"/>
<path d="M42.0856 39.6383C42.4436 39.8985 42.9469 39.8735 43.2779 39.58C43.5585 39.3312 43.6676 38.93 43.5516 38.5733L41.8295 33.2734L46.3378 29.9981C46.6735 29.7543 46.8135 29.3077 46.6779 28.9158C46.5467 28.5364 46.1795 28.2746 45.7778 28.2746H40.2054L38.4834 22.9749C38.3573 22.5869 37.9853 22.3167 37.5774 22.3167C37.1694 22.3167 36.7974 22.5869 36.6714 22.975L34.9493 28.2748H29.3769C28.9752 28.2748 28.608 28.5365 28.4768 28.9161C28.3412 29.308 28.4812 29.7546 28.8169 29.9983L33.3252 33.2738L31.6032 38.5737C31.4812 38.9491 31.6093 39.3719 31.9195 39.6161C32.2508 39.877 32.728 39.8867 33.0692 39.6387L37.5774 36.3632L42.0856 39.6383ZM34.3213 36.3736L35.3511 33.2041C35.4133 33.0128 35.4132 32.8067 35.3511 32.6153C35.2889 32.424 35.1677 32.2572 35.0049 32.139L32.3088 30.1801H35.6415C35.8427 30.1801 36.0388 30.1164 36.2015 29.9982C36.3643 29.8799 36.4854 29.7131 36.5475 29.5218L37.5774 26.3522L38.6073 29.5216C38.6695 29.713 38.7906 29.8798 38.9533 29.998C39.1161 30.1163 39.3121 30.18 39.5133 30.18H42.8461L40.1499 32.1389C39.9871 32.2571 39.8659 32.4238 39.8038 32.6152C39.7416 32.8065 39.7416 33.0126 39.8037 33.204L40.8336 36.3735L38.1374 34.4147C37.8073 34.1748 37.3477 34.1748 37.0176 34.4147L34.3213 36.3736Z" fill="#8D00EE"/>
<path d="M60.6606 54.1552C60.4755 53.9344 60.1934 53.8184 59.9054 53.8184H54.7889V50.7064C54.7889 50.4537 54.6885 50.2114 54.5099 50.0327C54.3312 49.854 54.0889 49.7537 53.8362 49.7537H40.5624V46.3014C47.5155 45.0004 52.9179 39.2427 53.6797 32.1167L59.4875 30.1807C60.4871 29.8485 61.3565 29.2099 61.9724 28.3554C62.5883 27.5009 62.9193 26.4741 62.9183 25.4208V22.2534C62.9183 19.4824 60.672 17.236 57.901 17.236H56.8212V12.0916C56.8212 11.8389 56.7209 11.5966 56.5422 11.418C56.3635 11.2393 56.1212 11.1389 55.8685 11.1389H49.753L49.7785 13.0422L54.916 13.0443V17.236H20.2388V13.0443L45.6916 13.0478L45.7068 11.1389H19.2861C19.0334 11.1389 18.7911 11.2393 18.6125 11.418C18.4338 11.5966 18.3334 11.8389 18.3334 12.0916V17.236H17.2537C14.4827 17.236 12.2363 19.4824 12.2363 22.2534V25.4208C12.2354 26.4741 12.5664 27.5009 13.1822 28.3554C13.7981 29.2099 14.6676 29.8486 15.6671 30.1809L21.475 32.1168C22.2368 39.2428 27.6392 45.0006 34.5922 46.3015V49.7537L29.3591 49.7529L29.3767 51.6591H52.8834V57.8832H22.2711V51.6591H25.8417L25.8473 49.7529L21.3184 49.7537C21.0658 49.7537 20.8234 49.854 20.6448 50.0327C20.4661 50.2114 20.3657 50.4537 20.3657 50.7064V53.8184H15.2214C14.4525 53.8184 13.9969 54.7262 14.4593 55.3427L17.0791 58.8359L14.4593 62.3291C13.9969 62.9455 14.4525 63.8534 15.2214 63.8534H27.4155C27.5406 63.8534 27.6645 63.8287 27.7801 63.7808C27.8957 63.733 28.0007 63.6628 28.0892 63.5743C28.1777 63.4859 28.2478 63.3808 28.2957 63.2652C28.3436 63.1496 28.3682 63.0258 28.3682 62.9007V59.7886H34.5924V63.328L26.7751 67.2367C25.3323 67.9579 24.4349 69.4062 24.4305 71.0183C24.4291 71.5488 24.8527 71.9828 25.3832 71.9828H49.7716C50.302 71.9828 50.7257 71.5488 50.7243 71.0183C50.7199 69.4062 49.8224 67.9579 48.3799 67.2368L40.5625 63.328V59.7886H46.7867V62.9007C46.7867 63.0258 46.8113 63.1496 46.8592 63.2652C46.9071 63.3808 46.9772 63.4859 47.0657 63.5743C47.1542 63.6628 47.2592 63.733 47.3748 63.7808C47.4904 63.8287 47.6143 63.8534 47.7394 63.8534H59.9335C60.7024 63.8534 61.158 62.9456 60.6956 62.3291L58.0758 58.8359L60.6956 55.3427C60.825 55.17 60.892 54.9585 60.8856 54.7428C60.8793 54.5271 60.7999 54.32 60.6606 54.1552ZM57.901 19.1413C59.617 19.1413 61.013 20.5373 61.013 22.2534V25.4208C61.0136 26.0741 60.8084 26.711 60.4264 27.241C60.0444 27.7709 59.5051 28.1671 58.8852 28.3731L53.7728 30.0771V19.1413H57.901ZM14.1417 25.4208V22.2534C14.1417 20.5373 15.5378 19.1413 17.2538 19.1413H21.382V30.0771L16.2697 28.373C15.6498 28.167 15.1105 27.7709 14.7285 27.2409C14.3464 26.711 14.1412 26.0741 14.1417 25.4208ZM23.2873 30.3828V19.1413H51.8673V30.3828C51.8673 38.2623 45.4569 44.6728 37.5773 44.6728C29.6976 44.6728 23.2873 38.2623 23.2873 30.3828ZM36.4976 46.5413C36.8547 46.5649 37.2145 46.5781 37.5774 46.5781C37.9403 46.5781 38.3 46.5649 38.6571 46.5413V49.7537H36.4978L36.4976 46.5413ZM26.4629 61.9478H17.1268L19.0321 59.4074C19.1557 59.2425 19.2226 59.0419 19.2226 58.8358C19.2226 58.6296 19.1557 58.4291 19.0321 58.2642L17.1268 55.7237H20.3659V58.8358C20.3659 59.0884 20.4662 59.3308 20.6449 59.5094C20.8236 59.6881 21.0659 59.7885 21.3186 59.7885H26.4629V61.9478ZM39.1837 64.7687L47.5277 68.9408C48.0236 69.1887 48.4027 69.5929 48.6179 70.0772H26.5369C26.7522 69.5927 27.1312 69.1887 27.6271 68.9408L35.9711 64.7687C36.1293 64.6896 36.2624 64.568 36.3554 64.4175C36.4485 64.267 36.4977 64.0936 36.4978 63.9167V59.7885H38.6571V63.9167C38.6571 64.0936 38.7063 64.267 38.7993 64.4175C38.8923 64.568 39.0254 64.6896 39.1837 64.7687ZM56.1226 59.4075L58.0279 61.9479H48.6917V59.7886H53.8361C53.9612 59.7886 54.0851 59.7639 54.2007 59.7161C54.3163 59.6682 54.4213 59.598 54.5098 59.5095C54.5982 59.4211 54.6684 59.3161 54.7163 59.2005C54.7642 59.0849 54.7888 58.961 54.7888 58.8359V55.7238H58.0279L56.1226 58.2643C55.999 58.4292 55.9321 58.6298 55.9321 58.8359C55.9321 59.042 55.999 59.2426 56.1226 59.4075ZM68.2347 41.2367C68.471 41.2367 68.6977 41.1428 68.8649 40.9757C69.032 40.8085 69.1259 40.5818 69.1259 40.3455V38.1638C69.1259 37.9274 69.032 37.7007 68.8649 37.5335C68.6977 37.3664 68.471 37.2725 68.2347 37.2725C67.9983 37.2725 67.7716 37.3664 67.6044 37.5335C67.4373 37.7007 67.3434 37.9274 67.3434 38.1638V40.3455C67.3434 40.5818 67.4373 40.8085 67.6044 40.9757C67.7716 41.1428 67.9983 41.2367 68.2347 41.2367ZM68.2347 47.9433C68.471 47.9433 68.6977 47.8494 68.8649 47.6823C69.032 47.5151 69.1259 47.2884 69.1259 47.052V44.8703C69.1259 44.634 69.032 44.4073 68.8649 44.2401C68.6977 44.073 68.471 43.9791 68.2347 43.9791C67.9983 43.9791 67.7716 44.073 67.6044 44.2401C67.4373 44.4073 67.3434 44.634 67.3434 44.8703V47.052C67.3434 47.2884 67.4373 47.5151 67.6044 47.6823C67.7716 47.8494 67.9983 47.9433 68.2347 47.9433ZM70.4972 43.4992H72.6789C72.9153 43.4992 73.1419 43.4053 73.3091 43.2382C73.4762 43.071 73.5701 42.8443 73.5701 42.608C73.5701 42.3716 73.4762 42.1449 73.3091 41.9777C73.1419 41.8106 72.9153 41.7167 72.6789 41.7167H70.4972C70.2608 41.7167 70.0341 41.8106 69.867 41.9777C69.6998 42.1449 69.6059 42.3716 69.6059 42.608C69.6059 42.8443 69.6998 43.071 69.867 43.2382C70.0341 43.4053 70.2608 43.4992 70.4972 43.4992ZM63.7906 43.4992H65.9723C66.2087 43.4992 66.4354 43.4053 66.6025 43.2382C66.7696 43.071 66.8635 42.8443 66.8635 42.608C66.8635 42.3716 66.7696 42.1449 66.6025 41.9777C66.4354 41.8106 66.2087 41.7167 65.9723 41.7167H63.7906C63.5542 41.7167 63.3275 41.8106 63.1604 41.9777C62.9932 42.1449 62.8993 42.3716 62.8993 42.608C62.8993 42.8443 62.9932 43.071 63.1604 43.2382C63.3275 43.4053 63.5542 43.4992 63.7906 43.4992Z" fill="#8D00EE"/>
<path d="M59.8484 38.8612C60.3851 38.8612 60.8201 38.4261 60.8201 37.8894C60.8201 37.3528 60.3851 36.9177 59.8484 36.9177C59.3118 36.9177 58.8767 37.3528 58.8767 37.8894C58.8767 38.4261 59.3118 38.8612 59.8484 38.8612Z" fill="#8D00EE"/>
<path d="M5.90542 3.98181C6.1418 3.98181 6.3685 3.88791 6.53564 3.72076C6.70279 3.55362 6.79669 3.32692 6.79669 3.09054V0.908844C6.79669 0.672465 6.70279 0.445768 6.53564 0.278624C6.3685 0.111479 6.1418 0.0175781 5.90542 0.0175781C5.66904 0.0175781 5.44235 0.111479 5.2752 0.278624C5.10806 0.445768 5.01416 0.672465 5.01416 0.908844V3.09054C5.01416 3.32692 5.10806 3.55362 5.2752 3.72076C5.44235 3.88791 5.66904 3.98181 5.90542 3.98181ZM5.90542 10.6884C6.1418 10.6884 6.3685 10.5945 6.53564 10.4274C6.70279 10.2602 6.79669 10.0335 6.79669 9.79714V7.61544C6.79669 7.37906 6.70279 7.15236 6.53564 6.98522C6.3685 6.81807 6.1418 6.72417 5.90542 6.72417C5.66904 6.72417 5.44235 6.81807 5.2752 6.98522C5.10806 7.15236 5.01416 7.37906 5.01416 7.61544V9.79714C5.01416 10.0335 5.10806 10.2602 5.2752 10.4274C5.44235 10.5945 5.66904 10.6884 5.90542 10.6884ZM8.16793 6.24432H10.3496C10.586 6.24432 10.8127 6.15042 10.9798 5.98327C11.147 5.81613 11.2409 5.58943 11.2409 5.35305C11.2409 5.11667 11.147 4.88998 10.9798 4.72283C10.8127 4.55569 10.586 4.46178 10.3496 4.46178H8.16793C7.93155 4.46178 7.70485 4.55569 7.53771 4.72283C7.37056 4.88998 7.27666 5.11667 7.27666 5.35305C7.27666 5.58943 7.37056 5.81613 7.53771 5.98327C7.70485 6.15042 7.93155 6.24432 8.16793 6.24432ZM1.46133 6.24432H3.64303C3.87941 6.24432 4.10611 6.15042 4.27325 5.98327C4.4404 5.81613 4.5343 5.58943 4.5343 5.35305C4.5343 5.11667 4.4404 4.88998 4.27325 4.72283C4.10611 4.55569 3.87941 4.46178 3.64303 4.46178H1.46133C1.22496 4.46178 0.998259 4.55569 0.831114 4.72283C0.66397 4.88998 0.570068 5.11667 0.570068 5.35305C0.570068 5.58943 0.66397 5.81613 0.831114 5.98327C0.998259 6.15042 1.22496 6.24432 1.46133 6.24432Z" fill="#8D00EE"/>
<path d="M12.9082 12.4202C13.4449 12.4202 13.88 11.9852 13.88 11.4485C13.88 10.9119 13.4449 10.4768 12.9082 10.4768C12.3716 10.4768 11.9365 10.9119 11.9365 11.4485C11.9365 11.9852 12.3716 12.4202 12.9082 12.4202Z" fill="#8D00EE"/>
</g>
<defs>
<clipPath id="clip0_5_1646">
<rect width="73" height="72" fill="white" transform="translate(0.570068)"/>
</clipPath>
</defs>
</svg>
