<svg width="71" height="62" viewBox="0 0 71 62" fill="none" xmlns="http://www.w3.org/2000/svg">
<path d="M53.3185 9.54028L65.6491 21.871L59.6821 27.838L47.3513 15.5074L53.3185 9.54028Z" fill="#D6AFFF"/>
<path d="M5.13062 22.8117L18.9401 9.0022L24.9072 14.9692L11.0976 28.7787L5.13062 22.8117Z" fill="#663399"/>
<path d="M66.14 20.7157L63.892 18.4667L62.4879 19.8702L64.0394 21.4159L59.4273 26.0278L48.803 15.4036L53.4151 10.7916L60.4761 17.8511L61.8787 16.4534L54.1152 8.69085C54.0233 8.59888 53.9141 8.52593 53.794 8.47616C53.6738 8.42639 53.5451 8.40077 53.415 8.40077C53.285 8.40077 53.1562 8.42639 53.0361 8.47616C52.9159 8.52593 52.8068 8.59888 52.7148 8.69085L46.7025 14.7032C46.5168 14.8888 46.4125 15.1407 46.4125 15.4033C46.4125 15.6659 46.5168 15.9178 46.7025 16.1035L47.3023 16.7033L45.924 18.0813C45.0292 18.9757 43.6409 19.2198 42.4694 18.6881C41.3711 18.1896 40.1501 17.9262 38.9382 17.9262C37.5072 17.9253 36.099 18.2848 34.8435 18.9716C34.3214 18.8427 33.7855 18.7776 33.2476 18.7775C32.47 18.7768 31.6983 18.9125 30.9676 19.1783C29.7989 19.6028 28.5462 19.3397 27.6977 18.4915L25.2226 16.0164L25.5174 15.7217C25.7031 15.536 25.8074 15.2841 25.8074 15.0215C25.8074 14.7589 25.7031 14.507 25.5174 14.3213L19.5051 8.30904C19.1182 7.92227 18.4914 7.92227 18.1474 8.26484L9.83308 16.6301L11.2337 18.0295L18.8049 10.4099L23.417 15.0219L11.4325 27.0064L6.82051 22.3944L9.03713 20.1975L7.63814 18.7966L4.7199 21.694C4.53423 21.8797 4.42993 22.1316 4.42993 22.3942C4.42993 22.6568 4.53423 22.9086 4.7199 23.0943L10.7321 29.1066C10.824 29.1986 10.9332 29.2716 11.0534 29.3214C11.1735 29.3712 11.3023 29.3968 11.4324 29.3968C11.5624 29.3968 11.6912 29.3712 11.8114 29.3214C11.9315 29.2716 12.0407 29.1986 12.1327 29.1066L12.4912 28.7481L14.2367 30.4935C14.6771 30.934 14.969 31.4838 15.0808 32.0836C15.6604 35.1937 17.1498 38.0211 19.3881 40.2606L19.7169 40.5894C19.0855 41.2543 18.7382 42.1206 18.7382 43.0409C18.7382 43.9928 19.109 44.8878 19.782 45.561C20.4769 46.2558 21.3893 46.6031 22.3021 46.6031C22.3616 46.6031 22.4208 46.6015 22.4802 46.5985C22.432 47.5696 22.7779 48.5566 23.5178 49.2967C24.1909 49.9699 25.0859 50.3406 26.0378 50.3406C26.0644 50.3406 26.0908 50.3392 26.1173 50.3386C26.0969 51.277 26.4431 52.2219 27.1576 52.9364C27.8308 53.6097 28.7258 53.9803 29.6778 53.9803C30.6297 53.9803 31.5246 53.6095 32.1979 52.9364C32.2546 52.8798 32.308 52.8212 32.3602 52.7618C32.7125 52.8852 33.083 52.9484 33.4563 52.949C34.3467 52.949 35.1832 52.6021 35.8105 51.9728C36.1392 51.645 36.3954 51.2519 36.5626 50.8189L36.6639 50.9202C37.3129 51.5692 38.1653 51.8937 39.0176 51.8937C39.87 51.8937 40.7224 51.5692 41.3713 50.9202C41.7109 50.5818 41.973 50.1737 42.1396 49.7241C42.7083 50.137 43.3933 50.359 44.0962 50.3581C44.9486 50.3581 45.8014 50.0337 46.451 49.385C47.0796 48.7564 47.4258 47.9201 47.4258 47.0303C47.4258 46.7615 47.3936 46.4979 47.3322 46.243C47.9664 46.1141 48.5491 45.8028 49.0166 45.3347C49.6452 44.7061 49.9914 43.8702 49.9914 42.981C49.9914 42.2804 49.7756 41.6136 49.3771 41.0544L50.1715 40.26C52.4358 37.9946 53.9317 35.1317 54.4975 31.9807C54.5924 31.4531 54.8537 30.963 55.2535 30.563L58.208 27.6086L58.7273 28.128C58.8192 28.2201 58.9284 28.2931 59.0485 28.3429C59.1687 28.3926 59.2976 28.4182 59.4276 28.418C59.5577 28.4182 59.6865 28.3926 59.8067 28.3428C59.9269 28.2931 60.036 28.2201 60.1279 28.128L66.1402 22.1157C66.3258 21.9299 66.43 21.6782 66.4299 21.4156C66.4299 21.1531 66.3256 20.9013 66.14 20.7157ZM23.4217 44.161C22.8045 44.7781 21.8001 44.7784 21.1824 44.161C21.0349 44.0143 20.9179 43.8398 20.8383 43.6476C20.7587 43.4554 20.718 43.2493 20.7186 43.0413C20.7186 42.6184 20.8834 42.2207 21.1825 41.9216C21.3294 41.7745 21.5039 41.6579 21.696 41.5784C21.8881 41.4989 22.0941 41.4582 22.302 41.4586C22.7074 41.4586 23.1131 41.613 23.4216 41.9216C24.0391 42.5391 24.0391 43.5437 23.4217 44.161ZM27.1574 47.8965C27.0107 48.0441 26.8362 48.1611 26.644 48.2407C26.4518 48.3203 26.2458 48.361 26.0377 48.3603C25.8297 48.3609 25.6237 48.3202 25.4315 48.2405C25.2394 48.1609 25.0649 48.044 24.9182 47.8965C24.3008 47.2792 24.3008 46.2746 24.9182 45.6571C25.0651 45.51 25.2397 45.3933 25.4318 45.3139C25.624 45.2344 25.8299 45.1937 26.0378 45.1941C26.4431 45.1941 26.8488 45.3485 27.1574 45.6571C27.7748 46.2746 27.7748 47.2792 27.1574 47.8965ZM30.7971 51.5364C30.6504 51.6838 30.4759 51.8008 30.2838 51.8804C30.0916 51.96 29.8856 52.0007 29.6776 52.0001C29.4695 52.0007 29.2635 51.96 29.0713 51.8804C28.8791 51.8008 28.7046 51.6838 28.5579 51.5364C27.9405 50.919 27.9405 49.9144 28.5579 49.297C28.7048 49.1498 28.8794 49.0332 29.0715 48.9537C29.2637 48.8742 29.4696 48.8335 29.6776 48.8339C30.0829 48.8339 30.4885 48.9883 30.7971 49.297C31.4147 49.9143 31.4147 50.919 30.7971 51.5364ZM47.6155 43.9351C47.361 44.1898 47.0225 44.3302 46.6627 44.3302C46.3028 44.3302 45.9643 44.1898 45.7093 43.9345L36.1029 34.3303C35.9164 34.1485 35.6658 34.0475 35.4053 34.0492C35.1448 34.0509 34.8955 34.1551 34.7114 34.3393C34.5272 34.5235 34.4231 34.7728 34.4214 35.0333C34.4198 35.2937 34.5209 35.5444 34.7027 35.7308L45.0503 46.0773C45.1759 46.2022 45.2754 46.3508 45.3432 46.5144C45.411 46.678 45.4456 46.8535 45.4451 47.0306C45.4451 47.3914 45.3048 47.7304 45.0507 47.9846C44.5243 48.5105 43.6683 48.5106 43.1427 47.9849L41.397 46.2392C41.3873 46.2292 41.3779 46.219 41.3678 46.2091C41.3649 46.2062 41.3617 46.2036 41.3586 46.2007L33.3341 38.1762C33.1484 37.9905 32.8965 37.8862 32.6339 37.8862C32.3713 37.8862 32.1194 37.9905 31.9337 38.1762C31.8417 38.2681 31.7687 38.3773 31.719 38.4974C31.6692 38.6176 31.6436 38.7463 31.6436 38.8764C31.6436 39.0064 31.6692 39.1352 31.719 39.2553C31.7687 39.3754 31.8417 39.4846 31.9337 39.5765L39.984 47.6267C40.2296 47.8779 40.3667 48.2155 40.3655 48.5668C40.3655 48.9269 40.2252 49.2655 39.9706 49.52C39.4453 50.0457 38.5901 50.0457 38.0643 49.52L29.3352 40.7909C29.2433 40.6989 29.1341 40.6259 29.014 40.5762C28.8938 40.5264 28.7651 40.5008 28.635 40.5008C28.505 40.5008 28.3762 40.5264 28.256 40.5762C28.1359 40.6259 28.0267 40.6989 27.9348 40.7909C27.8428 40.8828 27.7699 40.992 27.7201 41.1121C27.6703 41.2322 27.6447 41.361 27.6447 41.491C27.6447 41.6211 27.6703 41.7498 27.7201 41.87C27.7699 41.9901 27.8428 42.0993 27.9348 42.1912L34.4053 48.6618C34.4071 48.6637 34.4086 48.6657 34.4105 48.6674C34.536 48.792 34.6355 48.9403 34.7032 49.1037C34.7709 49.267 34.8055 49.4422 34.8049 49.6191C34.8049 49.9791 34.6647 50.3177 34.4091 50.5733C34.2843 50.699 34.1358 50.7987 33.9722 50.8665C33.8086 50.9343 33.6332 50.969 33.456 50.9684C33.3703 50.9682 33.2848 50.9599 33.2005 50.9437C33.3607 49.8644 33.0267 48.7253 32.1976 47.8962C31.5245 47.2231 30.6295 46.8523 29.6776 46.8523C29.651 46.8523 29.6246 46.8537 29.5981 46.8543C29.6185 45.9159 29.2724 44.971 28.5578 44.2564C27.8845 43.5834 26.9896 43.2126 26.0376 43.2126C25.978 43.2126 25.9188 43.2141 25.8597 43.217C25.9073 42.2465 25.5615 41.2603 24.8219 40.5207C23.9217 39.6206 22.6563 39.3044 21.4986 39.5705L20.7886 38.8604C18.8341 36.9051 17.5338 34.4362 17.0277 31.7207C16.8424 30.7262 16.3615 29.8175 15.6372 29.0931L13.8919 27.3478L23.8228 17.4169L26.2977 19.8918C27.249 20.8431 28.5442 21.3522 29.8708 21.3522C30.4757 21.3521 31.0759 21.2463 31.6444 21.0396C31.925 20.9382 32.2147 20.8639 32.5095 20.8178L26.3782 26.9491C25.6281 27.6992 25.2149 28.6965 25.2149 29.7574C25.2149 30.8182 25.6281 31.8155 26.3781 32.5656C27.1524 33.3398 28.1691 33.7269 29.1863 33.7267C30.2032 33.7267 31.2203 33.3395 31.9947 32.5656L35.0741 29.4862L35.9076 30.3202L35.9082 30.3209L35.9428 30.3555L35.9761 30.3888C35.9763 30.389 35.9765 30.3891 35.9767 30.3893L35.9773 30.3899L36.0056 30.4172L47.6161 42.0278C47.7417 42.1527 47.8413 42.3013 47.909 42.4649C47.9768 42.6285 48.0114 42.804 48.0109 42.9811C48.0114 43.1583 47.9767 43.3339 47.9088 43.4977C47.8409 43.6614 47.7413 43.8101 47.6155 43.9351ZM53.8527 29.1631C53.1656 29.8503 52.7144 30.7038 52.5481 31.6311C52.054 34.3823 50.7478 36.8822 48.7708 38.8601L48.0098 39.6212L41.7455 33.3569C41.8821 33.3675 42.019 33.3731 42.156 33.3736C42.7903 33.3736 43.4394 33.2625 44.0855 32.9981C44.2068 32.9495 44.3173 32.8774 44.4105 32.786C44.5038 32.6945 44.5781 32.5855 44.629 32.4652C44.68 32.3449 44.7066 32.2157 44.7074 32.0851C44.7082 31.9545 44.6832 31.825 44.6337 31.7041C44.5843 31.5831 44.5114 31.4732 44.4192 31.3806C44.3271 31.288 44.2175 31.2145 44.0969 31.1645C43.9762 31.1144 43.8469 31.0887 43.7162 31.0888C43.5856 31.0889 43.4563 31.1149 43.3357 31.1652C40.7872 32.208 37.7318 29.3343 37.3916 29.0031C37.386 28.9976 37.3802 28.9921 37.3744 28.9868L37.3393 28.9516L37.3389 28.9514L37.3083 28.9209C37.3081 28.9207 37.3079 28.9205 37.3077 28.9204L36.4741 28.0862L37.4193 27.1408C37.5113 27.0489 37.5843 26.9397 37.6341 26.8196C37.6839 26.6994 37.7095 26.5707 37.7095 26.4406C37.7095 26.3106 37.6839 26.1818 37.6341 26.0616C37.5844 25.9415 37.5114 25.8323 37.4194 25.7404C37.2337 25.5547 36.9819 25.4504 36.7193 25.4504C36.4567 25.4504 36.2048 25.5547 36.0191 25.7404L34.3759 27.3836L34.3739 27.3854L34.3721 27.3874L30.594 31.1655C29.8175 31.9418 28.5545 31.9416 27.7783 31.1655C27.5929 30.981 27.4459 30.7616 27.3458 30.52C27.2457 30.2783 27.1945 30.0192 27.1953 29.7576C27.1945 29.4961 27.2457 29.237 27.3458 28.9953C27.4459 28.7536 27.593 28.5342 27.7784 28.3498L34.2996 21.8284C34.6612 21.4666 35.0638 21.1482 35.499 20.8794C36.5287 20.243 37.7179 19.9066 38.9382 19.9066C39.8698 19.9066 40.8078 20.1088 41.6511 20.4916C43.5694 21.362 45.8495 20.9564 47.3244 19.4819L48.7028 18.1037L56.8075 26.2084L53.8527 29.1631Z" fill="#8D00EE"/>
<path d="M60.425 23.1632C60.9719 23.1632 61.4152 22.7199 61.4152 22.173C61.4152 21.6262 60.9719 21.1829 60.425 21.1829C59.8781 21.1829 59.4348 21.6262 59.4348 22.173C59.4348 22.7199 59.8781 23.1632 60.425 23.1632Z" fill="#8D00EE"/>
<path d="M10.9165 24.1415C11.4633 24.1415 11.9066 23.6982 11.9066 23.1513C11.9066 22.6045 11.4633 22.1611 10.9165 22.1611C10.3696 22.1611 9.92627 22.6045 9.92627 23.1513C9.92627 23.6982 10.3696 24.1415 10.9165 24.1415Z" fill="#8D00EE"/>
<path d="M38.8183 4.87672C39.0592 4.87672 39.2902 4.78104 39.4605 4.61072C39.6309 4.4404 39.7265 4.20939 39.7265 3.96852V1.74536C39.7265 1.50449 39.6309 1.27349 39.4605 1.10316C39.2902 0.932844 39.0592 0.837158 38.8183 0.837158C38.5775 0.837158 38.3465 0.932844 38.1761 1.10316C38.0058 1.27349 37.9101 1.50449 37.9101 1.74536V3.96852C37.9101 4.20939 38.0058 4.4404 38.1761 4.61072C38.3465 4.78104 38.5775 4.87672 38.8183 4.87672ZM38.8183 11.7108C39.0592 11.7108 39.2902 11.6151 39.4605 11.4448C39.6309 11.2744 39.7265 11.0434 39.7265 10.8026V8.57941C39.7265 8.33854 39.6309 8.10753 39.4605 7.93721C39.2902 7.76689 39.0592 7.67121 38.8183 7.67121C38.5775 7.67121 38.3465 7.76689 38.1761 7.93721C38.0058 8.10753 37.9101 8.33854 37.9101 8.57941V10.8026C37.9101 11.0434 38.0058 11.2744 38.1761 11.4448C38.3465 11.6151 38.5775 11.7108 38.8183 11.7108ZM41.1238 7.18223H43.347C43.5879 7.18223 43.8189 7.08654 43.9892 6.91622C44.1595 6.7459 44.2552 6.5149 44.2552 6.27402C44.2552 6.03315 44.1595 5.80215 43.9892 5.63183C43.8189 5.46151 43.5879 5.36582 43.347 5.36582H41.1238C40.883 5.36582 40.652 5.46151 40.4816 5.63183C40.3113 5.80215 40.2156 6.03315 40.2156 6.27402C40.2156 6.5149 40.3113 6.7459 40.4816 6.91622C40.652 7.08654 40.883 7.18223 41.1238 7.18223ZM34.2898 7.18223H36.513C36.7538 7.18223 36.9848 7.08654 37.1552 6.91622C37.3255 6.7459 37.4212 6.5149 37.4212 6.27402C37.4212 6.03315 37.3255 5.80215 37.1552 5.63183C36.9848 5.46151 36.7538 5.36582 36.513 5.36582H34.2898C34.0489 5.36582 33.8179 5.46151 33.6476 5.63183C33.4773 5.80215 33.3816 6.03315 33.3816 6.27402C33.3816 6.5149 33.4773 6.7459 33.6476 6.91622C33.8179 7.08654 34.0489 7.18223 34.2898 7.18223ZM10.7851 46.9568C11.026 46.9568 11.257 46.8611 11.4273 46.6908C11.5977 46.5205 11.6933 46.2895 11.6933 46.0486V43.8254C11.6933 43.5846 11.5977 43.3536 11.4273 43.1832C11.257 43.0129 11.026 42.9172 10.7851 42.9172C10.5443 42.9172 10.3133 43.0129 10.1429 43.1832C9.97262 43.3536 9.87693 43.5846 9.87693 43.8254V46.0486C9.87693 46.2895 9.97262 46.5205 10.1429 46.6908C10.3133 46.8611 10.5443 46.9568 10.7851 46.9568ZM10.7851 53.7908C11.026 53.7908 11.257 53.6952 11.4273 53.5248C11.5977 53.3545 11.6933 53.1235 11.6933 52.8826V50.6595C11.6933 50.4186 11.5977 50.1876 11.4273 50.0173C11.257 49.847 11.026 49.7513 10.7851 49.7513C10.5443 49.7513 10.3133 49.847 10.1429 50.0173C9.97262 50.1876 9.87693 50.4186 9.87693 50.6595V52.8826C9.87693 53.1235 9.97262 53.3545 10.1429 53.5248C10.3133 53.6952 10.5443 53.7908 10.7851 53.7908ZM13.0906 49.2623H15.3138C15.5547 49.2623 15.7857 49.1666 15.956 48.9963C16.1263 48.826 16.222 48.595 16.222 48.3541C16.222 48.1132 16.1263 47.8822 15.956 47.7119C15.7857 47.5416 15.5547 47.4459 15.3138 47.4459H13.0906C12.8498 47.4459 12.6188 47.5416 12.4484 47.7119C12.2781 47.8822 12.1824 48.1132 12.1824 48.3541C12.1824 48.595 12.2781 48.826 12.4484 48.9963C12.6188 49.1666 12.8498 49.2623 13.0906 49.2623ZM6.25659 49.2623H8.47975C8.72062 49.2623 8.95163 49.1666 9.12195 48.9963C9.29227 48.826 9.38796 48.595 9.38796 48.3541C9.38796 48.1132 9.29227 47.8822 9.12195 47.7119C8.95163 47.5416 8.72062 47.4459 8.47975 47.4459H6.25659C6.01572 47.4459 5.78472 47.5416 5.6144 47.7119C5.44407 47.8822 5.34839 48.1132 5.34839 48.3541C5.34839 48.595 5.44407 48.826 5.6144 48.9963C5.78472 49.1666 6.01572 49.2623 6.25659 49.2623ZM61.2937 40.1587C61.4788 40.1587 61.6563 40.0852 61.7872 39.9543C61.918 39.8234 61.9916 39.6459 61.9916 39.4609V37.7526C61.9916 37.5675 61.918 37.39 61.7872 37.2591C61.6563 37.1282 61.4788 37.0547 61.2937 37.0547C61.1086 37.0547 60.9311 37.1282 60.8002 37.2591C60.6694 37.39 60.5958 37.5675 60.5958 37.7526V39.4609C60.5958 39.6459 60.6694 39.8234 60.8002 39.9543C60.9311 40.0852 61.1086 40.1587 61.2937 40.1587ZM61.2937 45.4101C61.4788 45.4101 61.6563 45.3365 61.7872 45.2057C61.918 45.0748 61.9916 44.8973 61.9916 44.7122V43.0039C61.9916 42.8189 61.918 42.6413 61.7872 42.5105C61.6563 42.3796 61.4788 42.3061 61.2937 42.3061C61.1086 42.3061 60.9311 42.3796 60.8002 42.5105C60.6694 42.6413 60.5958 42.8189 60.5958 43.0039V44.7122C60.5958 44.8039 60.6139 44.8946 60.6489 44.9793C60.684 45.064 60.7354 45.1409 60.8002 45.2057C60.865 45.2705 60.9419 45.3219 61.0266 45.357C61.1113 45.392 61.2021 45.4101 61.2937 45.4101ZM63.0653 41.9303H64.7736C64.9587 41.9303 65.1362 41.8568 65.267 41.7259C65.3979 41.595 65.4714 41.4175 65.4714 41.2325C65.4714 41.0474 65.3979 40.8699 65.267 40.739C65.1362 40.6081 64.9587 40.5346 64.7736 40.5346H63.0653C62.8802 40.5346 62.7027 40.6081 62.5718 40.739C62.441 40.8699 62.3674 41.0474 62.3674 41.2325C62.3674 41.4175 62.441 41.595 62.5718 41.7259C62.7027 41.8568 62.8802 41.9303 63.0653 41.9303ZM57.8138 41.9303H59.5221C59.7072 41.9303 59.8847 41.8568 60.0156 41.7259C60.1464 41.595 60.22 41.4175 60.22 41.2325C60.22 41.0474 60.1464 40.8699 60.0156 40.739C59.8847 40.6081 59.7072 40.5346 59.5221 40.5346H57.8138C57.6287 40.5346 57.4512 40.6081 57.3204 40.739C57.1895 40.8699 57.116 41.0474 57.116 41.2325C57.116 41.4175 57.1895 41.595 57.3204 41.7259C57.4512 41.8568 57.6287 41.9303 57.8138 41.9303Z" fill="#8D00EE"/>
<path d="M30.2727 2.4562C30.8195 2.4562 31.2628 2.01288 31.2628 1.46601C31.2628 0.919151 30.8195 0.47583 30.2727 0.47583C29.7258 0.47583 29.2825 0.919151 29.2825 1.46601C29.2825 2.01288 29.7258 2.4562 30.2727 2.4562Z" fill="#8D00EE"/>
<path d="M58.6033 47.7346C59.2141 47.7346 59.7092 47.2395 59.7092 46.6287C59.7092 46.0179 59.2141 45.5227 58.6033 45.5227C57.9925 45.5227 57.4973 46.0179 57.4973 46.6287C57.4973 47.2395 57.9925 47.7346 58.6033 47.7346Z" fill="#8D00EE"/>
<path d="M17.9211 55.5561C18.468 55.5561 18.9113 55.1127 18.9113 54.5659C18.9113 54.019 18.468 53.5757 17.9211 53.5757C17.3742 53.5757 16.9309 54.019 16.9309 54.5659C16.9309 55.1127 17.3742 55.5561 17.9211 55.5561Z" fill="#8D00EE"/>
</svg>
