<svg width="100" height="99" viewBox="0 0 100 99" fill="none" xmlns="http://www.w3.org/2000/svg">
<g clip-path="url(#clip0_10_108)">
<g clip-path="url(#clip1_10_108)">
<mask id="mask0_10_108" style="mask-type:luminance" maskUnits="userSpaceOnUse" x="26" y="21" width="48" height="48">
<path d="M73.5135 21H26.3435V68.17H73.5135V21Z" fill="white"/>
</mask>
<g mask="url(#mask0_10_108)">
<path d="M71.867 35.9164H27.99C31.4343 27.1766 39.9605 21 49.9285 21C59.8965 21 68.4227 27.1766 71.867 35.9164Z" fill="white"/>
<path d="M71.867 53.2537C68.4227 61.9935 59.8965 68.1701 49.9285 68.1701C39.9605 68.1701 31.4343 61.9935 27.99 53.2537H71.867Z" fill="#F30040"/>
<path d="M73.5135 44.5851C73.5135 47.6467 72.935 50.5748 71.867 53.2537H27.99C26.922 50.5748 26.3435 47.6467 26.3435 44.5851C26.3435 41.5235 26.922 38.5954 27.99 35.9165H71.867C72.935 38.5954 73.5135 41.5235 73.5135 44.5851Z" fill="#009F66"/>
</g>
<path d="M16.4925 6.52344V12.1211M16.4925 15.886V21.4836M18.3413 13.987H23.9392M8.97876 13.987H14.5766" stroke="#8D00EE" stroke-width="2.5"/>
<path d="M73.9389 75.6265V78.9759M73.9389 81.2287V84.5781M75.0451 80.0924H78.3947M69.4429 80.0924H72.7925" stroke="#8D00EE" stroke-width="1.5"/>
<path d="M82 44.8257C82 62.9548 50 92 50 92C50 92 18 62.9548 18 44.8257C18 26.6966 31.7746 12 50 12C68.2254 12 82 26.6966 82 44.8257Z" stroke="#8D00EE" stroke-width="2"/>
<path d="M39 89.429C30.694 90.0884 25 91.4399 25 93.0001C25 95.2092 36.4167 97.0001 50.5 97.0001C64.5833 97.0001 76 95.2092 76 93.0001C76 91.4399 70.306 90.0884 62 89.429" stroke="#8D00EE" stroke-width="2" stroke-linecap="round"/>
</g>
</g>
<defs>
<clipPath id="clip0_10_108">
<rect width="100" height="99" fill="white"/>
</clipPath>
<clipPath id="clip1_10_108">
<rect width="100" height="99" fill="white"/>
</clipPath>
</defs>
</svg>
