<svg width="100" height="99" viewBox="0 0 100 99" fill="none" xmlns="http://www.w3.org/2000/svg">
<g clip-path="url(#clip0_5_934)">
<g clip-path="url(#clip1_5_934)">
<mask id="mask0_5_934" style="mask-type:luminance" maskUnits="userSpaceOnUse" x="26" y="21" width="48" height="48">
<path d="M73.5135 21H26.3435V68.17H73.5135V21Z" fill="white"/>
</mask>
<g mask="url(#mask0_5_934)">
<path d="M36.6423 25.2039V31.4097H30.4365C32.0967 28.9771 34.2008 26.8641 36.6423 25.2039Z" fill="#1D1D1B"/>
<path d="M64.9283 26.4911H52.703V31.4097H42.3066V22.3715C44.6948 21.5459 47.2606 21.1021 49.9241 21.1021C50.8652 21.1021 51.7885 21.1553 52.703 21.2707C57.3196 21.8034 61.5279 23.6856 64.9283 26.4911ZM36.6423 36.8875V47.2839H26.4945C26.3879 46.4316 26.3435 45.5704 26.3435 44.6915C26.3435 41.957 26.8052 39.329 27.6664 36.8875H36.6423ZM72.1907 36.8875H52.703V31.4097H69.4207C70.5748 33.0965 71.507 34.9254 72.1907 36.8875ZM73.5135 44.6915C73.5135 45.5704 73.4691 46.4316 73.3626 47.2839H42.3066V36.8875H52.703V41.7971H73.3271C73.4514 42.7472 73.5135 43.7149 73.5135 44.6915ZM72.2883 52.1936C71.6402 54.1468 70.7346 55.9846 69.616 57.6713H30.2411C29.1224 55.9846 28.2168 54.1468 27.5687 52.1936H72.2883ZM65.2745 62.59C61.7998 65.5901 57.5155 67.4961 52.9604 68.0678H46.8966C42.3416 67.4961 38.0573 65.5901 34.5825 62.59H65.2745Z" fill="#14439E"/>
<path d="M73.3627 47.2839C73.1851 48.9796 72.8211 50.6221 72.2884 52.1935H27.5688C27.0294 50.602 26.6691 48.9553 26.4946 47.2839H36.6424V36.8875H27.6665C28.3501 34.9254 29.2823 33.0965 30.4365 31.4096H36.6424V25.2037C38.3825 24.0141 40.2824 23.0552 42.3067 22.3716V31.4096H52.7031V36.8875H42.3067V47.2839H73.3627Z" fill="white"/>
<path d="M36.6423 31.4097H30.4365C32.0967 28.9771 34.2008 26.8641 36.6423 25.2039V31.4097Z" fill="#14439E"/>
<path d="M69.616 57.6715C68.4094 59.5086 66.9476 61.1647 65.2745 62.5901H34.5825C32.9094 61.1647 31.4476 59.5086 30.241 57.6715H69.616ZM69.4206 31.4097H52.703V26.4912H64.9283C66.6506 27.9117 68.1688 29.572 69.4206 31.4097ZM73.3271 41.7973H52.703V36.8876H72.1907C72.7411 38.4502 73.1317 40.1015 73.3271 41.7973Z" fill="white"/>
</g>
<path d="M16.4925 6.52344V12.1211M16.4925 15.886V21.4836M18.3413 13.987H23.9392M8.97876 13.987H14.5766" stroke="#8D00EE" stroke-width="2.5"/>
<path d="M73.9389 75.6265V78.9759M73.9389 81.2287V84.5781M75.0451 80.0924H78.3947M69.4429 80.0924H72.7925" stroke="#8D00EE" stroke-width="1.5"/>
<path d="M82 44.8257C82 62.9548 50 92 50 92C50 92 18 62.9548 18 44.8257C18 26.6966 31.7746 12 50 12C68.2254 12 82 26.6966 82 44.8257Z" stroke="#8D00EE" stroke-width="2"/>
<path d="M39 89.429C30.694 90.0884 25 91.4399 25 93.0001C25 95.2092 36.4167 97.0001 50.5 97.0001C64.5833 97.0001 76 95.2092 76 93.0001C76 91.4399 70.306 90.0884 62 89.429" stroke="#8D00EE" stroke-width="2" stroke-linecap="round"/>
</g>
</g>
<defs>
<clipPath id="clip0_5_934">
<rect width="100" height="99" fill="white"/>
</clipPath>
<clipPath id="clip1_5_934">
<rect width="100" height="99" fill="white"/>
</clipPath>
</defs>
</svg>
