<svg width="100" height="99" viewBox="0 0 100 99" fill="none" xmlns="http://www.w3.org/2000/svg">
<g clip-path="url(#clip0_10_230)">
<g clip-path="url(#clip1_10_230)">
<mask id="mask0_10_230" style="mask-type:luminance" maskUnits="userSpaceOnUse" x="26" y="20" width="48" height="48">
<path d="M73.5135 20.4834H26.3435V67.6534H73.5135V20.4834Z" fill="white"/>
</mask>
<g mask="url(#mask0_10_230)">
<path d="M71.867 35.3998H27.99C31.4343 26.66 39.9605 20.4834 49.9285 20.4834C59.8965 20.4834 68.4227 26.66 71.867 35.3998Z" fill="#F30040"/>
<path d="M71.867 52.7371C68.4227 61.4769 59.8965 67.6535 49.9285 67.6535C39.9605 67.6535 31.4343 61.4769 27.99 52.7371H71.867Z" fill="#33734D"/>
<path d="M73.5135 44.0685C73.5135 47.1301 72.935 50.0582 71.867 52.7371H27.99C26.922 50.0582 26.3435 47.1301 26.3435 44.0685C26.3435 41.0069 26.922 38.0788 27.99 35.3999H71.867C72.935 38.0788 73.5135 41.0069 73.5135 44.0685Z" fill="white"/>
</g>
<path d="M16.4925 6.52344V12.1211M16.4925 15.886V21.4836M18.3413 13.987H23.9392M8.97876 13.987H14.5766" stroke="#8D00EE" stroke-width="2.5"/>
<path d="M73.9389 75.6265V78.9759M73.9389 81.2287V84.5781M75.0451 80.0924H78.3947M69.4429 80.0924H72.7925" stroke="#8D00EE" stroke-width="1.5"/>
<path d="M82 44.8257C82 62.9548 50 92 50 92C50 92 18 62.9548 18 44.8257C18 26.6966 31.7746 12 50 12C68.2254 12 82 26.6966 82 44.8257Z" stroke="#8D00EE" stroke-width="2"/>
<path d="M39 89.429C30.694 90.0884 25 91.4399 25 93.0001C25 95.2092 36.4167 97.0001 50.5 97.0001C64.5833 97.0001 76 95.2092 76 93.0001C76 91.4399 70.306 90.0884 62 89.429" stroke="#8D00EE" stroke-width="2" stroke-linecap="round"/>
</g>
</g>
<defs>
<clipPath id="clip0_10_230">
<rect width="100" height="99" fill="white"/>
</clipPath>
<clipPath id="clip1_10_230">
<rect width="100" height="99" fill="white"/>
</clipPath>
</defs>
</svg>
