<svg width="100" height="99" viewBox="0 0 100 99" fill="none" xmlns="http://www.w3.org/2000/svg">
<g clip-path="url(#clip0_10_1336)">
<g clip-path="url(#clip1_10_1336)">
<mask id="mask0_10_1336" style="mask-type:luminance" maskUnits="userSpaceOnUse" x="26" y="21" width="48" height="48">
<path d="M73.5135 21H26.3435V68.17H73.5135V21Z" fill="white"/>
</mask>
<g mask="url(#mask0_10_1336)">
<path d="M26.3435 44.6426H73.5135C73.4869 57.6379 62.9327 68.1654 49.9285 68.1654C36.9244 68.1654 26.3702 57.6379 26.3435 44.6426Z" fill="#F30040"/>
<path d="M26.3435 44.6427V44.5894C26.3435 31.5586 36.9066 21.0044 49.9285 21.0044C62.9504 21.0044 73.5135 31.5586 73.5135 44.5894V44.6427H26.3435Z" fill="white"/>
</g>
<path d="M16.4925 6.52344V12.1211M16.4925 15.886V21.4836M18.3413 13.987H23.9392M8.97876 13.987H14.5766" stroke="#8D00EE" stroke-width="2.5"/>
<path d="M73.9389 75.6265V78.9759M73.9389 81.2287V84.5781M75.0451 80.0924H78.3947M69.4429 80.0924H72.7925" stroke="#8D00EE" stroke-width="1.5"/>
<path d="M82 44.8257C82 62.9548 50 92 50 92C50 92 18 62.9548 18 44.8257C18 26.6966 31.7746 12 50 12C68.2254 12 82 26.6966 82 44.8257Z" stroke="#8D00EE" stroke-width="2"/>
<path d="M39 89.429C30.694 90.0884 25 91.4399 25 93.0001C25 95.2092 36.4167 97.0001 50.5 97.0001C64.5833 97.0001 76 95.2092 76 93.0001C76 91.4399 70.306 90.0884 62 89.429" stroke="#8D00EE" stroke-width="2" stroke-linecap="round"/>
</g>
</g>
<defs>
<clipPath id="clip0_10_1336">
<rect width="100" height="99" fill="white"/>
</clipPath>
<clipPath id="clip1_10_1336">
<rect width="100" height="99" fill="white"/>
</clipPath>
</defs>
</svg>
