<svg width="100" height="99" viewBox="0 0 100 99" fill="none" xmlns="http://www.w3.org/2000/svg">
<g clip-path="url(#clip0_10_353)">
<mask id="mask0_10_353" style="mask-type:luminance" maskUnits="userSpaceOnUse" x="26" y="21" width="48" height="48">
<path d="M73.5135 21H26.3435V68.17H73.5135V21Z" fill="white"/>
</mask>
<g mask="url(#mask0_10_353)">
<path d="M36.8347 44.7186C36.8347 49.7993 40.9705 53.9351 46.0601 53.9351V67.849C34.8737 66.0039 26.3435 56.2883 26.3435 44.5849C26.3435 32.8815 34.8737 23.1659 46.0601 21.3208V35.5021C40.9705 35.5021 36.8347 39.6379 36.8347 44.7186Z" fill="#33734D"/>
<path d="M73.5135 44.585C73.5135 57.6076 62.9511 68.17 49.9285 68.17C48.6093 68.17 47.3169 68.063 46.0601 67.8491V53.9352C51.1318 53.9352 55.2677 49.7994 55.2677 44.7187C55.2677 39.638 51.1318 35.5022 46.0601 35.5022V21.3209C47.3169 21.107 48.6093 21 49.9285 21C62.9511 21 73.5135 31.5624 73.5135 44.585Z" fill="#FB000D"/>
<path d="M46.0601 35.5022C40.9705 35.5022 36.8347 39.638 36.8347 44.7187C36.8347 49.7994 40.9705 53.9352 46.0601 53.9352C51.1497 53.9352 55.2677 49.7994 55.2677 44.7187C55.2677 39.638 51.1319 35.5022 46.0601 35.5022ZM48.8768 45.6546C48.8768 47.2145 46.0601 48.4713 46.0601 48.4713C46.0601 48.4713 43.2256 47.2145 43.2256 45.6546V40.9661H48.8768V45.6546Z" fill="#FFB500"/>
<path d="M48.8767 40.9661V45.6545C48.8767 47.2144 46.0601 48.4712 46.0601 48.4712C46.0601 48.4712 43.2256 47.2144 43.2256 45.6545V40.9661H48.8767Z" fill="#FB000D"/>
</g>
<path d="M16.4925 6.52344V12.1211M16.4925 15.886V21.4836M18.3413 13.987H23.9392M8.97876 13.987H14.5766" stroke="#8D00EE" stroke-width="2.5"/>
<path d="M73.9389 75.6265V78.9759M73.9389 81.2287V84.5781M75.0451 80.0924H78.3947M69.4429 80.0924H72.7925" stroke="#8D00EE" stroke-width="1.5"/>
<path d="M82 44.8257C82 62.9548 50 92 50 92C50 92 18 62.9548 18 44.8257C18 26.6966 31.7746 12 50 12C68.2254 12 82 26.6966 82 44.8257Z" stroke="#8D00EE" stroke-width="2"/>
<path d="M39 89.429C30.694 90.0884 25 91.4399 25 93.0001C25 95.2092 36.4167 97.0001 50.5 97.0001C64.5833 97.0001 76 95.2092 76 93.0001C76 91.4399 70.306 90.0884 62 89.429" stroke="#8D00EE" stroke-width="2" stroke-linecap="round"/>
</g>
<defs>
<clipPath id="clip0_10_353">
<rect width="100" height="99" fill="white"/>
</clipPath>
</defs>
</svg>
