<svg width="100" height="99" viewBox="0 0 100 99" fill="none" xmlns="http://www.w3.org/2000/svg">
<g clip-path="url(#clip0_10_848)">
<g clip-path="url(#clip1_10_848)">
<mask id="mask0_10_848" style="mask-type:luminance" maskUnits="userSpaceOnUse" x="26" y="20" width="48" height="48">
<path d="M73.5135 20.4834H26.3435V67.6534H73.5135V20.4834Z" fill="white"/>
</mask>
<g mask="url(#mask0_10_848)">
<path d="M38.7768 23.2869V64.8499C31.372 60.8805 26.3435 53.0663 26.3435 44.0684C26.3435 35.0705 31.372 27.2563 38.7768 23.2869Z" fill="#14439E"/>
<path d="M61.0803 23.2869V64.8499C57.7606 66.6388 53.9603 67.6534 49.9286 67.6534C45.8969 67.6534 42.0966 66.6388 38.7769 64.8499V23.2869C42.0966 21.498 45.8969 20.4834 49.9286 20.4834C53.9603 20.4834 57.7606 21.498 61.0803 23.2869Z" fill="#FFDD00"/>
<path d="M73.5136 44.0684C73.5136 53.0663 68.4851 60.8805 61.0803 64.8499V23.2869C68.4851 27.2563 73.5136 35.0705 73.5136 44.0684Z" fill="#F30040"/>
</g>
<path d="M16.4925 6.52344V12.1211M16.4925 15.886V21.4836M18.3413 13.987H23.9392M8.97876 13.987H14.5766" stroke="#8D00EE" stroke-width="2.5"/>
<path d="M73.9389 75.6265V78.9759M73.9389 81.2287V84.5781M75.0451 80.0924H78.3947M69.4429 80.0924H72.7925" stroke="#8D00EE" stroke-width="1.5"/>
<path d="M82 44.8257C82 62.9548 50 92 50 92C50 92 18 62.9548 18 44.8257C18 26.6966 31.7746 12 50 12C68.2254 12 82 26.6966 82 44.8257Z" stroke="#8D00EE" stroke-width="2"/>
<path d="M39 89.429C30.694 90.0884 25 91.4399 25 93.0001C25 95.2092 36.4167 97.0001 50.5 97.0001C64.5833 97.0001 76 95.2092 76 93.0001C76 91.4399 70.306 90.0884 62 89.429" stroke="#8D00EE" stroke-width="2" stroke-linecap="round"/>
</g>
</g>
<defs>
<clipPath id="clip0_10_848">
<rect width="100" height="99" fill="white"/>
</clipPath>
<clipPath id="clip1_10_848">
<rect width="100" height="99" fill="white"/>
</clipPath>
</defs>
</svg>
