<svg width="100" height="99" viewBox="0 0 100 99" fill="none" xmlns="http://www.w3.org/2000/svg">
<g clip-path="url(#clip0_10_1214)">
<g clip-path="url(#clip1_10_1214)">
<mask id="mask0_10_1214" style="mask-type:luminance" maskUnits="userSpaceOnUse" x="26" y="21" width="48" height="48">
<path d="M73.5135 21H26.3435V68.17H73.5135V21Z" fill="white"/>
</mask>
<g mask="url(#mask0_10_1214)">
<path d="M49.9285 21C39.9605 21 31.4343 27.1766 27.99 35.9164H33.5258V43.0097C33.5258 46.1959 39.293 48.7858 39.293 48.7858C39.293 48.7858 45.0602 46.1959 45.0602 43.0097V35.9164H71.867C68.4227 27.1766 59.8965 21 49.9285 21ZM43.7697 42.4757C43.7697 44.941 39.293 46.9435 39.293 46.9435C39.293 46.9435 34.8252 44.941 34.8252 42.4757V34.2877H43.7697V42.4757Z" fill="white"/>
<path d="M71.867 53.2537C68.4227 61.9935 59.8965 68.1701 49.9285 68.1701C39.9605 68.1701 31.4343 61.9935 27.99 53.2537H71.867Z" fill="#F30040"/>
<path d="M73.5135 44.5851C73.5135 47.6467 72.935 50.5748 71.867 53.2537H27.99C26.922 50.5748 26.3435 47.6467 26.3435 44.5851C26.3435 41.5235 26.922 38.5954 27.99 35.9165H33.5258V43.0098C33.5258 46.196 39.293 48.7859 39.293 48.7859C39.293 48.7859 45.0602 46.196 45.0602 43.0098V35.9165H71.867C72.935 38.5954 73.5135 41.5235 73.5135 44.5851Z" fill="#14439E"/>
<path d="M43.7697 34.2876V41.1762C43.4481 40.8471 43.0424 40.6126 42.5967 40.498C42.1511 40.3835 41.6826 40.3933 41.2421 40.5265C40.895 40.1082 40.4322 39.7967 39.8893 39.6721C39.7024 39.6276 39.5066 39.6009 39.3019 39.6009C39.0972 39.6009 38.9014 39.6276 38.7145 39.6721C38.1716 39.7967 37.6999 40.1082 37.3617 40.5265C37.1214 40.4553 36.8722 40.4197 36.6141 40.4197C35.9199 40.4197 35.2791 40.7134 34.8252 41.1762V34.2876H43.7697Z" fill="#F30040"/>
<path d="M43.7697 41.1764V42.4758C43.7697 43.5883 42.853 44.6118 41.8473 45.395C40.6369 46.3473 39.293 46.9436 39.293 46.9436C39.293 46.9436 37.958 46.3473 36.7476 45.4039C35.7419 44.6207 34.8252 43.5883 34.8252 42.4758V41.1764C35.2791 40.7136 35.9199 40.4199 36.6141 40.4199C36.8722 40.4199 37.1214 40.4555 37.3617 40.5267C37.6999 40.1084 38.1716 39.7969 38.7145 39.6723C38.9014 39.6278 39.0972 39.6011 39.3019 39.6011C39.5066 39.6011 39.7024 39.6278 39.8893 39.6723C40.4322 39.7969 40.895 40.1084 41.2421 40.5267C41.6826 40.3935 42.1511 40.3836 42.5967 40.4982C43.0424 40.6127 43.4481 40.8473 43.7697 41.1764Z" fill="#14439E"/>
<path d="M42.3012 37.1447V38.3195H39.8893V39.6723C39.7024 39.6278 39.5066 39.6011 39.3019 39.6011C39.0972 39.6011 38.9014 39.6278 38.7145 39.6723V38.3195H36.2937V37.1447H38.7145V36.4772H36.9345V35.2935H38.7145V34.7239H39.8893V35.2935H41.6604V36.4772H39.8893V37.1447H42.3012Z" fill="white"/>
</g>
<path d="M16.4925 6.52344V12.1211M16.4925 15.886V21.4836M18.3413 13.987H23.9392M8.97876 13.987H14.5766" stroke="#8D00EE" stroke-width="2.5"/>
<path d="M73.9389 75.6265V78.9759M73.9389 81.2287V84.5781M75.0451 80.0924H78.3947M69.4429 80.0924H72.7925" stroke="#8D00EE" stroke-width="1.5"/>
<path d="M82 44.8257C82 62.9548 50 92 50 92C50 92 18 62.9548 18 44.8257C18 26.6966 31.7746 12 50 12C68.2254 12 82 26.6966 82 44.8257Z" stroke="#8D00EE" stroke-width="2"/>
<path d="M39 89.429C30.694 90.0884 25 91.4399 25 93.0001C25 95.2092 36.4167 97.0001 50.5 97.0001C64.5833 97.0001 76 95.2092 76 93.0001C76 91.4399 70.306 90.0884 62 89.429" stroke="#8D00EE" stroke-width="2" stroke-linecap="round"/>
</g>
</g>
<defs>
<clipPath id="clip0_10_1214">
<rect width="100" height="99" fill="white"/>
</clipPath>
<clipPath id="clip1_10_1214">
<rect width="100" height="99" fill="white"/>
</clipPath>
</defs>
</svg>
