<svg width="100" height="99" viewBox="0 0 100 99" fill="none" xmlns="http://www.w3.org/2000/svg">
<g clip-path="url(#clip0_10_597)">
<mask id="mask0_10_597" style="mask-type:luminance" maskUnits="userSpaceOnUse" x="26" y="21" width="48" height="48">
<path d="M73.5135 21H26.3435V68.17H73.5135V21Z" fill="white"/>
</mask>
<g mask="url(#mask0_10_597)">
<path d="M70.7102 33.4333H29.1472C33.1166 26.0285 40.9308 21 49.9287 21C58.9266 21 66.7408 26.0285 70.7102 33.4333Z" fill="#F30040"/>
<path d="M70.71 55.7367H29.147C27.3581 52.417 26.3435 48.6167 26.3435 44.585C26.3435 40.5533 27.3581 36.753 29.147 33.4333H70.71C72.4989 36.753 73.5135 40.5533 73.5135 44.585C73.5135 48.6167 72.4989 52.417 70.71 55.7367Z" fill="#FFDD00"/>
<path d="M49.9287 68.17C40.9308 68.17 33.1166 63.1415 29.1472 55.7367H70.7102C66.7408 63.1415 58.9266 68.17 49.9287 68.17ZM45.4609 38.2571V46.4451C45.4609 47.5576 44.5442 48.5811 43.5385 49.3643C42.7513 49.9726 41.8973 50.4892 40.9931 50.904H40.9842C40.9842 50.904 40.9753 50.9129 40.9664 50.904C40.8151 50.8328 39.5691 50.2543 38.4388 49.3732C37.4331 48.59 36.5164 47.5576 36.5164 46.4451V38.2571H45.4609Z" fill="#F30040"/>
<path d="M40.9931 38.2571H45.4698V44.585H40.9931V38.2571ZM40.9931 44.585V50.904H40.9664C40.8151 50.8328 39.5691 50.2543 38.4388 49.3732C37.4331 48.59 36.5164 47.5576 36.5164 46.4451V44.585H40.9931Z" fill="#FFB500"/>
</g>
<path d="M16.4925 6.52344V12.1211M16.4925 15.886V21.4836M18.3413 13.987H23.9392M8.97876 13.987H14.5766" stroke="#8D00EE" stroke-width="2.5"/>
<path d="M73.9389 75.6265V78.9759M73.9389 81.2287V84.5781M75.0451 80.0924H78.3947M69.4429 80.0924H72.7925" stroke="#8D00EE" stroke-width="1.5"/>
<path d="M82 44.8257C82 62.9548 50 92 50 92C50 92 18 62.9548 18 44.8257C18 26.6966 31.7746 12 50 12C68.2254 12 82 26.6966 82 44.8257Z" stroke="#8D00EE" stroke-width="2"/>
<path d="M39 89.429C30.694 90.0884 25 91.4399 25 93.0001C25 95.2092 36.4167 97.0001 50.5 97.0001C64.5833 97.0001 76 95.2092 76 93.0001C76 91.4399 70.306 90.0884 62 89.429" stroke="#8D00EE" stroke-width="2" stroke-linecap="round"/>
</g>
<defs>
<clipPath id="clip0_10_597">
<rect width="100" height="99" fill="white"/>
</clipPath>
</defs>
</svg>
