<svg width="100" height="99" viewBox="0 0 100 99" fill="none" xmlns="http://www.w3.org/2000/svg">
<path d="M16.4925 6.52344V12.1211M16.4925 15.886V21.4836M18.3413 13.987H23.9392M8.97876 13.987H14.5766" stroke="#8D00EE" stroke-width="2.5"/>
<path d="M73.9389 75.6265V78.9759M73.9389 81.2287V84.5781M75.0451 80.0924H78.3947M69.4429 80.0924H72.7925" stroke="#8D00EE" stroke-width="1.5"/>
<path d="M82 44.8257C82 62.9548 50 92 50 92C50 92 18 62.9548 18 44.8257C18 26.6966 31.7746 12 50 12C68.2254 12 82 26.6966 82 44.8257Z" stroke="#8D00EE" stroke-width="2"/>
<path d="M39 89.429C30.694 90.0884 25 91.4399 25 93.0001C25 95.2092 36.4167 97.0001 50.5 97.0001C64.5833 97.0001 76 95.2092 76 93.0001C76 91.4399 70.306 90.0884 62 89.429" stroke="#8D00EE" stroke-width="2" stroke-linecap="round"/>
<mask id="mask0_10_720" style="mask-type:luminance" maskUnits="userSpaceOnUse" x="26" y="21" width="48" height="48">
<path d="M73.4397 21.6562H26.26V68.8359H73.4397V21.6562Z" fill="white"/>
</mask>
<g mask="url(#mask0_10_720)">
<path d="M73.4397 45.1886H26.26C26.2867 32.1906 36.8431 21.6609 49.8499 21.6609C62.8567 21.6609 73.4131 32.1906 73.4397 45.1886Z" fill="#14439E"/>
<path d="M73.4397 45.1885V45.2417C73.4397 58.2752 62.8745 68.8316 49.8499 68.8316C36.8253 68.8316 26.26 58.2752 26.26 45.2417V45.1885H73.4397Z" fill="#FFDD00"/>
</g>
</svg>
