<svg width="46" height="46" viewBox="0 0 46 46" fill="none" xmlns="http://www.w3.org/2000/svg">
<g clip-path="url(#clip0_46_7844)">
<g clip-path="url(#clip1_46_7844)">
<path d="M39.2635 6.73664C33.4211 0.894272 24.9896 -1.41804 16.5564 0.87172C15.0898 1.26972 13.6749 1.83833 12.3407 2.56591C-4.09926 11.5356 -4.09926 34.4645 12.3407 43.4341C13.6749 44.1617 15.0898 44.7303 16.5564 45.1284C24.9896 47.418 33.4211 45.1058 39.2635 39.2634C48.2311 30.2957 48.2311 15.7044 39.2635 6.73664ZM38.1003 7.89976C46.2318 16.0313 46.4204 29.142 38.6695 37.5066L33.2303 32.0673V7.08766H12.7697V11.6065L8.49327 7.33024C12.452 3.6585 17.5709 1.64501 23 1.64501C28.7041 1.64501 34.0668 3.86631 38.1003 7.89976ZM31.5854 12.7916H14.4145V8.73271H31.5853V12.7917L31.5854 12.7916ZM14.4145 15.5778L30.6304 31.7937H14.4145V15.5778ZM14.4145 33.4385H31.5854V37.2674H14.4145V33.4385ZM15.5996 14.4365H31.5854V30.4223L15.5996 14.4365ZM7.89958 38.1003C-0.231928 29.9688 -0.4206 16.8581 7.33033 8.49363L12.7697 13.9329V38.9124H33.2303V34.3935L37.5066 38.67C33.5477 42.3415 28.4288 44.3552 22.9998 44.3552C17.2958 44.3551 11.9331 42.1337 7.89958 38.1003Z" fill="#F30040"/>
<path d="M24.5874 9.93896H21.3643L21.353 11.5824L24.596 11.5806L24.5874 9.93896ZM22.9997 34.6359C23.2178 34.6359 23.427 34.7226 23.5813 34.8768C23.7355 35.0311 23.8222 35.2403 23.8222 35.4584C23.8222 35.6766 23.7355 35.8858 23.5813 36.04C23.427 36.1943 23.2178 36.2809 22.9997 36.2809C22.7815 36.2809 22.5723 36.1943 22.4181 36.04C22.2638 35.8858 22.1772 35.6766 22.1772 35.4584C22.1772 35.2403 22.2638 35.0311 22.4181 34.8768C22.5723 34.7226 22.7815 34.6359 22.9997 34.6359Z" fill="#F30040"/>
</g>
</g>
<defs>
<clipPath id="clip0_46_7844">
<rect width="46" height="46" fill="white"/>
</clipPath>
<clipPath id="clip1_46_7844">
<rect width="46" height="46" fill="white"/>
</clipPath>
</defs>
</svg>
