<svg width="66" height="61" viewBox="0 0 66 61" fill="none" xmlns="http://www.w3.org/2000/svg">
<g clip-path="url(#clip0_5_1682)">
<path d="M60.4993 18.7581H41.2917L38.4162 9.97674C38.3478 9.76797 38.2152 9.58614 38.0373 9.45722C37.8594 9.3283 37.6453 9.25888 37.4257 9.25888L26.8175 9.25923L26.8159 11.345L36.6703 11.3432L48.9168 48.7417H19.2342C17.6811 48.7417 16.4176 47.478 16.4176 45.9249V14.1598C16.4176 12.6068 17.6811 11.3431 19.2342 11.3431L21.1845 11.3448V9.25586L19.2342 9.2587C16.5317 9.2587 14.3333 11.4572 14.3333 14.1598V45.9248C14.3333 48.6272 16.5319 50.8259 19.2342 50.8259H38.3958L41.3192 59.6126C41.3883 59.8202 41.5209 60.0009 41.6984 60.1289C41.8759 60.2569 42.0891 60.3258 42.308 60.3258H60.4989C63.2014 60.3258 65.4 58.1272 65.4 55.4247V23.6592C65.4002 20.9568 63.2015 18.7581 60.4993 18.7581ZM46.0643 33.3333H46.8896C47.2506 34.2255 47.9985 35.866 49.2881 37.838C49.7928 38.6088 50.3322 39.3563 50.9045 40.0782C50.2802 40.7818 49.6226 41.4551 48.9338 42.0957L46.0643 33.3333ZM49.1617 33.3333H55.362C54.8166 34.521 53.8353 36.3721 52.2621 38.4298C51.8466 37.8885 51.4506 37.3323 51.0751 36.7625C50.1748 35.3939 49.5554 34.1916 49.1617 33.3333ZM40.5927 50.8261H48.1059L42.7116 57.1945L40.5927 50.8261ZM60.4993 58.2413H44.5563L51.1321 50.4781C51.262 50.3335 51.3488 50.1554 51.3827 49.9639C51.4165 49.7725 51.3962 49.5754 51.3238 49.395L49.6431 44.2626C50.5667 43.455 51.4427 42.5945 52.2666 41.6854C54.3001 43.9317 56.6445 45.8755 59.2284 47.458C59.3451 47.5295 59.4748 47.5773 59.61 47.5987C59.7452 47.6202 59.8833 47.6147 60.0164 47.5827C60.1495 47.5507 60.275 47.4928 60.3857 47.4123C60.4963 47.3317 60.5901 47.2302 60.6615 47.1134C60.733 46.9967 60.7807 46.867 60.8021 46.7318C60.8235 46.5966 60.818 46.4585 60.786 46.3255C60.7539 46.1924 60.696 46.0669 60.6155 45.9562C60.535 45.8455 60.4335 45.7518 60.3168 45.6803C57.8231 44.1529 55.5685 42.2657 53.626 40.0798C55.9398 37.1534 57.1453 34.5514 57.6358 33.3333H60.7105C60.9869 33.3333 61.252 33.2235 61.4474 33.028C61.6429 32.8326 61.7527 32.5675 61.7527 32.2911C61.7527 32.0147 61.6429 31.7496 61.4474 31.5542C61.252 31.3587 60.9869 31.2489 60.7105 31.2489H53.2394V29.4772C53.2394 29.2008 53.1296 28.9357 52.9341 28.7403C52.7387 28.5448 52.4736 28.435 52.1972 28.435C51.9208 28.435 51.6557 28.5448 51.4602 28.7403C51.2648 28.9357 51.155 29.2008 51.155 29.4772V31.2489H45.3818L41.9741 20.8425H60.4991C62.0521 20.8425 63.3157 22.1062 63.3157 23.6592V55.4247C63.3157 56.9778 62.0523 58.2413 60.4993 58.2413Z" fill="white"/>
<path d="M29.0037 37.8281C33.237 37.8281 36.6811 34.384 36.6811 30.1506C36.6812 30.0138 36.6542 29.8782 36.6018 29.7518C36.5495 29.6253 36.4727 29.5104 36.3759 29.4137C36.2792 29.3169 36.1643 29.2401 36.0378 29.1877C35.9114 29.1354 35.7758 29.1084 35.639 29.1085H29.7342C29.1585 29.1085 28.692 29.575 28.692 30.1506C28.692 30.7263 29.1585 31.1928 29.7342 31.1928H34.4995C34.0097 33.7804 31.7317 35.7437 29.0039 35.7437C25.9198 35.7437 23.4108 33.2346 23.4108 30.1506C23.4108 27.0667 25.92 24.5576 29.0039 24.5576C30.3321 24.5576 31.617 25.0302 32.6287 25.8909C32.8391 26.0701 33.1121 26.1584 33.3876 26.1364C33.524 26.1255 33.6569 26.0878 33.7788 26.0255C33.9006 25.9632 34.009 25.8775 34.0978 25.7734C34.1865 25.6692 34.2539 25.5485 34.296 25.4183C34.3381 25.2881 34.3542 25.1509 34.3433 25.0145C34.3324 24.8781 34.2947 24.7451 34.2324 24.6233C34.1701 24.5014 34.0845 24.393 33.9803 24.3043C32.5915 23.1225 30.8275 22.4734 29.0039 22.4732C24.7706 22.4732 21.3265 25.9173 21.3265 30.1506C21.3263 34.384 24.7702 37.8281 29.0037 37.8281ZM35.4792 44.3087L32.9358 44.3119C32.9358 44.3119 32.9342 44.7771 32.9342 45.3528C32.9342 45.9285 32.9326 46.3969 32.9326 46.3969H35.4888C35.4936 46.4053 35.4852 45.9285 35.4852 45.3528C35.4852 44.7771 35.4792 44.3087 35.4792 44.3087ZM30.6049 44.3106L19.4709 44.3053V46.3936L30.6049 46.3952V44.3106ZM60.28 4.7085C60.5334 4.7085 60.7765 4.60782 60.9557 4.42862C61.1349 4.24942 61.2355 4.00638 61.2355 3.75295V1.41405C61.2355 1.28856 61.2108 1.1643 61.1628 1.04837C61.1148 0.93244 61.0444 0.827101 60.9557 0.73837C60.8669 0.649639 60.7616 0.579254 60.6457 0.531233C60.5297 0.483212 60.4055 0.458496 60.28 0.458496C60.1545 0.458496 60.0302 0.483212 59.9143 0.531233C59.7984 0.579254 59.693 0.649639 59.6043 0.73837C59.5156 0.827101 59.4452 0.93244 59.3972 1.04837C59.3491 1.1643 59.3244 1.28856 59.3244 1.41405V3.75295C59.3244 4.00638 59.4251 4.24942 59.6043 4.42862C59.7835 4.60782 60.0266 4.7085 60.28 4.7085ZM60.28 11.8985C60.5334 11.8985 60.7765 11.7978 60.9557 11.6186C61.1349 11.4394 61.2355 11.1963 61.2355 10.9429V8.60401C61.2355 8.47852 61.2108 8.35427 61.1628 8.23833C61.1148 8.1224 61.0444 8.01706 60.9557 7.92833C60.8669 7.8396 60.7616 7.76922 60.6457 7.7212C60.5297 7.67317 60.4055 7.64846 60.28 7.64846C60.1545 7.64846 60.0302 7.67317 59.9143 7.7212C59.7984 7.76922 59.693 7.8396 59.6043 7.92833C59.5156 8.01706 59.4452 8.1224 59.3972 8.23833C59.3491 8.35427 59.3244 8.47852 59.3244 8.60401V10.9429C59.3244 11.1963 59.4251 11.4394 59.6043 11.6186C59.7835 11.7978 60.0266 11.8985 60.28 11.8985ZM62.7057 7.13403H65.0446C65.298 7.13403 65.5411 7.03335 65.7203 6.85415C65.8995 6.67495 66.0001 6.43191 66.0001 6.17848C66.0001 5.92505 65.8995 5.682 65.7203 5.5028C65.5411 5.3236 65.298 5.22293 65.0446 5.22293H62.7057C62.4523 5.22293 62.2092 5.3236 62.03 5.5028C61.8508 5.682 61.7501 5.92505 61.7501 6.17848C61.7501 6.43191 61.8508 6.67495 62.03 6.85415C62.2092 7.03335 62.4523 7.13403 62.7057 7.13403ZM55.5155 7.13403H57.8545C58.1079 7.13403 58.3509 7.03335 58.5301 6.85415C58.7093 6.67495 58.81 6.43191 58.81 6.17848C58.81 5.92505 58.7093 5.682 58.5301 5.5028C58.3509 5.3236 58.1079 5.22293 57.8545 5.22293H55.5155C55.2621 5.22293 55.0191 5.3236 54.8399 5.5028C54.6607 5.682 54.56 5.92505 54.56 6.17848C54.56 6.43191 54.6607 6.67495 54.8399 6.85415C55.0191 7.03335 55.2621 7.13403 55.5155 7.13403Z" fill="white"/>
<path d="M51.2894 2.16177C51.8648 2.16177 52.3312 1.69533 52.3312 1.11995C52.3312 0.544564 51.8648 0.078125 51.2894 0.078125C50.714 0.078125 50.2476 0.544564 50.2476 1.11995C50.2476 1.69533 50.714 2.16177 51.2894 2.16177Z" fill="white"/>
<path d="M6.24417 51.0457C6.52081 51.0457 6.78612 50.9358 6.98173 50.7402C7.17734 50.5446 7.28724 50.2793 7.28724 50.0027V47.4493C7.28724 47.1727 7.17734 46.9074 6.98173 46.7118C6.78612 46.5161 6.52081 46.4062 6.24417 46.4062C5.96753 46.4062 5.70222 46.5161 5.50661 46.7118C5.311 46.9074 5.20111 47.1727 5.20111 47.4493V50.0027C5.20111 50.2793 5.311 50.5446 5.50661 50.7402C5.70222 50.9358 5.96753 51.0457 6.24417 51.0457ZM6.24417 58.8946C6.52081 58.8946 6.78612 58.7847 6.98173 58.5891C7.17734 58.3935 7.28724 58.1282 7.28724 57.8515V55.2982C7.28724 55.0216 7.17734 54.7563 6.98173 54.5606C6.78612 54.365 6.52081 54.2551 6.24417 54.2551C5.96753 54.2551 5.70222 54.365 5.50661 54.5606C5.311 54.7563 5.20111 55.0216 5.20111 55.2982V57.8515C5.20111 58.1282 5.311 58.3935 5.50661 58.5891C5.70222 58.7847 5.96753 58.8946 6.24417 58.8946ZM8.89195 53.6937H11.4453C11.7219 53.6937 11.9872 53.5838 12.1828 53.3882C12.3785 53.1926 12.4884 52.9272 12.4884 52.6506C12.4884 52.374 12.3785 52.1087 12.1828 51.913C11.9872 51.7174 11.7219 51.6075 11.4453 51.6075H8.89195C8.61531 51.6075 8.35 51.7174 8.15439 51.913C7.95878 52.1087 7.84889 52.374 7.84889 52.6506C7.84889 52.9272 7.95878 53.1926 8.15439 53.3882C8.35 53.5838 8.61531 53.6937 8.89195 53.6937ZM1.04306 53.6937H3.5964C3.87304 53.6937 4.13834 53.5838 4.33395 53.3882C4.52956 53.1926 4.63946 52.9272 4.63946 52.6506C4.63946 52.374 4.52956 52.1087 4.33395 51.913C4.13834 51.7174 3.87304 51.6075 3.5964 51.6075H1.04306C0.766421 51.6075 0.501113 51.7174 0.3055 51.913C0.109888 52.1087 0 52.374 0 52.6506C0 52.9272 0.109888 53.1926 0.3055 53.3882C0.501113 53.5838 0.766421 53.6937 1.04306 53.6937Z" fill="white"/>
<path d="M14.4398 60.9216C15.0679 60.9216 15.5771 60.4124 15.5771 59.7843C15.5771 59.1562 15.0679 58.647 14.4398 58.647C13.8117 58.647 13.3025 59.1562 13.3025 59.7843C13.3025 60.4124 13.8117 60.9216 14.4398 60.9216Z" fill="white"/>
</g>
<defs>
<clipPath id="clip0_5_1682">
<rect width="66" height="61" fill="white"/>
</clipPath>
</defs>
</svg>
