<svg width="70" height="60" viewBox="0 0 70 60" fill="none" xmlns="http://www.w3.org/2000/svg">
<g clip-path="url(#clip0_5_1694)">
<path d="M18.399 53.6916C19.0704 53.6916 19.6147 53.1474 19.6147 52.4759C19.6147 51.8045 19.0704 51.2603 18.399 51.2603C17.7276 51.2603 17.1833 51.8045 17.1833 52.4759C17.1833 53.1474 17.7276 53.6916 18.399 53.6916Z" fill="white"/>
<path d="M53.8658 43.2499C54.1859 42.7396 54.3555 42.1493 54.3549 41.5469V41.0083C54.3549 39.2332 52.911 37.7894 51.136 37.7894H41.128C40.9106 37.7894 40.6982 37.8112 40.4928 37.8527L42.2901 28.7957C42.5537 27.4675 42.5836 26.1619 42.379 24.915C42.0389 22.8421 40.944 20.3713 37.6591 20.3713C37.4322 20.3713 37.2126 20.4516 37.0393 20.598C36.8659 20.7444 36.75 20.9473 36.712 21.171L36.0815 24.881C35.8323 26.3467 35.4905 27.7428 35.0658 29.0307C33.8896 32.597 32.4055 34.4251 29.7726 35.5512C28.8674 35.9383 27.9663 36.3351 27.0696 36.7415H23.1066V35.9735C23.1066 35.8473 23.0818 35.7224 23.0336 35.6058C22.9853 35.4893 22.9145 35.3833 22.8253 35.2941C22.7361 35.2049 22.6302 35.1341 22.5136 35.0859C22.397 35.0376 22.2721 35.0128 22.1459 35.0128L13.7007 35.0069L13.7823 57.4742L22.1462 57.4753C22.2724 57.4754 22.3973 57.4505 22.5139 57.4023C22.6304 57.354 22.7363 57.2832 22.8256 57.194C22.9148 57.1048 22.9855 56.9989 23.0338 56.8823C23.0821 56.7658 23.1069 56.6408 23.1069 56.5146V56.0644H26.9383L29.0028 57.7357C30.7359 59.1389 32.9185 59.9116 35.1485 59.9116H41.0015C41.0083 59.9116 41.0148 59.9107 41.0215 59.9105C41.145 59.9237 41.2701 59.931 41.3971 59.931H48.2599C50.1834 59.931 51.7482 58.3662 51.7482 56.4428C51.7482 55.8655 51.6064 55.3209 51.357 54.8407C53.049 54.6015 54.3547 53.1446 54.3547 51.3877C54.3553 50.7032 54.1534 50.0339 53.7745 49.4639C54.8117 48.9288 55.5229 47.8471 55.5229 46.6018V46.0632C55.5232 44.8548 54.8533 43.8003 53.8658 43.2499ZM41.1279 39.7111H51.1359C51.8513 39.7111 52.4334 40.293 52.4334 41.0085V41.5472C52.4334 42.2626 51.8514 42.8447 51.1359 42.8447H41.1279C40.4125 42.8447 39.8303 42.2627 39.8303 41.5472V41.0308C39.8931 40.7975 39.9479 40.5787 39.9948 40.3782C40.2168 39.9807 40.6413 39.7111 41.1279 39.7111ZM37.9088 56.4432C37.9088 56.9986 38.0401 57.5238 38.272 57.9905H35.1484C33.3517 57.9882 31.6097 57.3714 30.212 56.2424L27.8829 54.3569C27.7119 54.2184 27.4985 54.1428 27.2784 54.1429H23.1067V51.3879H21.1852V55.5538H15.6425V36.9343H21.1852V48.1855H23.1067V38.663H27.2784C27.417 38.663 27.5539 38.633 27.6798 38.5751C27.692 38.5696 28.9115 38.0093 30.5281 37.3178C33.6934 35.9643 35.5367 33.7377 36.8907 29.6324C37.3455 28.2534 37.7104 26.7632 37.9757 25.203L38.4561 22.3767C39.5834 22.6397 40.2049 23.5333 40.4827 25.2263C40.6498 26.2452 40.6239 27.3203 40.4052 28.4218L38.357 38.7434C38.3531 38.7627 38.3498 38.7822 38.3472 38.8017C38.3448 38.8196 38.293 39.1805 38.1659 39.749C38.0354 40.055 37.9536 40.3796 37.9233 40.7109C37.1622 43.4279 35.2037 48.0839 30.7194 48.0839C30.5933 48.0838 30.4683 48.1087 30.3518 48.1569C30.2352 48.2052 30.1293 48.276 30.0401 48.3652C29.9509 48.4544 29.8801 48.5603 29.8319 48.6769C29.7836 48.7934 29.7587 48.9184 29.7588 49.0445C29.7587 49.1707 29.7836 49.2956 29.8319 49.4122C29.8801 49.5288 29.9509 49.6347 30.0401 49.7239C30.1293 49.8131 30.2352 49.8839 30.3518 49.9321C30.4683 49.9804 30.5933 50.0052 30.7194 50.0052C33.6931 50.0052 36.1719 48.4708 37.9501 45.5523C37.923 45.7214 37.9092 45.8924 37.9091 46.0636V46.6023C37.9091 47.5215 38.297 48.3513 38.917 48.9384C38.2943 49.5687 37.9091 50.4342 37.9091 51.3881C37.9091 52.3821 38.3277 53.2796 38.997 53.9155C38.3273 54.5516 37.9088 55.4491 37.9088 56.4432ZM48.2601 58.0098H41.3973C40.5335 58.0098 39.8306 57.3069 39.8306 56.443C39.8306 55.5792 40.5335 54.8762 41.3973 54.8762H48.2601C49.124 54.8762 49.827 55.579 49.827 56.443C49.8268 57.3069 49.124 58.0098 48.2601 58.0098ZM50.8667 52.9547H41.3972C40.5333 52.9547 39.8305 52.2518 39.8305 51.3879C39.8305 50.5241 40.5333 49.8212 41.3972 49.8212H50.8667C51.7306 49.8212 52.4334 50.5241 52.4334 51.3879C52.4334 52.2518 51.7306 52.9547 50.8667 52.9547ZM53.6016 46.602C53.6017 47.3174 53.0197 47.8996 52.3041 47.8996H41.1277C40.4124 47.8996 39.8302 47.3176 39.8302 46.602V46.0634C39.8302 45.348 40.4122 44.7658 41.1277 44.7658H52.304C53.0194 44.7658 53.6016 45.3478 53.6016 46.0634V46.602ZM20.8602 13.8067L20.3146 16.9881C20.2293 17.4847 20.4297 17.9772 20.8371 18.2734C21.061 18.437 21.331 18.5254 21.6083 18.5257C21.8171 18.5257 22.027 18.4753 22.221 18.3734L25.0781 16.8713L27.9352 18.3734C28.152 18.4884 28.3967 18.54 28.6415 18.5223C28.8862 18.5047 29.121 18.4184 29.319 18.2734C29.5181 18.1299 29.6727 17.9332 29.7652 17.7059C29.8577 17.4786 29.8842 17.2298 29.8418 16.9881L29.2962 13.8067L31.6077 11.5534C31.7841 11.3828 31.9089 11.1659 31.9677 10.9277C32.0265 10.6894 32.017 10.4394 31.9402 10.2063C31.8653 9.97265 31.7261 9.76486 31.5385 9.60674C31.3509 9.44861 31.1225 9.34654 30.8796 9.31222L27.6851 8.84799L26.2565 5.95341C26.1487 5.73295 25.981 5.54731 25.7726 5.41777C25.5642 5.28823 25.3235 5.22004 25.0781 5.221C24.8327 5.22004 24.5921 5.28824 24.3837 5.41778C24.1753 5.54732 24.0076 5.73296 23.8999 5.95341L22.4714 8.84799L19.2771 9.31222C18.7784 9.3846 18.372 9.72721 18.2162 10.2063C18.0605 10.6853 18.1878 11.2016 18.5486 11.5536L20.8602 13.8067ZM22.7206 10.2317C22.9315 10.2011 23.1318 10.1197 23.3041 9.99448C23.4765 9.86925 23.6158 9.70396 23.7101 9.51287L25.0781 6.74068L26.4461 9.51262C26.5403 9.70377 26.6796 9.86912 26.852 9.99438C27.0244 10.1196 27.2247 10.2011 27.4356 10.2316L30.4946 10.6761L28.2812 12.8338C28.1285 12.9825 28.0144 13.1661 27.9486 13.3687C27.8827 13.5714 27.8672 13.787 27.9033 13.997L28.4258 17.0437L25.6897 15.6054C25.5011 15.5062 25.2912 15.4544 25.0781 15.4544C24.865 15.4543 24.6552 15.5061 24.4666 15.6053L21.7304 17.0437L22.253 13.997C22.289 13.787 22.2735 13.5714 22.2076 13.3688C22.1418 13.1661 22.0277 12.9826 21.8752 12.8338L19.6615 10.6761L22.7206 10.2317ZM35.6383 8.65501L35.0928 11.8363C35.0075 12.3329 35.2079 12.8254 35.6153 13.1216C35.8133 13.2666 36.0481 13.3529 36.2929 13.3706C36.5376 13.3882 36.7824 13.3366 36.9992 13.2216L39.8563 11.7196L42.7134 13.2216C42.9022 13.3214 43.1125 13.3737 43.3261 13.3739C43.5974 13.3739 43.8669 13.2889 44.0973 13.1216C44.2963 12.9781 44.4509 12.7815 44.5434 12.5542C44.6358 12.3269 44.6623 12.0781 44.6198 11.8364L44.0741 8.65501L46.3858 6.40178C46.5622 6.23113 46.6869 6.01425 46.7457 5.77599C46.8045 5.53772 46.7949 5.28772 46.7182 5.05462C46.6432 4.82099 46.504 4.61321 46.3164 4.45508C46.1288 4.29695 45.9004 4.19488 45.6575 4.16057L42.463 3.69634L41.0344 0.801753C40.9267 0.581301 40.759 0.395666 40.5506 0.266127C40.3422 0.136589 40.1015 0.0683893 39.8562 0.0693459C39.6108 0.0683893 39.3701 0.136589 39.1617 0.266127C38.9534 0.395666 38.7857 0.581301 38.678 0.801753L37.2493 3.69634L34.055 4.16057C33.5563 4.23282 33.1499 4.57556 32.9942 5.05462C32.8384 5.53368 32.9658 6.04996 33.3265 6.40191L35.6383 8.65501ZM37.4987 5.07994C37.7096 5.04936 37.9099 4.96794 38.0823 4.8427C38.2547 4.71747 38.394 4.55218 38.4883 4.36109L39.8563 1.58902L41.2243 4.36122C41.3186 4.55227 41.4579 4.71752 41.6303 4.84273C41.8027 4.96794 42.0029 5.04935 42.2138 5.07994L45.2729 5.52448L43.0593 7.68218C42.9068 7.83089 42.7927 8.01447 42.7268 8.2171C42.661 8.41973 42.6454 8.63532 42.6814 8.84531L43.204 11.8921L40.4677 10.4536C40.2791 10.3545 40.0693 10.3027 39.8562 10.3027C39.6432 10.3027 39.4333 10.3545 39.2447 10.4536L36.5085 11.8921L37.031 8.84531C37.0671 8.63532 37.0515 8.41972 36.9857 8.21709C36.9198 8.01447 36.8057 7.83089 36.6531 7.68218L34.4394 5.52448L37.4987 5.07994ZM61.4693 10.2065C61.3943 9.97291 61.2551 9.76512 61.0675 9.60699C60.8799 9.44886 60.6515 9.34679 60.4086 9.31248L57.2141 8.84825L55.7855 5.95366C55.5624 5.50184 55.111 5.22126 54.6072 5.22126C54.1035 5.22126 53.6521 5.50184 53.429 5.95366L52.0004 8.84825L48.8061 9.31248C48.5631 9.34677 48.3347 9.44883 48.1471 9.60696C47.9595 9.76509 47.8202 9.97289 47.7452 10.2065C47.6685 10.4396 47.659 10.6897 47.7178 10.9279C47.7766 11.1662 47.9014 11.3831 48.0777 11.5537L50.3893 13.8069L49.8436 16.9882C49.8011 17.2299 49.8276 17.4787 49.92 17.706C50.0125 17.9333 50.1671 18.13 50.3661 18.2735C50.5641 18.4185 50.7989 18.5048 51.0437 18.5225C51.2885 18.5402 51.5333 18.4886 51.75 18.3735L54.6071 16.8715L57.4642 18.3735C57.6531 18.4733 57.8634 18.5256 58.0769 18.5258C58.3483 18.5258 58.6178 18.4408 58.8481 18.2735C59.0472 18.13 59.2018 17.9334 59.2942 17.7061C59.3866 17.4788 59.4131 17.23 59.3706 16.9884L58.8249 13.8069L61.1366 11.5537C61.313 11.3831 61.4378 11.1662 61.4967 10.9279C61.5555 10.6897 61.546 10.4397 61.4693 10.2065ZM57.81 12.8341C57.6575 12.9828 57.5434 13.1663 57.4776 13.3689C57.4118 13.5715 57.3962 13.787 57.4323 13.997L57.9548 17.0437L55.2185 15.6053C55.03 15.506 54.8202 15.4542 54.6071 15.4542C54.3941 15.4542 54.1842 15.506 53.9957 15.6053L51.2596 17.0437L51.7821 13.997C51.8182 13.787 51.8026 13.5714 51.7368 13.3687C51.6709 13.1661 51.5568 12.9825 51.4042 12.8338L49.1907 10.6763L52.2497 10.2317C52.4605 10.2011 52.6608 10.1197 52.8332 9.99449C53.0056 9.86925 53.145 9.70396 53.2392 9.51287L54.6072 6.74081L55.9753 9.513C56.0695 9.70405 56.2089 9.8693 56.3813 9.99451C56.5536 10.1197 56.7539 10.2011 56.9647 10.2317L60.0239 10.6763L57.81 12.8341ZM65.1965 30.0722C65.4093 30.0722 65.6134 29.9876 65.7639 29.8372C65.9143 29.6867 65.9989 29.4826 65.9989 29.2698V27.3056C65.9989 27.0928 65.9143 26.8887 65.7639 26.7383C65.6134 26.5878 65.4093 26.5032 65.1965 26.5032C64.9837 26.5032 64.7796 26.5878 64.6292 26.7383C64.4787 26.8887 64.3942 27.0928 64.3942 27.3056V29.2697C64.3942 29.4825 64.4787 29.6866 64.6291 29.8371C64.7796 29.9876 64.9837 30.0721 65.1965 30.0722ZM65.1965 36.11C65.4093 36.11 65.6134 36.0254 65.7639 35.875C65.9143 35.7245 65.9989 35.5204 65.9989 35.3076V33.3434C65.9989 33.1306 65.9143 32.9265 65.7639 32.776C65.6134 32.6256 65.4093 32.541 65.1965 32.541C64.9837 32.541 64.7796 32.6256 64.6292 32.776C64.4787 32.9265 64.3942 33.1306 64.3942 33.3434V35.3076C64.3942 35.5204 64.4787 35.7245 64.6292 35.875C64.7796 36.0254 64.9837 36.11 65.1965 36.11ZM67.2334 32.109H69.1976C69.4104 32.109 69.6145 32.0245 69.7649 31.874C69.9154 31.7235 69.9999 31.5195 69.9999 31.3067C69.9999 31.0939 69.9154 30.8898 69.7649 30.7393C69.6145 30.5888 69.4104 30.5043 69.1976 30.5043H67.2334C67.0206 30.5043 66.8165 30.5888 66.666 30.7393C66.5155 30.8898 66.431 31.0939 66.431 31.3067C66.431 31.5195 66.5155 31.7235 66.666 31.874C66.8165 32.0245 67.0206 32.109 67.2334 32.109ZM61.1956 32.109H63.1598C63.3726 32.109 63.5767 32.0245 63.7271 31.874C63.8776 31.7235 63.9622 31.5195 63.9622 31.3067C63.9622 31.0939 63.8776 30.8898 63.7271 30.7393C63.5767 30.5888 63.3726 30.5043 63.1598 30.5043H61.1956C60.9828 30.5043 60.7787 30.5888 60.6282 30.7393C60.4778 30.8898 60.3932 31.0939 60.3932 31.3067C60.3932 31.5195 60.4778 31.7235 60.6282 31.874C60.7787 32.0245 60.9828 32.109 61.1956 32.109Z" fill="white"/>
<path d="M57.6466 27.9333C58.1298 27.9333 58.5215 27.5416 58.5215 27.0585C58.5215 26.5753 58.1298 26.1836 57.6466 26.1836C57.1634 26.1836 56.7717 26.5753 56.7717 27.0585C56.7717 27.5416 57.1634 27.9333 57.6466 27.9333Z" fill="white"/>
<path d="M6.3976 19.182C6.68104 19.1819 6.95286 19.0693 7.15329 18.8689C7.35371 18.6685 7.46632 18.3967 7.46635 18.1132V15.4972C7.46201 15.2166 7.3475 14.949 7.14754 14.7521C6.94758 14.5552 6.67822 14.4448 6.3976 14.4448C6.11698 14.4448 5.84762 14.5552 5.64766 14.7521C5.4477 14.949 5.3332 15.2166 5.32886 15.4972V18.1132C5.32889 18.3967 5.4415 18.6685 5.64192 18.8689C5.84234 19.0693 6.11416 19.1819 6.3976 19.182ZM6.3976 27.2237C6.68104 27.2237 6.95286 27.1111 7.15329 26.9107C7.35371 26.7102 7.46632 26.4384 7.46635 26.155V23.5389C7.46201 23.2583 7.3475 22.9907 7.14754 22.7938C6.94758 22.5969 6.67822 22.4866 6.3976 22.4866C6.11698 22.4866 5.84762 22.5969 5.64766 22.7938C5.4477 22.9907 5.3332 23.2583 5.32886 23.5389V26.155C5.32889 26.4384 5.4415 26.7102 5.64192 26.9107C5.84234 27.1111 6.11416 27.2237 6.3976 27.2237ZM9.11046 21.8948H11.7265C12.0071 21.8905 12.2747 21.776 12.4716 21.576C12.6685 21.3761 12.7789 21.1067 12.7789 20.8261C12.7789 20.5455 12.6685 20.2761 12.4716 20.0761C12.2747 19.8762 12.0071 19.7617 11.7265 19.7573H9.11046C8.82988 19.7617 8.56225 19.8762 8.36536 20.0761C8.16847 20.2761 8.05812 20.5455 8.05812 20.8261C8.05812 21.1067 8.16847 21.3761 8.36536 21.576C8.56225 21.776 8.82988 21.8905 9.11046 21.8948ZM1.0687 21.8948H3.68474C3.96533 21.8905 4.23295 21.776 4.42984 21.576C4.62673 21.3761 4.73708 21.1067 4.73708 20.8261C4.73708 20.5455 4.62673 20.2761 4.42984 20.0761C4.23295 19.8762 3.96533 19.7617 3.68474 19.7573H1.0687C0.788111 19.7617 0.520488 19.8762 0.323601 20.0761C0.126713 20.2761 0.0163574 20.5455 0.0163574 20.8261C0.0163574 21.1067 0.126713 21.3761 0.323601 21.576C0.520488 21.776 0.788111 21.8905 1.0687 21.8948Z" fill="white"/>
<path d="M14.7946 29.3006C15.4381 29.3006 15.9597 28.7789 15.9597 28.1354C15.9597 27.4919 15.4381 26.9702 14.7946 26.9702C14.1511 26.9702 13.6294 27.4919 13.6294 28.1354C13.6294 28.7789 14.1511 29.3006 14.7946 29.3006Z" fill="white"/>
</g>
<defs>
<clipPath id="clip0_5_1694">
<rect width="70" height="60" fill="white"/>
</clipPath>
</defs>
</svg>
