<svg width="64" height="62" viewBox="0 0 64 62" fill="none" xmlns="http://www.w3.org/2000/svg">
<g clip-path="url(#clip0_5_1706)">
<path d="M45.6138 9.08496C43.511 9.08496 41.801 10.795 41.801 12.8977V13.5869L36.8932 15.5448L36.8983 17.6014L43.1079 15.1177C43.2848 15.0468 43.4364 14.9246 43.5432 14.7668C43.6501 14.609 43.7072 14.4228 43.7074 14.2322V12.8977C43.7074 11.8464 44.5623 10.9913 45.6138 10.9913C46.6653 10.9913 47.5202 11.8463 47.5202 12.8977V47.2128C47.5202 48.2642 46.6653 49.1192 45.6138 49.1192C44.5623 49.1192 43.7074 48.2643 43.7074 47.2128V45.8783C43.7075 45.6877 43.6504 45.5014 43.5435 45.3435C43.4367 45.1857 43.2849 45.0635 43.1079 44.9928L20.8306 36.0823V24.0282L30.0275 20.3496C30.027 20.3647 30.0191 18.2992 30.0191 18.2992L19.5229 22.4973C19.3463 22.5684 19.1949 22.6907 19.0882 22.8485C18.9815 23.0063 18.9245 23.1924 18.9243 23.3828V36.7276C18.9243 36.918 18.9814 37.104 19.0881 37.2616C19.1948 37.4193 19.3462 37.5414 19.5229 37.6122L41.801 46.5227V47.2128C41.801 49.3156 43.5111 51.0256 45.6138 51.0256C47.7166 51.0256 49.4265 49.3155 49.4265 47.2128V12.8977C49.4265 10.7949 47.7166 9.08496 45.6138 9.08496Z" fill="white"/>
<path d="M19.8773 37.6809H13.205C9.00036 37.6809 5.57935 34.2599 5.57935 30.0553C5.57935 25.8507 9.00036 22.4297 13.205 22.4297H19.8773C20.1301 22.4298 20.3725 22.5302 20.5512 22.709C20.7299 22.8877 20.8304 23.1301 20.8305 23.3828V36.7276C20.8305 36.8528 20.8059 36.9768 20.758 37.0925C20.7101 37.2081 20.6399 37.3132 20.5514 37.4018C20.4629 37.4903 20.3578 37.5605 20.2421 37.6084C20.1265 37.6563 20.0025 37.6809 19.8773 37.6809ZM13.205 24.3361C10.0508 24.3361 7.48578 26.9011 7.48578 30.0553C7.48578 33.2095 10.0508 35.7745 13.205 35.7745H18.9241V24.3361H13.205ZM48.4732 35.7745C48.2732 35.7745 48.0782 35.7118 47.9156 35.5953C47.7932 35.5067 47.6935 35.3904 47.6247 35.2559C47.556 35.1213 47.5201 34.9724 47.5201 34.8213V25.2894C47.52 25.1384 47.5559 24.9896 47.6246 24.8552C47.6934 24.7207 47.7931 24.6046 47.9156 24.5163C48.0382 24.4281 48.1799 24.3701 48.3292 24.3473C48.4785 24.3244 48.6311 24.3372 48.7745 24.3847L54.4937 26.2911C54.6835 26.3544 54.8487 26.4758 54.9657 26.6381C55.0827 26.8005 55.1457 26.9956 55.1457 27.1957V32.9149C55.146 33.115 55.0831 33.3101 54.966 33.4723C54.8489 33.6346 54.6836 33.7558 54.4937 33.8186L48.7745 35.725C48.6774 35.7578 48.5757 35.7745 48.4732 35.7745ZM49.4264 26.6114V33.4982L53.2391 32.2276V27.882L49.4264 26.6114Z" fill="white"/>
<path d="M16.0636 53.8852C15.8489 53.8849 15.6406 53.8121 15.4723 53.6788C15.304 53.5454 15.1856 53.3593 15.1362 53.1503L11.3234 36.9459C11.2905 36.8058 11.2897 36.6601 11.321 36.5196C11.3524 36.3791 11.4151 36.2476 11.5045 36.1347C11.594 36.0224 11.7077 35.9317 11.837 35.8693C11.9664 35.8069 12.1082 35.7745 12.2518 35.7744H19.8774C20.09 35.7745 20.2965 35.8456 20.464 35.9765C20.6315 36.1074 20.7505 36.2906 20.802 36.4969L23.5977 47.6779L24.5546 48.6359C24.9884 49.0743 25.2228 49.65 25.219 50.261C25.2181 50.5616 25.1575 50.859 25.0409 51.136C24.9242 51.413 24.7538 51.6641 24.5394 51.8748C24.2338 52.1756 23.8502 52.385 23.4318 52.4791L23.4032 52.4848L16.2447 53.8669C16.1851 53.8792 16.1245 53.8853 16.0636 53.8852ZM13.4557 37.6809L16.7833 51.8226L23.024 50.6168C23.0905 50.6001 23.1515 50.5659 23.2003 50.5177C23.2718 50.4468 23.3126 50.3506 23.3137 50.2498C23.3137 50.1897 23.3004 50.0764 23.2041 49.9801L22.0641 48.84C21.9419 48.7177 21.8553 48.5645 21.8134 48.3968L19.133 37.6809H13.4557ZM57.0521 29.1022H62.7713V31.0086H57.0521V29.1022ZM56.5609 20.6604L61.3264 17.8003L62.3074 19.4348L57.5419 22.2949L56.5609 20.6604ZM56.5681 39.4514L57.5489 37.8167L62.3151 40.6762L61.3342 42.311L56.5681 39.4514ZM41.801 13.8509H43.7074V46.2596H41.801V13.8509ZM15.1114 26.2426H17.0178V30.0553H15.1114V26.2426ZM11.2986 26.2426H13.2051V30.0553H11.2986V26.2426ZM6.4286 8.55935C7.02163 8.55935 7.50252 8.07858 7.50252 7.48544V4.85663C7.50252 4.2636 7.02174 3.78271 6.4286 3.78271C5.83546 3.78271 5.35469 4.26349 5.35469 4.85663V7.48544C5.35469 8.07858 5.83557 8.55935 6.4286 8.55935ZM6.4286 16.6403C7.02163 16.6403 7.50252 16.1595 7.50252 15.5664V12.9375C7.50252 12.3445 7.02174 11.8636 6.4286 11.8636C5.83546 11.8636 5.35469 12.3444 5.35469 12.9375V15.5664C5.35469 16.1595 5.83557 16.6403 6.4286 16.6403ZM9.15482 11.2856H11.7836C12.3767 11.2856 12.8575 10.8048 12.8575 10.2117C12.8575 9.61852 12.3768 9.13775 11.7836 9.13775H9.15482C8.56179 9.13775 8.08091 9.61852 8.08091 10.2117C8.08091 10.8048 8.56168 11.2856 9.15482 11.2856ZM1.07391 11.2856H3.70272C4.29575 11.2856 4.77663 10.8048 4.77663 10.2117C4.77663 9.61852 4.29575 9.13775 3.70272 9.13775H1.07391C0.480875 9.13775 0 9.61852 0 10.2117C0 10.8048 0.480763 11.2856 1.07391 11.2856Z" fill="white"/>
<path d="M14.8664 18.727C15.5131 18.727 16.0373 18.2028 16.0373 17.5561C16.0373 16.9095 15.5131 16.3853 14.8664 16.3853C14.2198 16.3853 13.6956 16.9095 13.6956 17.5561C13.6956 18.2028 14.2198 18.727 14.8664 18.727Z" fill="white"/>
<path d="M57.1595 55.1043C57.3785 55.1043 57.5884 55.0173 57.7432 54.8625C57.898 54.7077 57.985 54.4977 57.985 54.2788V52.2581C57.985 52.0392 57.898 51.8292 57.7432 51.6744C57.5884 51.5196 57.3785 51.4326 57.1595 51.4326C56.9406 51.4326 56.7306 51.5196 56.5758 51.6744C56.421 51.8292 56.334 52.0392 56.334 52.2581V54.2788C56.334 54.4977 56.421 54.7077 56.5758 54.8625C56.7306 55.0173 56.9406 55.1043 57.1595 55.1043ZM57.1595 61.3159C57.3785 61.3159 57.5884 61.2289 57.7432 61.0741C57.898 60.9193 57.985 60.7093 57.985 60.4904V58.4697C57.985 58.2507 57.898 58.0408 57.7432 57.886C57.5884 57.7312 57.3785 57.6442 57.1595 57.6442C56.9406 57.6442 56.7306 57.7312 56.5758 57.886C56.421 58.0408 56.334 58.2507 56.334 58.4697V60.4904C56.334 60.7093 56.421 60.9193 56.5758 61.0741C56.7306 61.2289 56.9406 61.3159 57.1595 61.3159ZM59.255 57.1998H61.2757C61.4946 57.1998 61.7046 57.1129 61.8594 56.9581C62.0142 56.8032 62.1011 56.5933 62.1011 56.3743C62.1011 56.1554 62.0142 55.9454 61.8594 55.7906C61.7046 55.6358 61.4946 55.5489 61.2757 55.5489H59.255C59.036 55.5489 58.8261 55.6358 58.6713 55.7906C58.5164 55.9454 58.4295 56.1554 58.4295 56.3743C58.4295 56.5933 58.5164 56.8032 58.6713 56.9581C58.8261 57.1129 59.036 57.1998 59.255 57.1998ZM53.0435 57.1998H55.0642C55.2831 57.1998 55.4931 57.1129 55.6479 56.9581C55.8027 56.8032 55.8897 56.5933 55.8897 56.3743C55.8897 56.1554 55.8027 55.9454 55.6479 55.7906C55.4931 55.6358 55.2831 55.5489 55.0642 55.5489H53.0435C52.8246 55.5489 52.6146 55.6358 52.4598 55.7906C52.305 55.9454 52.218 56.1554 52.218 56.3743C52.218 56.5933 52.305 56.8032 52.4598 56.9581C52.6146 57.1129 52.8246 57.1998 53.0435 57.1998Z" fill="white"/>
<path d="M52.0062 51.2809C52.5032 51.2809 52.9062 50.878 52.9062 50.3809C52.9062 49.8839 52.5032 49.481 52.0062 49.481C51.5091 49.481 51.1062 49.8839 51.1062 50.3809C51.1062 50.878 51.5091 51.2809 52.0062 51.2809Z" fill="white"/>
<path d="M59.2906 4.18317C59.4992 4.18317 59.6993 4.10029 59.8469 3.95275C59.9944 3.80521 60.0773 3.6051 60.0773 3.39645V1.4708C60.0773 1.26215 59.9944 1.06205 59.8469 0.914508C59.6993 0.766969 59.4992 0.684082 59.2906 0.684082C59.0819 0.684082 58.8818 0.766969 58.7343 0.914508C58.5867 1.06205 58.5039 1.26215 58.5039 1.4708V3.39645C58.5039 3.60509 58.5868 3.80518 58.7343 3.95271C58.8818 4.10025 59.0819 4.18314 59.2906 4.18317ZM59.2906 10.1027C59.4992 10.1027 59.6993 10.0199 59.8469 9.87232C59.9944 9.72479 60.0773 9.52468 60.0773 9.31603V7.39038C60.0773 7.18173 59.9944 6.98163 59.8469 6.83409C59.6993 6.68655 59.4992 6.60366 59.2906 6.60366C59.0819 6.60366 58.8818 6.68655 58.7343 6.83409C58.5867 6.98163 58.5039 7.18173 58.5039 7.39038V9.31603C58.5039 9.52467 58.5868 9.72476 58.7343 9.87229C58.8818 10.0198 59.0819 10.1027 59.2906 10.1027ZM61.2876 6.18019H63.2132C63.4219 6.18019 63.622 6.09731 63.7695 5.94977C63.9171 5.80223 64 5.60212 64 5.39347C64 5.18482 63.9171 4.98471 63.7695 4.83718C63.622 4.68964 63.4219 4.60675 63.2132 4.60675H61.2876C61.0789 4.60675 60.8788 4.68964 60.7313 4.83718C60.5838 4.98471 60.5009 5.18482 60.5009 5.39347C60.5009 5.60212 60.5838 5.80223 60.7313 5.94977C60.8788 6.09731 61.0789 6.18019 61.2876 6.18019ZM55.368 6.18019H57.2937C57.5023 6.18019 57.7024 6.09731 57.85 5.94977C57.9975 5.80223 58.0804 5.60212 58.0804 5.39347C58.0804 5.18482 57.9975 4.98471 57.85 4.83718C57.7024 4.68964 57.5023 4.60675 57.2937 4.60675H55.368C55.1594 4.60675 54.9593 4.68964 54.8117 4.83718C54.6642 4.98471 54.5813 5.18482 54.5813 5.39347C54.5813 5.60212 54.6642 5.80223 54.8117 5.94977C54.9593 6.09731 55.1594 6.18019 55.368 6.18019Z" fill="white"/>
<path d="M54.7564 10.5866C55.2302 10.5866 55.6142 10.2026 55.6142 9.72886C55.6142 9.25513 55.2302 8.87109 54.7564 8.87109C54.2827 8.87109 53.8987 9.25513 53.8987 9.72886C53.8987 10.2026 54.2827 10.5866 54.7564 10.5866Z" fill="white"/>
</g>
<defs>
<clipPath id="clip0_5_1706">
<rect width="64" height="62" fill="white"/>
</clipPath>
</defs>
</svg>
