<svg width="73" height="56" viewBox="0 0 73 56" fill="none" xmlns="http://www.w3.org/2000/svg">
<g clip-path="url(#clip0_5_1721)">
<path d="M69.0733 20.0085C61.3704 12.3003 50.4444 7.40967 39.521 7.40967C28.5922 7.40967 17.5984 12.3641 9.89014 20.0723L11.3914 21.6134C18.694 14.3108 29.1587 9.53451 39.521 9.53451C49.8779 9.53451 60.0647 14.0156 67.3727 21.3182L69.0733 20.0085Z" fill="white"/>
<path d="M17.6305 27.8442C29.2865 16.1895 49.676 16.1309 61.3307 27.7857L62.9769 26.3962C50.4964 13.9157 28.6682 13.8199 16.1877 26.3004L17.6305 27.8442Z" fill="white"/>
<path d="M39.5211 25.0854C33.3248 25.0854 26.7069 28.2408 22.3389 32.6102L23.872 34.122C27.8451 30.1542 33.8899 27.2143 39.5211 27.2143C45.1457 27.2143 50.9631 29.9229 54.9309 33.8907L56.6529 32.5769C52.2835 28.2089 45.7175 25.0854 39.5211 25.0854ZM39.5211 35.094C37.6732 35.0961 35.9015 35.8312 34.5948 37.1379C33.288 38.4446 32.553 40.2163 32.5509 42.0643C32.5526 43.9125 33.2875 45.6845 34.5943 46.9915C35.901 48.2985 37.6729 49.0337 39.5211 49.0358C41.3687 49.0334 43.1399 48.2979 44.4457 46.9908C45.7515 45.6837 46.4853 43.9119 46.486 42.0643C46.4846 40.217 45.7506 38.4457 44.4448 37.139C43.1391 35.8323 41.3684 35.0968 39.5211 35.094ZM39.5211 46.9057C38.2375 46.9043 37.0069 46.3937 36.0993 45.4861C35.1917 44.5785 34.6811 43.3479 34.6797 42.0643C34.6811 40.7808 35.1917 39.5503 36.0994 38.6429C37.007 37.7355 38.2377 37.2253 39.5211 37.2242C40.8041 37.2263 42.034 37.7369 42.9412 38.6441C43.8485 39.5514 44.3591 40.7812 44.3612 42.0643C44.3601 43.3477 43.8499 44.5783 42.9425 45.486C42.0351 46.3937 40.8046 46.9043 39.5211 46.9057ZM65.974 46.9522C66.2854 46.9522 66.584 46.8285 66.8042 46.6083C67.0244 46.3881 67.1481 46.0895 67.1481 45.7781V42.9046C67.1481 42.5932 67.0244 42.2946 66.8042 42.0744C66.584 41.8542 66.2854 41.7305 65.974 41.7305C65.6626 41.7305 65.3639 41.8542 65.1438 42.0744C64.9236 42.2946 64.7999 42.5932 64.7999 42.9046V45.7781C64.7999 46.427 65.3251 46.9522 65.974 46.9522ZM65.974 55.784C66.2854 55.784 66.584 55.6603 66.8042 55.4401C67.0244 55.2199 67.1481 54.9213 67.1481 54.6099V51.7364C67.1481 51.425 67.0244 51.1264 66.8042 50.9062C66.584 50.686 66.2854 50.5623 65.974 50.5623C65.6626 50.5623 65.3639 50.686 65.1438 50.9062C64.9236 51.1264 64.7999 51.425 64.7999 51.7364V54.6099C64.7999 55.2588 65.3251 55.784 65.974 55.784ZM68.9525 49.932H71.826C72.1373 49.932 72.436 49.8083 72.6562 49.5882C72.8764 49.368 73.0001 49.0693 73.0001 48.7579C73.0001 48.4465 72.8764 48.1479 72.6562 47.9277C72.436 47.7075 72.1373 47.5838 71.826 47.5838H68.9525C68.6411 47.5838 68.3425 47.7075 68.1223 47.9277C67.9021 48.1479 67.7784 48.4465 67.7784 48.7579C67.7784 49.0693 67.9021 49.368 68.1223 49.5882C68.3425 49.8083 68.6411 49.932 68.9525 49.932ZM60.1207 49.932H62.9942C63.3055 49.932 63.6042 49.8083 63.8244 49.5882C64.0446 49.368 64.1683 49.0693 64.1683 48.7579C64.1683 48.4465 64.0446 48.1479 63.8244 47.9277C63.6042 47.7075 63.3055 47.5838 62.9942 47.5838H60.1207C59.8093 47.5838 59.5107 47.7075 59.2905 47.9277C59.0703 48.1479 58.9466 48.4465 58.9466 48.7579C58.9466 49.0693 59.0703 49.368 59.2905 49.5882C59.5107 49.8083 59.8093 49.932 60.1207 49.932Z" fill="white"/>
<path d="M58.6461 41.5149C59.3526 41.5149 59.9253 40.9422 59.9253 40.2357C59.9253 39.5292 59.3526 38.9565 58.6461 38.9565C57.9396 38.9565 57.3669 39.5292 57.3669 40.2357C57.3669 40.9422 57.9396 41.5149 58.6461 41.5149Z" fill="white"/>
<path d="M5.3028 4.15618C5.53767 4.15618 5.76292 4.06288 5.929 3.8968C6.09508 3.73073 6.18838 3.50548 6.18838 3.27061V1.10188C6.18838 0.867014 6.09508 0.641764 5.929 0.475687C5.76292 0.30961 5.53767 0.216309 5.3028 0.216309C5.06794 0.216309 4.84269 0.30961 4.67661 0.475687C4.51053 0.641764 4.41723 0.867014 4.41723 1.10188V3.27061C4.41723 3.75993 4.81348 4.15618 5.3028 4.15618ZM5.3028 10.8219C5.53767 10.8219 5.76292 10.7286 5.929 10.5625C6.09508 10.3965 6.18838 10.1712 6.18838 9.93635V7.76762C6.18838 7.53275 6.09508 7.3075 5.929 7.14142C5.76292 6.97535 5.53767 6.88205 5.3028 6.88205C5.06794 6.88205 4.84269 6.97535 4.67661 7.14142C4.51053 7.3075 4.41723 7.53275 4.41723 7.76762V9.93635C4.41723 10.4257 4.81348 10.8219 5.3028 10.8219ZM7.55131 6.40469H9.72004C9.95491 6.40469 10.1802 6.31139 10.3462 6.14531C10.5123 5.97923 10.6056 5.75398 10.6056 5.51911C10.6056 5.28425 10.5123 5.059 10.3462 4.89292C10.1802 4.72684 9.95491 4.63354 9.72004 4.63354H7.55131C7.31644 4.63354 7.09119 4.72684 6.92512 4.89292C6.75904 5.059 6.66574 5.28425 6.66574 5.51911C6.66574 5.75398 6.75904 5.97923 6.92512 6.14531C7.09119 6.31139 7.31644 6.40469 7.55131 6.40469ZM0.885574 6.40469H3.0543C3.28917 6.40469 3.51442 6.31139 3.68049 6.14531C3.84657 5.97923 3.93987 5.75398 3.93987 5.51911C3.93987 5.28425 3.84657 5.059 3.68049 4.89292C3.51442 4.72684 3.28917 4.63354 3.0543 4.63354H0.885574C0.650705 4.63354 0.425456 4.72684 0.259379 4.89292C0.0933013 5.059 0 5.28425 0 5.51911C0 5.75398 0.0933013 5.97923 0.259379 6.14531C0.425456 6.31139 0.650705 6.40469 0.885574 6.40469Z" fill="white"/>
<path d="M12.2625 12.5425C12.7956 12.5425 13.2278 12.1103 13.2278 11.5772C13.2278 11.044 12.7956 10.6118 12.2625 10.6118C11.7293 10.6118 11.2971 11.044 11.2971 11.5772C11.2971 12.1103 11.7293 12.5425 12.2625 12.5425Z" fill="white"/>
</g>
<defs>
<clipPath id="clip0_5_1721">
<rect width="73" height="56" fill="white"/>
</clipPath>
</defs>
</svg>
